<svg width="37" height="31" viewBox="0 0 37 31" fill="none" xmlns="http://www.w3.org/2000/svg">
<path d="M1 15.6295C1 14.8241 1.59847 14.1585 2.37496 14.0532L2.59082 14.0387L34.4072 14.0387C35.2858 14.0387 35.9981 14.7509 35.9981 15.6295C35.9981 16.4349 35.3996 17.1004 34.6231 17.2058L34.4072 17.2203L2.59082 17.2203C1.71223 17.2203 1 16.5081 1 15.6295Z" fill="white" stroke="white" stroke-width="2"/>
<path d="M20.4542 3.97941C19.8316 3.3595 19.8294 2.35225 20.4494 1.72966C21.0129 1.16367 21.8966 1.11042 22.5204 1.57117L22.6991 1.72481L35.5317 14.5023C36.0994 15.0675 36.1511 15.9544 35.6866 16.5781L35.5318 16.7568L22.6992 29.5364C22.0767 30.1564 21.0694 30.1543 20.4495 29.5317C19.8858 28.9658 19.8363 28.0819 20.2997 27.4601L20.4541 27.282L32.1541 15.6289L20.4542 3.97941Z" fill="white" stroke="white" stroke-width="2"/>
</svg>
