<svg width="145" height="14" viewBox="0 0 145 14" fill="none" xmlns="http://www.w3.org/2000/svg">
<path d="M0.0790001 11V1.315H4.148C4.72867 1.315 5.227 1.419 5.643 1.627C6.06767 1.835 6.39267 2.12967 6.618 2.511C6.852 2.88367 6.969 3.33 6.969 3.85C6.969 4.32667 6.84333 4.76 6.592 5.15C6.34933 5.53133 5.98967 5.83033 5.513 6.047L5.5 5.566C5.916 5.722 6.25833 5.93 6.527 6.19C6.80433 6.44133 7.01233 6.736 7.151 7.074C7.28967 7.40333 7.359 7.75433 7.359 8.127C7.359 9.01967 7.073 9.72167 6.501 10.233C5.929 10.7443 5.149 11 4.161 11H0.0790001ZM1.353 9.83H4.213C4.77633 9.83 5.227 9.67833 5.565 9.375C5.903 9.07167 6.072 8.66 6.072 8.14C6.072 7.62 5.903 7.20833 5.565 6.905C5.227 6.593 4.77633 6.437 4.213 6.437H1.353V9.83ZM1.353 5.293H4.122C4.59 5.293 4.967 5.15867 5.253 4.89C5.539 4.61267 5.682 4.26167 5.682 3.837C5.682 3.395 5.539 3.057 5.253 2.823C4.967 2.589 4.59 2.472 4.122 2.472H1.353V5.293ZM11.42 11.156C10.9173 11.156 10.4623 11.039 10.055 10.805C9.65631 10.571 9.34431 10.246 9.11898 9.83C8.90231 9.40533 8.79398 8.92 8.79398 8.374V3.993H10.003V8.244C10.003 8.59067 10.0723 8.894 10.211 9.154C10.3583 9.414 10.5576 9.61767 10.809 9.765C11.069 9.91233 11.3636 9.986 11.693 9.986C12.0223 9.986 12.3126 9.91233 12.564 9.765C12.824 9.61767 13.0233 9.40533 13.162 9.128C13.3093 8.85067 13.383 8.52133 13.383 8.14V3.993H14.605V11H13.422V9.635L13.617 9.752C13.4523 10.194 13.1706 10.5407 12.772 10.792C12.382 11.0347 11.9313 11.156 11.42 11.156ZM18.987 11.156C18.285 11.156 17.674 10.9827 17.154 10.636C16.634 10.2893 16.2657 9.82133 16.049 9.232L17.011 8.764C17.2103 9.18 17.4833 9.50933 17.83 9.752C18.1767 9.99467 18.5623 10.116 18.987 10.116C19.3683 10.116 19.6847 10.025 19.936 9.843C20.1873 9.661 20.313 9.42267 20.313 9.128C20.313 8.92 20.2523 8.75533 20.131 8.634C20.0183 8.504 19.8797 8.40433 19.715 8.335C19.5503 8.257 19.3987 8.20067 19.26 8.166L18.207 7.867C17.5743 7.685 17.1107 7.425 16.816 7.087C16.53 6.749 16.387 6.35467 16.387 5.904C16.387 5.488 16.491 5.12833 16.699 4.825C16.9157 4.513 17.206 4.27033 17.57 4.097C17.9427 3.92367 18.3587 3.837 18.818 3.837C19.4333 3.837 19.9837 3.993 20.469 4.305C20.963 4.617 21.314 5.05467 21.522 5.618L20.534 6.073C20.378 5.709 20.144 5.423 19.832 5.215C19.52 4.99833 19.169 4.89 18.779 4.89C18.4237 4.89 18.142 4.981 17.934 5.163C17.726 5.33633 17.622 5.55733 17.622 5.826C17.622 6.02533 17.674 6.19 17.778 6.32C17.882 6.44133 18.0077 6.53667 18.155 6.606C18.3023 6.66667 18.4453 6.71867 18.584 6.762L19.728 7.1C20.3 7.26467 20.742 7.52033 21.054 7.867C21.3747 8.21367 21.535 8.62967 21.535 9.115C21.535 9.505 21.4267 9.856 21.21 10.168C20.9933 10.48 20.6943 10.7227 20.313 10.896C19.9317 11.0693 19.4897 11.156 18.987 11.156ZM23.1176 11V3.993H24.3266V11H23.1176ZM23.1176 2.875V1.315H24.3266V2.875H23.1176ZM26.2026 11V3.993H27.3856V5.358L27.1906 5.241C27.3639 4.799 27.6413 4.45667 28.0226 4.214C28.4126 3.96267 28.8676 3.837 29.3876 3.837C29.8903 3.837 30.3366 3.94967 30.7266 4.175C31.1253 4.40033 31.4373 4.71233 31.6626 5.111C31.8966 5.50967 32.0136 5.96033 32.0136 6.463V11H30.7916V6.853C30.7916 6.463 30.7223 6.13367 30.5836 5.865C30.4449 5.59633 30.2456 5.38833 29.9856 5.241C29.7343 5.085 29.4439 5.007 29.1146 5.007C28.7853 5.007 28.4906 5.085 28.2306 5.241C27.9793 5.38833 27.7799 5.60067 27.6326 5.878C27.4853 6.14667 27.4116 6.47167 27.4116 6.853V11H26.2026ZM36.9676 11.156C36.2916 11.156 35.6893 10.9957 35.1606 10.675C34.632 10.3543 34.216 9.91667 33.9126 9.362C33.6093 8.79867 33.4576 8.17033 33.4576 7.477C33.4576 6.775 33.605 6.151 33.8996 5.605C34.203 5.059 34.6103 4.63 35.1216 4.318C35.6416 3.99733 36.2223 3.837 36.8636 3.837C37.3836 3.837 37.843 3.93233 38.2416 4.123C38.649 4.305 38.9913 4.55633 39.2686 4.877C39.5546 5.189 39.7713 5.54867 39.9186 5.956C40.0746 6.35467 40.1526 6.77067 40.1526 7.204C40.1526 7.29933 40.144 7.40767 40.1266 7.529C40.118 7.64167 40.105 7.75 40.0876 7.854H34.3416V6.814H39.3856L38.8136 7.282C38.8916 6.83133 38.8483 6.42833 38.6836 6.073C38.519 5.71767 38.2763 5.436 37.9556 5.228C37.635 5.02 37.271 4.916 36.8636 4.916C36.4563 4.916 36.0836 5.02 35.7456 5.228C35.4076 5.436 35.1433 5.735 34.9526 6.125C34.7706 6.50633 34.697 6.96133 34.7316 7.49C34.697 8.00133 34.775 8.452 34.9656 8.842C35.165 9.22333 35.4423 9.52233 35.7976 9.739C36.1616 9.947 36.556 10.051 36.9806 10.051C37.4486 10.051 37.843 9.94267 38.1636 9.726C38.4843 9.50933 38.7443 9.232 38.9436 8.894L39.9576 9.414C39.819 9.73467 39.6023 10.0293 39.3076 10.298C39.0216 10.558 38.6793 10.766 38.2806 10.922C37.8906 11.078 37.453 11.156 36.9676 11.156ZM44.238 11.156C43.536 11.156 42.925 10.9827 42.405 10.636C41.885 10.2893 41.5166 9.82133 41.3 9.232L42.262 8.764C42.4613 9.18 42.7343 9.50933 43.081 9.752C43.4276 9.99467 43.8133 10.116 44.238 10.116C44.6193 10.116 44.9356 10.025 45.187 9.843C45.4383 9.661 45.564 9.42267 45.564 9.128C45.564 8.92 45.5033 8.75533 45.382 8.634C45.2693 8.504 45.1306 8.40433 44.966 8.335C44.8013 8.257 44.6496 8.20067 44.511 8.166L43.458 7.867C42.8253 7.685 42.3616 7.425 42.067 7.087C41.781 6.749 41.638 6.35467 41.638 5.904C41.638 5.488 41.742 5.12833 41.95 4.825C42.1666 4.513 42.457 4.27033 42.821 4.097C43.1936 3.92367 43.6096 3.837 44.069 3.837C44.6843 3.837 45.2346 3.993 45.72 4.305C46.214 4.617 46.565 5.05467 46.773 5.618L45.785 6.073C45.629 5.709 45.395 5.423 45.083 5.215C44.771 4.99833 44.42 4.89 44.03 4.89C43.6746 4.89 43.393 4.981 43.185 5.163C42.977 5.33633 42.873 5.55733 42.873 5.826C42.873 6.02533 42.925 6.19 43.029 6.32C43.133 6.44133 43.2586 6.53667 43.406 6.606C43.5533 6.66667 43.6963 6.71867 43.835 6.762L44.979 7.1C45.551 7.26467 45.993 7.52033 46.305 7.867C46.6256 8.21367 46.786 8.62967 46.786 9.115C46.786 9.505 46.6776 9.856 46.461 10.168C46.2443 10.48 45.9453 10.7227 45.564 10.896C45.1826 11.0693 44.7406 11.156 44.238 11.156ZM50.8776 11.156C50.1756 11.156 49.5646 10.9827 49.0446 10.636C48.5246 10.2893 48.1563 9.82133 47.9396 9.232L48.9016 8.764C49.101 9.18 49.374 9.50933 49.7206 9.752C50.0673 9.99467 50.453 10.116 50.8776 10.116C51.259 10.116 51.5753 10.025 51.8266 9.843C52.078 9.661 52.2036 9.42267 52.2036 9.128C52.2036 8.92 52.143 8.75533 52.0216 8.634C51.909 8.504 51.7703 8.40433 51.6056 8.335C51.441 8.257 51.2893 8.20067 51.1506 8.166L50.0976 7.867C49.465 7.685 49.0013 7.425 48.7066 7.087C48.4206 6.749 48.2776 6.35467 48.2776 5.904C48.2776 5.488 48.3816 5.12833 48.5896 4.825C48.8063 4.513 49.0966 4.27033 49.4606 4.097C49.8333 3.92367 50.2493 3.837 50.7086 3.837C51.324 3.837 51.8743 3.993 52.3596 4.305C52.8536 4.617 53.2046 5.05467 53.4126 5.618L52.4246 6.073C52.2686 5.709 52.0346 5.423 51.7226 5.215C51.4106 4.99833 51.0596 4.89 50.6696 4.89C50.3143 4.89 50.0326 4.981 49.8246 5.163C49.6166 5.33633 49.5126 5.55733 49.5126 5.826C49.5126 6.02533 49.5646 6.19 49.6686 6.32C49.7726 6.44133 49.8983 6.53667 50.0456 6.606C50.193 6.66667 50.336 6.71867 50.4746 6.762L51.6186 7.1C52.1906 7.26467 52.6326 7.52033 52.9446 7.867C53.2653 8.21367 53.4256 8.62967 53.4256 9.115C53.4256 9.505 53.3173 9.856 53.1006 10.168C52.884 10.48 52.585 10.7227 52.2036 10.896C51.8223 11.0693 51.3803 11.156 50.8776 11.156ZM60.0874 13.47V0.0149996H61.3614V13.47H60.0874Z" fill="#888888"/>
<path d="M71.938 11V2.42H70.105V1.315H73.225V11H71.938ZM78.4879 11.156C77.9852 11.156 77.5129 11.0693 77.0709 10.896C76.6289 10.714 76.2432 10.4583 75.9139 10.129C75.5932 9.791 75.3592 9.39667 75.2119 8.946L76.2519 8.504C76.4339 8.98067 76.7286 9.35333 77.1359 9.622C77.5519 9.882 78.0026 10.012 78.4879 10.012C78.8866 10.012 79.2376 9.92533 79.5409 9.752C79.8529 9.57 80.0956 9.323 80.2689 9.011C80.4422 8.69033 80.5289 8.335 80.5289 7.945C80.5289 7.53767 80.4379 7.178 80.2559 6.866C80.0826 6.554 79.8442 6.31133 79.5409 6.138C79.2376 5.956 78.8909 5.865 78.5009 5.865C78.1022 5.865 77.7382 5.956 77.4089 6.138C77.0796 6.32 76.8412 6.54967 76.6939 6.827L75.6669 6.606L76.4079 1.315H81.4259V2.42H76.8889L77.3829 1.926L76.8109 6.034L76.3689 5.774C76.6549 5.41 76.9886 5.15 77.3699 4.994C77.7599 4.82933 78.1802 4.747 78.6309 4.747C79.2636 4.747 79.8182 4.89 80.2949 5.176C80.7716 5.462 81.1442 5.84333 81.4129 6.32C81.6816 6.79667 81.8159 7.33833 81.8159 7.945C81.8159 8.55167 81.6686 9.09767 81.3739 9.583C81.0879 10.0683 80.6936 10.454 80.1909 10.74C79.6969 11.0173 79.1292 11.156 78.4879 11.156ZM85.9247 11V1.315H89.0967C90.076 1.315 90.9297 1.51433 91.6577 1.913C92.3857 2.31167 92.949 2.875 93.3477 3.603C93.7464 4.32233 93.9457 5.17167 93.9457 6.151C93.9457 7.12167 93.7464 7.971 93.3477 8.699C92.949 9.427 92.3857 9.99467 91.6577 10.402C90.9297 10.8007 90.076 11 89.0967 11H85.9247ZM87.1987 9.83H89.1097C89.829 9.83 90.4487 9.67833 90.9687 9.375C91.4974 9.07167 91.9047 8.647 92.1907 8.101C92.4767 7.54633 92.6197 6.89633 92.6197 6.151C92.6197 5.397 92.4724 4.747 92.1777 4.201C91.8917 3.655 91.4844 3.23467 90.9557 2.94C90.4357 2.63667 89.8204 2.485 89.1097 2.485H87.1987V9.83ZM98.6414 11.156C97.9654 11.156 97.3631 10.9957 96.8344 10.675C96.3058 10.3543 95.8898 9.91667 95.5864 9.362C95.2831 8.79867 95.1314 8.17033 95.1314 7.477C95.1314 6.775 95.2788 6.151 95.5734 5.605C95.8768 5.059 96.2841 4.63 96.7954 4.318C97.3154 3.99733 97.8961 3.837 98.5374 3.837C99.0574 3.837 99.5168 3.93233 99.9154 4.123C100.323 4.305 100.665 4.55633 100.942 4.877C101.228 5.189 101.445 5.54867 101.592 5.956C101.748 6.35467 101.826 6.77067 101.826 7.204C101.826 7.29933 101.818 7.40767 101.8 7.529C101.792 7.64167 101.779 7.75 101.761 7.854H96.0154V6.814H101.059L100.487 7.282C100.565 6.83133 100.522 6.42833 100.357 6.073C100.193 5.71767 99.9501 5.436 99.6294 5.228C99.3088 5.02 98.9448 4.916 98.5374 4.916C98.1301 4.916 97.7574 5.02 97.4194 5.228C97.0814 5.436 96.8171 5.735 96.6264 6.125C96.4444 6.50633 96.3708 6.96133 96.4054 7.49C96.3708 8.00133 96.4488 8.452 96.6394 8.842C96.8388 9.22333 97.1161 9.52233 97.4714 9.739C97.8354 9.947 98.2298 10.051 98.6544 10.051C99.1224 10.051 99.5168 9.94267 99.8374 9.726C100.158 9.50933 100.418 9.232 100.617 8.894L101.631 9.414C101.493 9.73467 101.276 10.0293 100.981 10.298C100.695 10.558 100.353 10.766 99.9544 10.922C99.5644 11.078 99.1268 11.156 98.6414 11.156ZM106.653 11.156C105.968 11.156 105.357 10.9957 104.82 10.675C104.291 10.3543 103.875 9.91667 103.572 9.362C103.268 8.80733 103.117 8.18333 103.117 7.49C103.117 6.788 103.268 6.164 103.572 5.618C103.875 5.072 104.291 4.63867 104.82 4.318C105.357 3.99733 105.968 3.837 106.653 3.837C107.112 3.837 107.541 3.91933 107.94 4.084C108.338 4.24867 108.689 4.46967 108.993 4.747C109.296 5.02433 109.517 5.34933 109.656 5.722L108.577 6.242C108.412 5.878 108.161 5.58333 107.823 5.358C107.485 5.124 107.095 5.007 106.653 5.007C106.228 5.007 105.842 5.11533 105.496 5.332C105.158 5.54867 104.889 5.84333 104.69 6.216C104.49 6.58867 104.391 7.01767 104.391 7.503C104.391 7.971 104.49 8.39567 104.69 8.777C104.889 9.14967 105.158 9.44433 105.496 9.661C105.842 9.87767 106.228 9.986 106.653 9.986C107.095 9.986 107.485 9.87333 107.823 9.648C108.161 9.414 108.412 9.10633 108.577 8.725L109.656 9.271C109.517 9.635 109.296 9.96 108.993 10.246C108.689 10.5233 108.338 10.7443 107.94 10.909C107.541 11.0737 107.112 11.156 106.653 11.156ZM113.249 11V10.116L115.927 7.217C116.456 6.65367 116.876 6.19 117.188 5.826C117.509 5.462 117.743 5.137 117.89 4.851C118.037 4.565 118.111 4.26167 118.111 3.941C118.111 3.41233 117.955 3.005 117.643 2.719C117.331 2.433 116.919 2.29 116.408 2.29C115.888 2.29 115.446 2.44167 115.082 2.745C114.718 3.03967 114.467 3.46 114.328 4.006L113.171 3.707C113.284 3.187 113.492 2.73633 113.795 2.355C114.098 1.97367 114.475 1.679 114.926 1.471C115.377 1.263 115.871 1.159 116.408 1.159C116.997 1.159 117.513 1.276 117.955 1.51C118.406 1.73533 118.757 2.05167 119.008 2.459C119.268 2.86633 119.398 3.33867 119.398 3.876C119.398 4.23133 119.324 4.578 119.177 4.916C119.03 5.254 118.813 5.61367 118.527 5.995C118.241 6.36767 117.868 6.801 117.409 7.295L115.017 9.895H119.606V11H113.249ZM125.048 11.156C124.277 11.156 123.601 10.948 123.02 10.532C122.448 10.1073 122.002 9.52233 121.681 8.777C121.36 8.023 121.2 7.14767 121.2 6.151C121.2 5.15433 121.36 4.28333 121.681 3.538C122.002 2.784 122.448 2.199 123.02 1.783C123.592 1.367 124.264 1.159 125.035 1.159C125.806 1.159 126.478 1.367 127.05 1.783C127.622 2.199 128.068 2.784 128.389 3.538C128.718 4.28333 128.883 5.15433 128.883 6.151C128.883 7.14767 128.723 8.023 128.402 8.777C128.081 9.531 127.631 10.116 127.05 10.532C126.478 10.948 125.811 11.156 125.048 11.156ZM125.048 9.973C125.568 9.973 126.019 9.817 126.4 9.505C126.781 9.18433 127.076 8.738 127.284 8.166C127.501 7.594 127.609 6.92233 127.609 6.151C127.609 5.37967 127.501 4.708 127.284 4.136C127.076 3.564 126.777 3.122 126.387 2.81C126.006 2.498 125.555 2.342 125.035 2.342C124.515 2.342 124.064 2.498 123.683 2.81C123.302 3.122 123.003 3.564 122.786 4.136C122.578 4.708 122.474 5.37967 122.474 6.151C122.474 6.91367 122.578 7.581 122.786 8.153C123.003 8.725 123.302 9.17133 123.683 9.492C124.073 9.81267 124.528 9.973 125.048 9.973ZM130.438 11V10.116L133.116 7.217C133.645 6.65367 134.065 6.19 134.377 5.826C134.698 5.462 134.932 5.137 135.079 4.851C135.227 4.565 135.3 4.26167 135.3 3.941C135.3 3.41233 135.144 3.005 134.832 2.719C134.52 2.433 134.109 2.29 133.597 2.29C133.077 2.29 132.635 2.44167 132.271 2.745C131.907 3.03967 131.656 3.46 131.517 4.006L130.36 3.707C130.473 3.187 130.681 2.73633 130.984 2.355C131.288 1.97367 131.665 1.679 132.115 1.471C132.566 1.263 133.06 1.159 133.597 1.159C134.187 1.159 134.702 1.276 135.144 1.51C135.595 1.73533 135.946 2.05167 136.197 2.459C136.457 2.86633 136.587 3.33867 136.587 3.876C136.587 4.23133 136.514 4.578 136.366 4.916C136.219 5.254 136.002 5.61367 135.716 5.995C135.43 6.36767 135.058 6.801 134.598 7.295L132.206 9.895H136.795V11H130.438ZM138.221 11V10.116L140.899 7.217C141.427 6.65367 141.848 6.19 142.16 5.826C142.48 5.462 142.714 5.137 142.862 4.851C143.009 4.565 143.083 4.26167 143.083 3.941C143.083 3.41233 142.927 3.005 142.615 2.719C142.303 2.433 141.891 2.29 141.38 2.29C140.86 2.29 140.418 2.44167 140.054 2.745C139.69 3.03967 139.438 3.46 139.3 4.006L138.143 3.707C138.255 3.187 138.463 2.73633 138.767 2.355C139.07 1.97367 139.447 1.679 139.898 1.471C140.348 1.263 140.842 1.159 141.38 1.159C141.969 1.159 142.485 1.276 142.927 1.51C143.377 1.73533 143.728 2.05167 143.98 2.459C144.24 2.86633 144.37 3.33867 144.37 3.876C144.37 4.23133 144.296 4.578 144.149 4.916C144.001 5.254 143.785 5.61367 143.499 5.995C143.213 6.36767 142.84 6.801 142.381 7.295L139.989 9.895H144.578V11H138.221Z" fill="#E3B27D"/>
</svg>
