<svg width="138" height="138" viewBox="0 0 138 138" fill="none" xmlns="http://www.w3.org/2000/svg">
<circle cx="69" cy="69" r="69" fill="#E3B27D"/>
<g filter="url(#filter0_b_2_3166)">
<circle cx="69" cy="69" r="44.5" stroke="white"/>
</g>
<path d="M67.0509 120.99L65.7721 130.59L62.6408 130.173C61.6271 130.038 60.774 129.715 60.0815 129.203C59.3793 128.698 58.8701 128.058 58.5539 127.281C58.2365 126.513 58.1407 125.657 58.2666 124.712C58.3913 123.776 58.7085 122.97 59.2182 122.294C59.7266 121.628 60.3863 121.139 61.1973 120.827C61.9984 120.523 62.9059 120.438 63.9196 120.573L67.0509 120.99ZM65.0924 122.303L63.675 122.114C63.0221 122.027 62.4416 122.086 61.9337 122.289C61.4159 122.5 60.9919 122.828 60.6615 123.274C60.33 123.728 60.1201 124.286 60.032 124.947C59.9428 125.617 59.9992 126.21 60.2015 126.727C60.4037 127.244 60.7276 127.667 61.1732 127.997C61.6102 128.327 62.1552 128.535 62.8081 128.622L64.2256 128.811L65.0924 122.303Z" fill="#EEEEEE"/>
<path d="M50.1236 117.233L46.344 126.15L44.7162 125.46L48.4958 116.543L50.1236 117.233Z" fill="#EEEEEE"/>
<path d="M37.2267 109.672C37.7656 110.109 38.185 110.61 38.4849 111.176C38.7848 111.742 38.9647 112.34 39.0247 112.968C39.0846 113.596 39.0214 114.225 38.835 114.855C38.6419 115.479 38.319 116.071 37.8664 116.63C37.4137 117.189 36.9056 117.631 36.342 117.955C35.7662 118.281 35.1709 118.479 34.556 118.55C33.9288 118.622 33.3099 118.567 32.6992 118.384C32.083 118.209 31.5055 117.903 30.9666 117.467C30.4277 117.031 30.0197 116.55 29.7426 116.024C29.4588 115.493 29.2914 114.956 29.2404 114.413C29.1839 113.877 29.2362 113.379 29.3973 112.918L31.0943 113.322C30.9195 113.827 30.9023 114.337 31.0427 114.852C31.1832 115.367 31.4959 115.821 31.9809 116.214C32.4524 116.596 32.96 116.823 33.5037 116.895C34.0407 116.962 34.5684 116.881 35.0867 116.654C35.5984 116.422 36.0669 116.043 36.4922 115.517C36.9176 114.992 37.1901 114.449 37.3098 113.888C37.4173 113.328 37.3791 112.79 37.1953 112.273C37.0116 111.756 36.6839 111.307 36.2124 110.925C35.8285 110.614 35.4148 110.402 34.9716 110.289C34.5228 110.182 34.089 110.187 33.67 110.305C33.2457 110.43 32.878 110.685 32.5672 111.069L32.1009 111.644L31.9162 110.592L34.7049 112.849L33.7642 114.011L30.2278 111.148L30.8413 110.391C31.3103 109.811 31.8225 109.378 32.3777 109.092C32.933 108.806 33.5017 108.647 34.0839 108.617C34.6539 108.587 35.2104 108.665 35.7535 108.848C36.2911 109.038 36.7822 109.313 37.2267 109.672Z" fill="#EEEEEE"/>
<path d="M27.4075 99.8242L19.4724 105.377L18.4587 103.928L26.3939 98.3757L27.4075 99.8242Z" fill="#EEEEEE"/>
<path d="M21.3808 89.3006L13.8223 92.2815L14.7428 94.6155L13.2916 95.1879L10.8115 88.8993L12.2627 88.3269L13.1689 90.6247L20.7274 87.6438L21.3808 89.3006Z" fill="#EEEEEE"/>
<path d="M17.8073 78.4308L7.9028 75.8112L7.73451 73.5294L17.1475 69.4851L17.2891 71.4039L15.2654 72.244L15.5407 75.9778L17.6667 76.5249L17.8073 78.4308ZM13.9477 75.5869L13.7469 72.8643L9.05551 74.8267L9.01918 74.334L13.9477 75.5869Z" fill="#EEEEEE"/>
<path d="M17.8527 60.2774L8.44438 57.979L8.86396 56.2615L16.7568 58.1897L17.741 54.1612L19.2564 54.5314L17.8527 60.2774Z" fill="#EEEEEE"/>
<path d="M26.7403 38.5575L21.7675 29.6002L23.2963 27.898L32.7342 31.8841L31.4485 33.3155L29.4407 32.4382L26.9389 35.2236L28.0172 37.1358L26.7403 38.5575ZM26.1171 33.804L27.9413 31.773L23.276 29.7494L23.6061 29.3819L26.1171 33.804Z" fill="#EEEEEE"/>
<path d="M43.9056 23.8486C43.2946 24.1762 42.67 24.3685 42.0319 24.4255C41.3937 24.4826 40.7734 24.4169 40.1709 24.2286C39.5684 24.0403 39.013 23.7382 38.5048 23.3224C38.0043 22.9024 37.584 22.3754 37.2441 21.7415C36.9042 21.1075 36.694 20.4679 36.6135 19.8227C36.5366 19.1658 36.5846 18.5401 36.7576 17.9458C36.9342 17.3398 37.2248 16.7906 37.6295 16.2982C38.0301 15.7982 38.5359 15.3844 39.147 15.0567C39.758 14.7291 40.3594 14.5393 40.9512 14.4875C41.5506 14.4316 42.1104 14.4854 42.6308 14.6489C43.1471 14.8048 43.5863 15.0462 43.9485 15.3732L42.9186 16.7811C42.5206 16.4241 42.057 16.2105 41.5276 16.1403C40.9983 16.0701 40.4587 16.1825 39.9087 16.4774C39.3741 16.7641 38.9681 17.144 38.6908 17.6172C38.4212 18.0863 38.2906 18.6038 38.299 19.1697C38.315 19.7315 38.4828 20.3102 38.8022 20.906C39.1217 21.5017 39.5168 21.9635 39.9876 22.2913C40.4619 22.6073 40.9729 22.7807 41.5205 22.8116C42.0681 22.8425 42.6092 22.7146 43.1438 22.4279C43.5792 22.1945 43.9351 21.8954 44.2116 21.5308C44.4841 21.1586 44.6471 20.7565 44.7006 20.3245C44.7501 19.885 44.6581 19.4475 44.4247 19.0122L44.0745 18.3591L45.1166 18.5969L41.9545 20.2925L41.248 18.9749L45.2579 16.8247L45.7186 17.684C46.0709 18.3409 46.2714 18.9807 46.3202 19.6036C46.369 20.2265 46.2946 20.8122 46.097 21.3606C45.903 21.8974 45.6163 22.3806 45.2369 22.8102C44.8535 23.2321 44.4097 23.5783 43.9056 23.8486Z" fill="#EEEEEE"/>
<path d="M56.7678 18.5022L55.1503 8.95318L61.4949 7.87847L61.7555 9.41656L57.154 10.196L57.5687 12.6441L61.9138 11.9081L62.1744 13.4462L57.8293 14.1822L58.2505 16.6688L62.8519 15.8894L63.1124 17.4274L56.7678 18.5022Z" fill="#EEEEEE"/>
<path d="M71.7727 16.9984L73.1762 7.41565L74.5397 7.61533L78.7735 15.488L78.0453 15.5259L79.1059 8.28411L80.8553 8.54031L79.4518 18.1231L78.0755 17.9215L73.9264 10.0087L74.5902 9.96143L73.5221 17.2546L71.7727 16.9984Z" fill="#EEEEEE"/>
<path d="M92.7041 23.0235C92.093 22.6958 91.5872 22.282 91.1866 21.782C90.7936 21.2861 90.5089 20.7351 90.3323 20.1291C90.1634 19.5271 90.1154 18.9015 90.1882 18.2522C90.261 17.6028 90.4674 16.9612 90.8073 16.3273C91.1473 15.6933 91.5637 15.1643 92.0566 14.7402C92.5613 14.3126 93.109 14.0064 93.6997 13.8217C94.3023 13.6334 94.9205 13.5716 95.5546 13.6362C96.1927 13.6932 96.8173 13.8855 97.4283 14.2132C98.0394 14.5408 98.5302 14.9368 98.9008 15.401C99.279 15.8694 99.544 16.3655 99.6958 16.8894C99.8517 17.4057 99.8936 17.9051 99.8217 18.3878L98.0738 18.2913C98.1427 17.7776 98.06 17.2808 97.8255 16.8011C97.5952 16.3137 97.2089 15.9246 96.6666 15.6338C96.1319 15.3471 95.5908 15.2192 95.0432 15.2501C94.5032 15.2851 93.9999 15.4627 93.5332 15.7828C93.0742 16.107 92.6849 16.567 92.3655 17.1628C92.046 17.7585 91.8762 18.3411 91.8561 18.9105C91.8477 19.4764 91.9783 19.9939 92.2479 20.463C92.5252 20.9362 92.9312 21.3161 93.4658 21.6028C94.0081 21.8936 94.5439 22.0039 95.0733 21.9337C95.6067 21.8559 96.0683 21.6462 96.4581 21.3044L97.5056 22.707C97.1434 23.034 96.7021 23.2792 96.1818 23.4427C95.6655 23.5986 95.1077 23.6486 94.5083 23.5927C93.9165 23.5409 93.3151 23.3511 92.7041 23.0235Z" fill="#EEEEEE"/>
<path d="M106.012 32.586L109.171 29.6838L110.937 23.6311L112.3 25.115L110.887 29.8026L110.403 29.2761L115.185 28.2552L116.548 29.7392L110.386 30.9866L107.217 33.8976L106.012 32.586Z" fill="#EEEEEE"/>
<path d="M118.92 55.3579C118.767 54.7618 118.734 54.1797 118.821 53.6117C118.911 53.052 119.101 52.538 119.393 52.0697C119.695 51.6076 120.084 51.2259 120.562 50.9247L121.544 52.1896C121.064 52.554 120.724 52.99 120.523 53.4978C120.331 54.0034 120.303 54.5248 120.441 55.0621C120.518 55.3644 120.631 55.6128 120.779 55.8074C120.938 56.0083 121.117 56.146 121.315 56.2205C121.515 56.3034 121.733 56.3148 121.968 56.2546C122.245 56.1836 122.45 56.0415 122.583 55.8285C122.727 55.6216 122.807 55.3416 122.824 54.9884L122.942 53.0391C122.982 52.2506 123.181 51.6136 123.54 51.1281C123.898 50.6425 124.384 50.3212 124.997 50.1642C125.534 50.0266 126.042 50.0352 126.52 50.1901C127 50.3533 127.414 50.641 127.761 51.0531C128.119 51.4714 128.376 51.987 128.533 52.5999C128.677 53.1624 128.709 53.7045 128.628 54.2263C128.555 54.7459 128.385 55.2188 128.119 55.645C127.863 56.0774 127.521 56.4377 127.094 56.7261L126.103 55.4769C126.526 55.1718 126.816 54.8023 126.973 54.3683C127.139 53.9323 127.159 53.4707 127.034 52.9838C126.961 52.6984 126.846 52.4594 126.69 52.2669C126.541 52.0723 126.363 51.9346 126.154 51.8538C125.956 51.7793 125.74 51.7722 125.505 51.8324C125.245 51.8991 125.035 52.0422 124.877 52.2617C124.727 52.4791 124.641 52.7738 124.62 53.146L124.521 55.01C124.469 55.8196 124.276 56.464 123.942 56.943C123.611 57.4305 123.13 57.7549 122.501 57.9162C121.963 58.0539 121.454 58.0369 120.971 57.8652C120.489 57.6936 120.068 57.3944 119.708 56.9677C119.348 56.5409 119.085 56.0044 118.92 55.3579Z" fill="#EEEEEE"/>
<path d="M120.912 69.6485L129.03 69.9739L129.131 67.4669L130.689 67.5294L130.419 74.284L128.86 74.2215L128.959 71.7535L120.84 71.4281L120.912 69.6485Z" fill="#EEEEEE"/>
<path d="M118.127 85.2452C118.377 84.5431 118.746 83.9708 119.235 83.5285C119.721 83.0943 120.276 82.8136 120.901 82.6866C121.526 82.5595 122.165 82.6122 122.818 82.8448L128.684 84.9337L128.091 86.5993L122.31 84.5409C121.935 84.4071 121.567 84.3681 121.207 84.4239C120.844 84.4877 120.524 84.6361 120.248 84.869C119.98 85.1048 119.779 85.4104 119.645 85.786C119.509 86.1697 119.471 86.5335 119.533 86.8774C119.599 87.2324 119.755 87.5453 119.999 87.8162C120.24 88.0952 120.548 88.3016 120.924 88.4353L126.704 90.4937L126.111 92.1593L120.245 90.0704C119.592 89.8378 119.063 89.4748 118.659 88.9814C118.255 88.488 118.004 87.9154 117.905 87.2637C117.803 86.6202 117.877 85.9474 118.127 85.2452Z" fill="#EEEEEE"/>
<path d="M112.494 97.6837L120.039 103.756L118.058 106.217C117.417 107.014 116.698 107.575 115.901 107.902C115.106 108.241 114.294 108.344 113.466 108.211C112.645 108.085 111.863 107.722 111.12 107.124C110.385 106.532 109.86 105.843 109.547 105.057C109.241 104.277 109.165 103.459 109.319 102.604C109.474 101.761 109.872 100.941 110.514 100.145L112.494 97.6837ZM112.601 100.039L111.704 101.153C111.291 101.666 111.04 102.193 110.951 102.733C110.862 103.284 110.923 103.817 111.133 104.331C111.349 104.85 111.717 105.319 112.237 105.737C112.764 106.161 113.3 106.42 113.847 106.515C114.393 106.61 114.923 106.553 115.437 106.343C115.945 106.14 116.406 105.782 116.819 105.269L117.715 104.155L112.601 100.039Z" fill="#EEEEEE"/>
<path d="M100.502 110.208L106.166 118.064L104.732 119.098L99.0679 111.242L100.502 110.208Z" fill="#EEEEEE"/>
<path d="M87.1835 117.384C87.855 117.152 88.5226 117.053 89.1863 117.089C89.85 117.125 90.4727 117.28 91.0543 117.556C91.6359 117.831 92.1489 118.213 92.5933 118.701C93.0324 119.2 93.3683 119.785 93.6012 120.456C93.8368 121.136 93.9353 121.804 93.8966 122.459C93.8579 123.115 93.6954 123.731 93.4091 124.307C93.1227 124.883 92.7286 125.387 92.2268 125.818C91.7277 126.257 91.1384 126.594 90.4588 126.83C89.7791 127.065 89.1075 127.165 88.4437 127.129C87.78 127.094 87.1574 126.938 86.5757 126.663C85.9969 126.395 85.4894 126.017 85.0532 125.526C84.6088 125.038 84.2688 124.454 84.0331 123.774C83.8003 123.103 83.7059 122.434 83.7499 121.767C83.7968 121.109 83.9634 120.492 84.2498 119.915C84.5361 119.339 84.9288 118.831 85.4278 118.392C85.9187 117.956 86.5039 117.62 87.1835 117.384ZM87.7117 118.907C87.2613 119.064 86.8748 119.285 86.552 119.571C86.2322 119.865 85.9827 120.204 85.8037 120.587C85.6165 120.973 85.5173 121.388 85.5062 121.832C85.4869 122.279 85.5568 122.732 85.7158 123.191C85.8748 123.649 86.0988 124.044 86.3879 124.375C86.6715 124.717 87.0064 124.981 87.3923 125.169C87.773 125.367 88.1786 125.478 88.6092 125.503C89.0398 125.528 89.4803 125.463 89.9306 125.307C90.3728 125.153 90.7552 124.934 91.078 124.647C91.4007 124.361 91.6542 124.021 91.8386 123.627C92.0176 123.244 92.1168 122.829 92.1361 122.382C92.1582 121.943 92.0898 121.494 91.9308 121.036C91.7717 120.577 91.5463 120.178 91.2544 119.839C90.9626 119.5 90.6277 119.236 90.25 119.045C89.864 118.858 89.4543 118.748 89.0208 118.715C88.5902 118.69 88.1538 118.754 87.7117 118.907Z" fill="#EEEEEE"/>
<path d="M79.8764 68.1891C80.4295 68.5883 80.4295 69.4117 79.8764 69.8109L64.5852 80.8464C63.9238 81.3237 63 80.8511 63 80.0355L63 57.9645C63 57.1489 63.9238 56.6763 64.5852 57.1536L79.8764 68.1891Z" fill="white"/>
<defs>
<filter id="filter0_b_2_3166" x="9" y="9" width="120" height="120" filterUnits="userSpaceOnUse" color-interpolation-filters="sRGB">
<feFlood flood-opacity="0" result="BackgroundImageFix"/>
<feGaussianBlur in="BackgroundImageFix" stdDeviation="7.5"/>
<feComposite in2="SourceAlpha" operator="in" result="effect1_backgroundBlur_2_3166"/>
<feBlend mode="normal" in="SourceGraphic" in2="effect1_backgroundBlur_2_3166" result="shape"/>
</filter>
</defs>
</svg>
