<svg width="23" height="20" viewBox="0 0 23 20" fill="none" xmlns="http://www.w3.org/2000/svg">
<path d="M3.5 9H16L14.4144 14.5494C14.1691 15.408 13.3844 16 12.4914 16H5.79009C4.77099 16 3.91486 15.2337 3.80232 14.2209L3 7H1" stroke="white" stroke-width="1.5" stroke-linecap="round" stroke-linejoin="round"/>
<path d="M5.5 20C6.05228 20 6.5 19.5523 6.5 19C6.5 18.4477 6.05228 18 5.5 18C4.94772 18 4.5 18.4477 4.5 19C4.5 19.5523 4.94772 20 5.5 20Z" fill="white"/>
<path d="M13.5 20C14.0523 20 14.5 19.5523 14.5 19C14.5 18.4477 14.0523 18 13.5 18C12.9477 18 12.5 18.4477 12.5 19C12.5 19.5523 12.9477 20 13.5 20Z" fill="white"/>
<circle cx="16.5" cy="6.5" r="6.5" fill="#E3B27D"/>
<path d="M16.664 9.921C16.13 9.921 15.662 9.777 15.26 9.489C14.864 9.195 14.555 8.79 14.333 8.274C14.111 7.752 14 7.146 14 6.456C14 5.766 14.111 5.163 14.333 4.647C14.555 4.125 14.864 3.72 15.26 3.432C15.656 3.144 16.121 3 16.655 3C17.189 3 17.654 3.144 18.05 3.432C18.446 3.72 18.755 4.125 18.977 4.647C19.205 5.163 19.319 5.766 19.319 6.456C19.319 7.146 19.208 7.752 18.986 8.274C18.764 8.796 18.452 9.201 18.05 9.489C17.654 9.777 17.192 9.921 16.664 9.921ZM16.664 9.102C17.024 9.102 17.336 8.994 17.6 8.778C17.864 8.556 18.068 8.247 18.212 7.851C18.362 7.455 18.437 6.99 18.437 6.456C18.437 5.922 18.362 5.457 18.212 5.061C18.068 4.665 17.861 4.359 17.591 4.143C17.327 3.927 17.015 3.819 16.655 3.819C16.295 3.819 15.983 3.927 15.719 4.143C15.455 4.359 15.248 4.665 15.098 5.061C14.954 5.457 14.882 5.922 14.882 6.456C14.882 6.984 14.954 7.446 15.098 7.842C15.248 8.238 15.455 8.547 15.719 8.769C15.989 8.991 16.304 9.102 16.664 9.102Z" fill="white"/>
</svg>
