<svg width="250" height="250" viewBox="0 0 250 250" fill="none" xmlns="http://www.w3.org/2000/svg">
<circle cx="125" cy="125" r="125" fill="#E3B27D"/>
<path d="M118.194 171.948C117.868 171.623 117.841 171.112 118.112 170.756L118.194 170.663L131.05 157.807C131.405 157.452 131.981 157.452 132.336 157.807C132.661 158.132 132.688 158.643 132.417 158.999L132.336 159.092L119.479 171.948C119.124 172.304 118.549 172.304 118.194 171.948Z" fill="white" stroke="white"/>
<path d="M121.346 159.38C120.844 159.381 120.436 158.975 120.435 158.473C120.434 158.017 120.769 157.638 121.208 157.572L121.342 157.562L131.69 157.54C132.148 157.539 132.527 157.876 132.592 158.316L132.601 158.451L132.58 168.8C132.579 169.302 132.171 169.708 131.669 169.707C131.213 169.706 130.835 169.369 130.771 168.931L130.762 168.796L130.781 159.36L121.346 159.38Z" fill="white" stroke="white"/>
<path d="M37.752 132.192C36.8987 132.192 36.1093 132.037 35.384 131.728C34.6693 131.419 34.04 130.987 33.496 130.432C32.9627 129.877 32.5467 129.227 32.248 128.48C31.9493 127.733 31.8 126.917 31.8 126.032C31.8 125.147 31.944 124.331 32.232 123.584C32.5307 122.827 32.9467 122.176 33.48 121.632C34.024 121.077 34.6587 120.651 35.384 120.352C36.1093 120.043 36.8987 119.888 37.752 119.888C38.6053 119.888 39.368 120.032 40.04 120.32C40.7227 120.608 41.2987 120.992 41.768 121.472C42.2373 121.941 42.5733 122.459 42.776 123.024L40.824 123.936C40.6 123.339 40.2213 122.848 39.688 122.464C39.1547 122.069 38.5093 121.872 37.752 121.872C37.0053 121.872 36.344 122.048 35.768 122.4C35.2027 122.752 34.76 123.237 34.44 123.856C34.1307 124.475 33.976 125.2 33.976 126.032C33.976 126.864 34.1307 127.595 34.44 128.224C34.76 128.843 35.2027 129.328 35.768 129.68C36.344 130.032 37.0053 130.208 37.752 130.208C38.5093 130.208 39.1547 130.016 39.688 129.632C40.2213 129.237 40.6 128.741 40.824 128.144L42.776 129.056C42.5733 129.621 42.2373 130.144 41.768 130.624C41.2987 131.093 40.7227 131.472 40.04 131.76C39.368 132.048 38.6053 132.192 37.752 132.192ZM53.2946 132.192C52.42 132.192 51.604 132.037 50.8466 131.728C50.0893 131.419 49.428 130.987 48.8626 130.432C48.2973 129.877 47.8546 129.227 47.5346 128.48C47.2253 127.723 47.0706 126.907 47.0706 126.032C47.0706 125.147 47.2253 124.331 47.5346 123.584C47.844 122.837 48.2813 122.187 48.8466 121.632C49.412 121.077 50.0733 120.651 50.8306 120.352C51.588 120.043 52.4093 119.888 53.2946 119.888C54.18 119.888 55.0013 120.043 55.7586 120.352C56.516 120.661 57.1773 121.093 57.7426 121.648C58.308 122.192 58.7453 122.837 59.0546 123.584C59.3746 124.331 59.5346 125.147 59.5346 126.032C59.5346 126.907 59.3746 127.723 59.0546 128.48C58.7346 129.227 58.292 129.877 57.7266 130.432C57.1613 130.987 56.5 131.419 55.7426 131.728C54.996 132.037 54.18 132.192 53.2946 132.192ZM53.2946 130.208C53.8813 130.208 54.42 130.107 54.9106 129.904C55.4013 129.691 55.828 129.397 56.1906 129.024C56.564 128.651 56.8466 128.208 57.0386 127.696C57.2413 127.184 57.3426 126.629 57.3426 126.032C57.3426 125.435 57.2413 124.885 57.0386 124.384C56.8466 123.872 56.564 123.429 56.1906 123.056C55.828 122.672 55.4013 122.379 54.9106 122.176C54.42 121.973 53.8813 121.872 53.2946 121.872C52.7186 121.872 52.1853 121.973 51.6946 122.176C51.204 122.379 50.772 122.672 50.3986 123.056C50.036 123.429 49.7533 123.872 49.5506 124.384C49.348 124.885 49.2466 125.435 49.2466 126.032C49.2466 126.629 49.348 127.184 49.5506 127.696C49.7533 128.208 50.036 128.651 50.3986 129.024C50.772 129.397 51.204 129.691 51.6946 129.904C52.1853 130.107 52.7186 130.208 53.2946 130.208ZM64.3495 132V120.08H66.0455L72.6055 128.912L71.7255 129.088V120.08H73.9015V132H72.1895L65.7255 123.104L66.5255 122.928V132H64.3495ZM81.2009 132V122H78.1129V120.08H86.4329V122H83.3929V132H81.2009ZM88.8679 132L92.9799 120.08H95.7959L99.9079 132H97.5399L96.6919 129.44H92.0839L91.2199 132H88.8679ZM92.7079 127.52H96.0679L94.0839 121.584H94.6919L92.7079 127.52ZM109.23 132.192C108.377 132.192 107.587 132.037 106.862 131.728C106.147 131.419 105.518 130.987 104.974 130.432C104.441 129.877 104.025 129.227 103.726 128.48C103.427 127.733 103.278 126.917 103.278 126.032C103.278 125.147 103.422 124.331 103.71 123.584C104.009 122.827 104.425 122.176 104.958 121.632C105.502 121.077 106.137 120.651 106.862 120.352C107.587 120.043 108.377 119.888 109.23 119.888C110.083 119.888 110.846 120.032 111.518 120.32C112.201 120.608 112.777 120.992 113.246 121.472C113.715 121.941 114.051 122.459 114.254 123.024L112.302 123.936C112.078 123.339 111.699 122.848 111.166 122.464C110.633 122.069 109.987 121.872 109.23 121.872C108.483 121.872 107.822 122.048 107.246 122.4C106.681 122.752 106.238 123.237 105.918 123.856C105.609 124.475 105.454 125.2 105.454 126.032C105.454 126.864 105.609 127.595 105.918 128.224C106.238 128.843 106.681 129.328 107.246 129.68C107.822 130.032 108.483 130.208 109.23 130.208C109.987 130.208 110.633 130.016 111.166 129.632C111.699 129.237 112.078 128.741 112.302 128.144L114.254 129.056C114.051 129.621 113.715 130.144 113.246 130.624C112.777 131.093 112.201 131.472 111.518 131.76C110.846 132.048 110.083 132.192 109.23 132.192ZM121.013 132V122H117.925V120.08H126.245V122H123.205V132H121.013ZM138.4 132L135.2 120.08H137.536L140.048 130.24H139.44L142.064 120.08H144.32L146.928 130.24H146.32L148.832 120.08H151.168L147.968 132H145.472L142.832 122.112H143.536L140.896 132H138.4ZM155.369 132V120.08H157.545V132H155.369ZM164.83 132V122H161.742V120.08H170.062V122H167.022V132H164.83ZM174.27 132V120.08H176.446V125.28H181.518V120.08H183.71V132H181.518V127.2H176.446V132H174.27ZM199.2 132.192C198.282 132.192 197.466 132 196.752 131.616C196.048 131.232 195.493 130.704 195.088 130.032C194.682 129.36 194.48 128.597 194.48 127.744V120.08H196.656V127.632C196.656 128.123 196.762 128.565 196.976 128.96C197.2 129.355 197.504 129.664 197.888 129.888C198.272 130.101 198.709 130.208 199.2 130.208C199.701 130.208 200.138 130.101 200.512 129.888C200.896 129.664 201.194 129.355 201.408 128.96C201.632 128.565 201.744 128.123 201.744 127.632V120.08H203.92V127.744C203.92 128.597 203.717 129.36 203.312 130.032C202.906 130.704 202.346 131.232 201.632 131.616C200.928 132 200.117 132.192 199.2 132.192ZM213.228 132.192C212.471 132.192 211.767 132.053 211.116 131.776C210.476 131.499 209.921 131.115 209.452 130.624C208.993 130.123 208.657 129.541 208.444 128.88L210.252 128.096C210.54 128.779 210.956 129.317 211.5 129.712C212.044 130.096 212.657 130.288 213.34 130.288C213.724 130.288 214.055 130.229 214.332 130.112C214.62 129.984 214.839 129.813 214.988 129.6C215.148 129.387 215.228 129.131 215.228 128.832C215.228 128.48 215.121 128.192 214.908 127.968C214.705 127.733 214.396 127.552 213.98 127.424L211.692 126.688C210.764 126.4 210.065 125.968 209.596 125.392C209.127 124.816 208.892 124.139 208.892 123.36C208.892 122.677 209.057 122.075 209.388 121.552C209.729 121.029 210.199 120.624 210.796 120.336C211.404 120.037 212.097 119.888 212.876 119.888C213.591 119.888 214.247 120.016 214.844 120.272C215.441 120.517 215.953 120.864 216.38 121.312C216.817 121.749 217.143 122.267 217.356 122.864L215.564 123.664C215.329 123.067 214.977 122.608 214.508 122.288C214.039 121.957 213.495 121.792 212.876 121.792C212.513 121.792 212.193 121.856 211.916 121.984C211.639 122.101 211.42 122.272 211.26 122.496C211.111 122.709 211.036 122.965 211.036 123.264C211.036 123.595 211.143 123.888 211.356 124.144C211.569 124.389 211.895 124.581 212.332 124.72L214.524 125.408C215.473 125.717 216.183 126.144 216.652 126.688C217.132 127.232 217.372 127.904 217.372 128.704C217.372 129.387 217.196 129.989 216.844 130.512C216.492 131.035 216.007 131.445 215.388 131.744C214.769 132.043 214.049 132.192 213.228 132.192Z" fill="white"/>
</svg>
