<svg width="235" height="137" viewBox="0 0 235 137" fill="none" xmlns="http://www.w3.org/2000/svg">
<line x1="32" y1="104.5" x2="2" y2="104.5" stroke="white"/>
<path d="M64.65 86.1C68.3167 86.1 71.5333 86.8167 74.3 88.25C77.1 89.6833 79.25 91.7333 80.75 94.4C82.2833 97.0333 83.05 100.1 83.05 103.6C83.05 107.1 82.2833 110.167 80.75 112.8C79.25 115.4 77.1 117.417 74.3 118.85C71.5333 120.283 68.3167 121 64.65 121H52.45V86.1H64.65ZM64.4 115.05C68.0667 115.05 70.9 114.05 72.9 112.05C74.9 110.05 75.9 107.233 75.9 103.6C75.9 99.9667 74.9 97.1333 72.9 95.1C70.9 93.0333 68.0667 92 64.4 92H59.45V115.05H64.4ZM114.04 106.55C114.04 107.55 113.973 108.45 113.84 109.25H93.5898C93.7565 111.25 94.4565 112.817 95.6898 113.95C96.9232 115.083 98.4398 115.65 100.24 115.65C102.84 115.65 104.69 114.533 105.79 112.3H113.34C112.54 114.967 111.007 117.167 108.74 118.9C106.473 120.6 103.69 121.45 100.39 121.45C97.7232 121.45 95.3232 120.867 93.1898 119.7C91.0898 118.5 89.4398 116.817 88.2398 114.65C87.0732 112.483 86.4898 109.983 86.4898 107.15C86.4898 104.283 87.0732 101.767 88.2398 99.6C89.4065 97.4333 91.0398 95.7667 93.1398 94.6C95.2398 93.4333 97.6565 92.85 100.39 92.85C103.023 92.85 105.373 93.4167 107.44 94.55C109.54 95.6833 111.157 97.3 112.29 99.4C113.457 101.467 114.04 103.85 114.04 106.55ZM106.79 104.55C106.757 102.75 106.107 101.317 104.84 100.25C103.573 99.15 102.023 98.6 100.19 98.6C98.4565 98.6 96.9898 99.1333 95.7898 100.2C94.6232 101.233 93.9065 102.683 93.6398 104.55H106.79ZM129.749 121.45C127.483 121.45 125.449 121.05 123.649 120.25C121.849 119.417 120.416 118.3 119.349 116.9C118.316 115.5 117.749 113.95 117.649 112.25H124.699C124.833 113.317 125.349 114.2 126.249 114.9C127.183 115.6 128.333 115.95 129.699 115.95C131.033 115.95 132.066 115.683 132.799 115.15C133.566 114.617 133.949 113.933 133.949 113.1C133.949 112.2 133.483 111.533 132.549 111.1C131.649 110.633 130.199 110.133 128.199 109.6C126.133 109.1 124.433 108.583 123.099 108.05C121.799 107.517 120.666 106.7 119.699 105.6C118.766 104.5 118.299 103.017 118.299 101.15C118.299 99.6167 118.733 98.2167 119.599 96.95C120.499 95.6833 121.766 94.6833 123.399 93.95C125.066 93.2167 127.016 92.85 129.249 92.85C132.549 92.85 135.183 93.6833 137.149 95.35C139.116 96.9833 140.199 99.2 140.399 102H133.699C133.599 100.9 133.133 100.033 132.299 99.4C131.499 98.7333 130.416 98.4 129.049 98.4C127.783 98.4 126.799 98.6333 126.099 99.1C125.433 99.5667 125.099 100.217 125.099 101.05C125.099 101.983 125.566 102.7 126.499 103.2C127.433 103.667 128.883 104.15 130.849 104.65C132.849 105.15 134.499 105.667 135.799 106.2C137.099 106.733 138.216 107.567 139.149 108.7C140.116 109.8 140.616 111.267 140.649 113.1C140.649 114.7 140.199 116.133 139.299 117.4C138.433 118.667 137.166 119.667 135.499 120.4C133.866 121.1 131.949 121.45 129.749 121.45ZM149.945 90C148.712 90 147.679 89.6167 146.845 88.85C146.045 88.05 145.645 87.0667 145.645 85.9C145.645 84.7333 146.045 83.7667 146.845 83C147.679 82.2 148.712 81.8 149.945 81.8C151.179 81.8 152.195 82.2 152.995 83C153.829 83.7667 154.245 84.7333 154.245 85.9C154.245 87.0667 153.829 88.05 152.995 88.85C152.195 89.6167 151.179 90 149.945 90ZM153.395 93.3V121H146.395V93.3H153.395ZM171.161 92.85C173.228 92.85 175.045 93.2667 176.611 94.1C178.178 94.9 179.411 95.95 180.311 97.25V93.3H187.361V121.2C187.361 123.767 186.845 126.05 185.811 128.05C184.778 130.083 183.228 131.683 181.161 132.85C179.095 134.05 176.595 134.65 173.661 134.65C169.728 134.65 166.495 133.733 163.961 131.9C161.461 130.067 160.045 127.567 159.711 124.4H166.661C167.028 125.667 167.811 126.667 169.011 127.4C170.245 128.167 171.728 128.55 173.461 128.55C175.495 128.55 177.145 127.933 178.411 126.7C179.678 125.5 180.311 123.667 180.311 121.2V116.9C179.411 118.2 178.161 119.283 176.561 120.15C174.995 121.017 173.195 121.45 171.161 121.45C168.828 121.45 166.695 120.85 164.761 119.65C162.828 118.45 161.295 116.767 160.161 114.6C159.061 112.4 158.511 109.883 158.511 107.05C158.511 104.25 159.061 101.767 160.161 99.6C161.295 97.4333 162.811 95.7667 164.711 94.6C166.645 93.4333 168.795 92.85 171.161 92.85ZM180.311 107.15C180.311 105.45 179.978 104 179.311 102.8C178.645 101.567 177.745 100.633 176.611 100C175.478 99.3333 174.261 99 172.961 99C171.661 99 170.461 99.3167 169.361 99.95C168.261 100.583 167.361 101.517 166.661 102.75C165.995 103.95 165.661 105.383 165.661 107.05C165.661 108.717 165.995 110.183 166.661 111.45C167.361 112.683 168.261 113.633 169.361 114.3C170.495 114.967 171.695 115.3 172.961 115.3C174.261 115.3 175.478 114.983 176.611 114.35C177.745 113.683 178.645 112.75 179.311 111.55C179.978 110.317 180.311 108.85 180.311 107.15ZM209.548 92.9C212.848 92.9 215.515 93.95 217.548 96.05C219.581 98.1167 220.598 101.017 220.598 104.75V121H213.598V105.7C213.598 103.5 213.048 101.817 211.948 100.65C210.848 99.45 209.348 98.85 207.448 98.85C205.515 98.85 203.981 99.45 202.848 100.65C201.748 101.817 201.198 103.5 201.198 105.7V121H194.198V93.3H201.198V96.75C202.131 95.55 203.315 94.6167 204.748 93.95C206.215 93.25 207.815 92.9 209.548 92.9Z" fill="white"/>
<path d="M23.25 34.1L22.7996 32.6692L22.9751 35.5746L23.25 34.1ZM28.1 37.05L29.2761 36.1189H29.2761L28.1 37.05ZM28.6 47.5L27.343 46.6815L27.3382 46.6889L28.6 47.5ZM24.65 50.8L25.2786 52.1619L24.65 50.8ZM3.45 52H1.95V53.5H3.45V52ZM3.45 17.1V15.6H1.95V17.1H3.45ZM23.95 18.25L23.3333 19.6174L23.3432 19.6218L23.95 18.25ZM27.85 21.45L26.5832 22.2533L26.5901 22.2642L26.5972 22.275L27.85 21.45ZM27.55 31.2L26.3815 30.2595L26.3744 30.2682L26.3675 30.2771L27.55 31.2ZM10.45 31.5H8.95V33H10.45V31.5ZM20.7 30.4L21.6475 31.5629L21.6602 31.5525L21.6727 31.5419L20.7 30.4ZM20.7 23.9L21.6727 22.7581H21.6727L20.7 23.9ZM10.45 22.75V21.25H8.95V22.75H10.45ZM21.45 45.1L20.4937 43.9444L20.4837 43.9527L20.4738 43.9611L21.45 45.1ZM21.4 38.2L20.4176 39.3335L20.4286 39.343L20.4397 39.3523L21.4 38.2ZM10.45 36.9V35.4H8.95V36.9H10.45ZM10.45 46.3H8.95V47.8H10.45V46.3ZM22.9751 35.5746C24.5778 35.8734 25.8772 36.6589 26.9239 37.9811L29.2761 36.1189C27.7895 34.2411 25.8555 33.0599 23.5249 32.6254L22.9751 35.5746ZM26.9239 37.9811C27.9779 39.3124 28.5 40.8166 28.5 42.55H31.5C31.5 40.15 30.7554 37.9876 29.2761 36.1189L26.9239 37.9811ZM28.5 42.55C28.5 44.1537 28.1033 45.5139 27.343 46.6815L29.857 48.3185C30.9634 46.6195 31.5 44.6796 31.5 42.55H28.5ZM27.3382 46.6889C26.6143 47.815 25.5346 48.7397 24.0214 49.4381L25.2786 52.1619C27.2321 51.2603 28.7857 49.985 29.8618 48.3111L27.3382 46.6889ZM24.0214 49.4381C22.5265 50.128 20.7003 50.5 18.5 50.5V53.5C21.033 53.5 23.3068 53.072 25.2786 52.1619L24.0214 49.4381ZM18.5 50.5H3.45V53.5H18.5V50.5ZM4.95 52V17.1H1.95V52H4.95ZM3.45 18.6H17.85V15.6H3.45V18.6ZM17.85 18.6C20.0593 18.6 21.8719 18.9583 23.3333 19.6174L24.5667 16.8826C22.6281 16.0084 20.3741 15.6 17.85 15.6V18.6ZM23.3432 19.6218C24.8527 20.2894 25.9012 21.1778 26.5832 22.2533L29.1168 20.6467C28.0655 18.9889 26.514 17.7439 24.5568 16.8782L23.3432 19.6218ZM26.5972 22.275C27.3262 23.3819 27.7 24.6417 27.7 26.1H30.7C30.7 24.0917 30.1738 22.2514 29.1028 20.625L26.5972 22.275ZM27.7 26.1C27.7 27.8483 27.2337 29.2006 26.3815 30.2595L28.7185 32.1405C30.0663 30.466 30.7 28.4184 30.7 26.1H27.7ZM26.3675 30.2771C25.5044 31.3829 24.3366 32.1853 22.7996 32.6692L23.7004 35.5308C25.7634 34.8813 27.4622 33.7504 28.7325 32.1229L26.3675 30.2771ZM10.45 33H16.85V30H10.45V33ZM16.85 33C18.715 33 20.3847 32.5918 21.6475 31.5629L19.7525 29.2371C19.2153 29.6749 18.3183 30 16.85 30V33ZM21.6727 31.5419C22.9698 30.437 23.55 28.9002 23.55 27.15H20.55C20.55 28.1998 20.2302 28.8297 19.7273 29.2581L21.6727 31.5419ZM23.55 27.15C23.55 25.3998 22.9698 23.863 21.6727 22.7581L19.7273 25.0419C20.2302 25.4703 20.55 26.1002 20.55 27.15H23.55ZM21.6727 22.7581C20.4086 21.6813 18.7287 21.25 16.85 21.25V24.25C18.3046 24.25 19.1914 24.5854 19.7273 25.0419L21.6727 22.7581ZM16.85 21.25H10.45V24.25H16.85V21.25ZM8.95 22.75V31.5H11.95V22.75H8.95ZM17.5 47.8C19.4214 47.8 21.1326 47.3477 22.4262 46.2389L20.4738 43.9611C19.9007 44.4523 18.9786 44.8 17.5 44.8V47.8ZM22.4064 46.2556C23.7773 45.1211 24.4 43.5296 24.4 41.7H21.4C21.4 42.8038 21.0561 43.479 20.4937 43.9444L22.4064 46.2556ZM24.4 41.7C24.4 39.8306 23.7565 38.2112 22.3603 37.0477L20.4397 39.3523C21.0435 39.8555 21.4 40.5694 21.4 41.7H24.4ZM22.3824 37.0665C21.0394 35.9026 19.3056 35.4 17.35 35.4V38.4C18.7944 38.4 19.7606 38.7641 20.4176 39.3335L22.3824 37.0665ZM17.35 35.4H10.45V38.4H17.35V35.4ZM8.95 36.9V46.3H11.95V36.9H8.95ZM10.45 47.8H17.5V44.8H10.45V47.8ZM42.5789 28.6H41.0789V33.9124L43.8574 29.3845L42.5789 28.6ZM46.0789 25.15L45.3379 23.8458L45.3314 23.8495L45.325 23.8532L46.0789 25.15ZM51.0789 23.9H52.5789V22.4H51.0789V23.9ZM51.0789 31.25V32.75H52.5789V31.25H51.0789ZM44.2289 32.8L43.2183 31.6916L43.21 31.6991L43.2019 31.7067L44.2289 32.8ZM42.5789 52V53.5H44.0789V52H42.5789ZM35.5789 52H34.0789V53.5H35.5789V52ZM35.5789 24.3V22.8H34.0789V24.3H35.5789ZM42.5789 24.3H44.0789V22.8H42.5789V24.3ZM43.8574 29.3845C44.6327 28.121 45.6223 27.1506 46.8328 26.4468L45.325 23.8532C43.6688 24.8161 42.3251 26.1456 41.3004 27.8155L43.8574 29.3845ZM46.8199 26.4542C48.0373 25.7625 49.4437 25.4 51.0789 25.4V22.4C48.9808 22.4 47.0539 22.8708 45.3379 23.8458L46.8199 26.4542ZM49.5789 23.9V31.25H52.5789V23.9H49.5789ZM51.0789 29.75H49.2289V32.75H51.0789V29.75ZM49.2289 29.75C46.8161 29.75 44.7275 30.3155 43.2183 31.6916L45.2395 33.9084C45.997 33.2178 47.2417 32.75 49.2289 32.75V29.75ZM43.2019 31.7067C41.6458 33.1685 41.0789 35.4937 41.0789 38.2H44.0789C44.0789 35.7729 44.612 34.4982 45.2559 33.8933L43.2019 31.7067ZM41.0789 38.2V52H44.0789V38.2H41.0789ZM42.5789 50.5H35.5789V53.5H42.5789V50.5ZM37.0789 52V24.3H34.0789V52H37.0789ZM35.5789 25.8H42.5789V22.8H35.5789V25.8ZM41.0789 24.3V28.6H44.0789V24.3H41.0789ZM55.6437 30.6L54.3146 29.9048L54.3104 29.9128L54.3063 29.921L55.6437 30.6ZM60.1937 25.6L59.4187 24.3157L59.4089 24.3217L60.1937 25.6ZM72.0438 25.1L71.3275 26.418L71.3393 26.4243L72.0438 25.1ZM75.7937 28.25L74.5862 29.1398L77.2937 32.8144V28.25H75.7937ZM75.7937 24.3V22.8H74.2937V24.3H75.7937ZM82.8438 24.3H84.3438V22.8H82.8438V24.3ZM82.8438 52V53.5H84.3438V52H82.8438ZM75.7937 52H74.2937V53.5H75.7937V52ZM75.7937 47.95H77.2937V43.1481L74.5605 47.0962L75.7937 47.95ZM72.0438 51.2L72.7482 52.5243L72.7582 52.5189L72.0438 51.2ZM60.1937 50.65L59.3927 51.9183L59.4027 51.9245L60.1937 50.65ZM55.6437 45.6L54.3021 46.2708L54.3082 46.2831L54.3146 46.2952L55.6437 45.6ZM74.7938 33.8L73.4742 34.5133L73.4783 34.5209L73.4825 34.5285L74.7938 33.8ZM72.0938 31L71.3332 32.2929L71.3475 32.3013L71.362 32.3094L72.0938 31ZM64.8438 30.95L64.0953 29.6501H64.0953L64.8438 30.95ZM62.1437 33.75L60.8392 33.0096L60.8325 33.0215L62.1437 33.75ZM62.1437 42.45L60.8164 43.1486L60.8275 43.1697L60.8392 43.1904L62.1437 42.45ZM64.8438 45.3L64.0663 46.5828L64.0747 46.5879L64.0832 46.5929L64.8438 45.3ZM72.0938 45.35L72.8255 46.6594L72.84 46.6513L72.8543 46.6429L72.0938 45.35ZM74.7938 42.55L76.105 43.2785L76.1092 43.2709L76.1133 43.2633L74.7938 42.55ZM55.4938 38.05C55.4938 35.4499 56.0033 33.2053 56.9813 31.279L54.3063 29.921C53.0842 32.328 52.4938 35.0501 52.4938 38.05H55.4938ZM56.9729 31.2952C57.9933 29.3446 59.3313 27.8898 60.9786 26.8783L59.4089 24.3217C57.2562 25.6436 55.5609 27.5221 54.3146 29.9048L56.9729 31.2952ZM60.9688 26.8843C62.6567 25.8657 64.5365 25.35 66.6438 25.35V22.35C64.0177 22.35 61.5974 23.001 59.4188 24.3157L60.9688 26.8843ZM66.6438 25.35C68.5063 25.35 70.0512 25.7243 71.3275 26.4179L72.76 23.7821C70.9696 22.809 68.9145 22.35 66.6438 22.35V25.35ZM71.3393 26.4243C72.7333 27.1658 73.8021 28.0756 74.5862 29.1398L77.0013 27.3602C75.9188 25.891 74.4875 24.7009 72.7482 23.7757L71.3393 26.4243ZM77.2937 28.25V24.3H74.2937V28.25H77.2937ZM75.7937 25.8H82.8438V22.8H75.7937V25.8ZM81.3438 24.3V52H84.3438V24.3H81.3438ZM82.8438 50.5H75.7937V53.5H82.8438V50.5ZM77.2937 52V47.95H74.2937V52H77.2937ZM74.5605 47.0962C73.8134 48.1752 72.7536 49.1096 71.3293 49.8811L72.7582 52.5189C74.5339 51.5571 75.9741 50.3248 77.027 48.8038L74.5605 47.0962ZM71.3393 49.8757C70.0227 50.576 68.4553 50.95 66.5938 50.95V53.95C68.8655 53.95 70.9314 53.4907 72.7482 52.5243L71.3393 49.8757ZM66.5938 50.95C64.5325 50.95 62.6743 50.4242 60.9848 49.3755L59.4027 51.9245C61.5798 53.2758 63.9884 53.95 66.5938 53.95V50.95ZM60.9947 49.3818C59.3376 48.3352 57.9949 46.8585 56.9729 44.9048L54.3146 46.2952C55.5593 48.6748 57.2499 50.5648 59.3928 51.9182L60.9947 49.3818ZM56.9854 44.9292C56.0043 42.967 55.4938 40.6859 55.4938 38.05H52.4938C52.4938 41.0807 53.0832 43.833 54.3021 46.2708L56.9854 44.9292ZM77.2937 38.15C77.2937 36.2551 76.9217 34.5415 76.105 33.0715L73.4825 34.5285C73.9992 35.4585 74.2937 36.6449 74.2937 38.15H77.2937ZM76.1133 33.0867C75.3225 31.6238 74.2273 30.4739 72.8255 29.6906L71.362 32.3094C72.2269 32.7927 72.9317 33.5096 73.4742 34.5133L76.1133 33.0867ZM72.8543 29.7071C71.4932 28.9065 70.0144 28.5 68.4437 28.5V31.5C69.4731 31.5 70.4276 31.7602 71.3332 32.2929L72.8543 29.7071ZM68.4437 28.5C66.8877 28.5 65.4287 28.8824 64.0953 29.6501L65.5922 32.2499C66.4588 31.751 67.3998 31.5 68.4437 31.5V28.5ZM64.0953 29.6501C62.737 30.4321 61.6555 31.5714 60.8392 33.0096L63.4483 34.4904C64.032 33.4619 64.7505 32.7345 65.5922 32.2499L64.0953 29.6501ZM60.8325 33.0215C60.0181 34.4874 59.6437 36.1827 59.6437 38.05H62.6437C62.6437 36.584 62.936 35.4126 63.455 34.4785L60.8325 33.0215ZM59.6437 38.05C59.6437 39.92 60.019 41.6336 60.8164 43.1486L63.4711 41.7514C62.9352 40.733 62.6437 39.5134 62.6437 38.05H59.6437ZM60.8392 43.1904C61.6524 44.6232 62.7253 45.77 64.0663 46.5828L65.6212 44.0172C64.7622 43.4966 64.0351 42.7435 63.4483 41.7096L60.8392 43.1904ZM64.0832 46.5929C65.4379 47.3898 66.8992 47.8 68.4437 47.8V44.8C67.455 44.8 66.5163 44.5436 65.6043 44.0071L64.0832 46.5929ZM68.4437 47.8C69.9996 47.8 71.4682 47.4179 72.8255 46.6594L71.362 44.0406C70.4526 44.5488 69.4879 44.8 68.4437 44.8V47.8ZM72.8543 46.6429C74.2286 45.8345 75.3143 44.7016 76.105 43.2785L73.4825 41.8215C72.9398 42.7984 72.2256 43.5322 71.3332 44.0571L72.8543 46.6429ZM76.1133 43.2633C76.9211 41.7689 77.2937 40.0465 77.2937 38.15H74.2937C74.2937 39.6535 73.9997 40.8645 73.4742 41.8367L76.1133 43.2633ZM113.03 27.05L111.953 28.0934L111.961 28.102L113.03 27.05ZM116.08 52V53.5H117.58V52H116.08ZM109.08 52H107.58V53.5H109.08V52ZM107.43 31.65L106.325 32.6636L106.332 32.6714L106.339 32.679L107.43 31.65ZM98.3305 31.65L97.24 30.6201L97.2391 30.621L98.3305 31.65ZM96.6805 52V53.5H98.1805V52H96.6805ZM89.6805 52H88.1805V53.5H89.6805V52ZM89.6805 24.3V22.8H88.1805V24.3H89.6805ZM96.6805 24.3H98.1805V22.8H96.6805V24.3ZM96.6805 27.75H95.1805V32.1218L97.8645 28.6709L96.6805 27.75ZM100.23 24.95L100.863 26.3101L100.87 26.3069L100.877 26.3037L100.23 24.95ZM105.03 25.4C107.982 25.4 110.24 26.3241 111.953 28.0934L114.108 26.0066C111.755 23.5759 108.679 22.4 105.03 22.4V25.4ZM111.961 28.102C113.645 29.8139 114.58 32.2921 114.58 35.75H117.58C117.58 31.7412 116.482 28.4195 114.1 25.998L111.961 28.102ZM114.58 35.75V52H117.58V35.75H114.58ZM116.08 50.5H109.08V53.5H116.08V50.5ZM110.58 52V36.7H107.58V52H110.58ZM110.58 36.7C110.58 34.2617 109.969 32.1557 108.522 30.621L106.339 32.679C107.092 33.4776 107.58 34.7383 107.58 36.7H110.58ZM108.536 30.6364C107.104 29.074 105.174 28.35 102.93 28.35V31.35C104.487 31.35 105.557 31.826 106.325 32.6636L108.536 30.6364ZM102.93 28.35C100.661 28.35 98.7055 29.0683 97.24 30.6201L99.421 32.6799C100.222 31.8317 101.333 31.35 102.93 31.35V28.35ZM97.2391 30.621C95.7921 32.1557 95.1805 34.2617 95.1805 36.7H98.1805C98.1805 34.7383 98.6689 33.4776 99.4219 32.679L97.2391 30.621ZM95.1805 36.7V52H98.1805V36.7H95.1805ZM96.6805 50.5H89.6805V53.5H96.6805V50.5ZM91.1805 52V24.3H88.1805V52H91.1805ZM89.6805 25.8H96.6805V22.8H89.6805V25.8ZM95.1805 24.3V27.75H98.1805V24.3H95.1805ZM97.8645 28.6709C98.6456 27.6666 99.6369 26.8804 100.863 26.3101L99.5979 23.5899C97.9573 24.353 96.582 25.4334 95.4964 26.8291L97.8645 28.6709ZM100.877 26.3037C102.128 25.7064 103.506 25.4 105.03 25.4V22.4C103.089 22.4 101.266 22.7936 99.5844 23.5963L100.877 26.3037ZM122.587 30.6L121.258 29.9048L121.254 29.9128L121.25 29.921L122.587 30.6ZM127.187 25.6L127.962 26.8843L127.187 25.6ZM138.787 25.05L138.127 26.3971L138.138 26.4026L138.15 26.4079L138.787 25.05ZM142.687 28.15L141.483 29.0451L144.187 32.6811V28.15H142.687ZM142.687 15V13.5H141.187V15H142.687ZM149.787 15H151.287V13.5H149.787V15ZM149.787 52V53.5H151.287V52H149.787ZM142.687 52H141.187V53.5H142.687V52ZM142.687 47.9H144.187V42.7337L141.42 47.0967L142.687 47.9ZM139.037 51.2L138.333 49.8757L139.037 51.2ZM127.187 50.65L127.978 49.3755L127.187 50.65ZM122.587 45.6L121.245 46.2708L121.252 46.2831L121.258 46.2952L122.587 45.6ZM141.737 33.8L140.418 34.5133L140.422 34.5209L140.426 34.5285L141.737 33.8ZM139.037 31L138.277 32.2929L138.291 32.3013L138.305 32.3094L139.037 31ZM131.787 30.95L131.039 29.6501L131.787 30.95ZM129.087 33.75L127.783 33.0096L127.776 33.0215L129.087 33.75ZM129.087 42.45L127.76 43.1486L127.771 43.1697L127.783 43.1904L129.087 42.45ZM131.787 45.3L131.01 46.5828L131.018 46.5879L131.027 46.5929L131.787 45.3ZM139.037 45.35L139.769 46.6594L139.783 46.6513L139.798 46.6429L139.037 45.35ZM141.737 42.55L143.048 43.2785L143.053 43.2709L143.057 43.2633L141.737 42.55ZM122.437 38.05C122.437 35.4499 122.947 33.2053 123.925 31.279L121.25 29.921C120.028 32.328 119.437 35.0501 119.437 38.05H122.437ZM123.916 31.2952C124.933 29.3511 126.283 27.8973 127.962 26.8843L126.412 24.3157C124.224 25.636 122.508 27.5156 121.258 29.9048L123.916 31.2952ZM127.962 26.8843C129.65 25.8657 131.53 25.35 133.637 25.35V22.35C131.011 22.35 128.591 23.001 126.412 24.3157L127.962 26.8843ZM133.637 25.35C135.206 25.35 136.697 25.6966 138.127 26.3971L139.447 23.7029C137.61 22.8034 135.668 22.35 133.637 22.35V25.35ZM138.15 26.4079C139.585 27.0815 140.681 27.9655 141.483 29.0451L143.891 27.2549C142.76 25.7345 141.256 24.5518 139.424 23.6921L138.15 26.4079ZM144.187 28.15V15H141.187V28.15H144.187ZM142.687 16.5H149.787V13.5H142.687V16.5ZM148.287 15V52H151.287V15H148.287ZM149.787 50.5H142.687V53.5H149.787V50.5ZM144.187 52V47.9H141.187V52H144.187ZM141.42 47.0967C140.706 48.2231 139.693 49.1523 138.333 49.8757L139.742 52.5243C141.515 51.581 142.935 50.3102 143.954 48.7033L141.42 47.0967ZM138.333 49.8757C137.016 50.576 135.449 50.95 133.587 50.95V53.95C135.859 53.95 137.925 53.4907 139.742 52.5243L138.333 49.8757ZM133.587 50.95C131.526 50.95 129.668 50.4242 127.978 49.3755L126.396 51.9245C128.573 53.2758 130.982 53.95 133.587 53.95V50.95ZM127.978 49.3755C126.29 48.3276 124.935 46.8521 123.916 44.9048L121.258 46.2952C122.506 48.6813 124.218 50.5724 126.396 51.9245L127.978 49.3755ZM123.929 44.9292C122.948 42.967 122.437 40.6859 122.437 38.05H119.437C119.437 41.0807 120.027 43.833 121.245 46.2708L123.929 44.9292ZM144.237 38.15C144.237 36.2551 143.865 34.5415 143.048 33.0715L140.426 34.5285C140.943 35.4585 141.237 36.6449 141.237 38.15H144.237ZM143.057 33.0867C142.266 31.6238 141.171 30.4739 139.769 29.6906L138.305 32.3094C139.17 32.7927 139.875 33.5096 140.418 34.5133L143.057 33.0867ZM139.798 29.7071C138.437 28.9065 136.958 28.5 135.387 28.5V31.5C136.416 31.5 137.371 31.7602 138.277 32.2929L139.798 29.7071ZM135.387 28.5C133.831 28.5 132.372 28.8824 131.039 29.6501L132.536 32.2499C133.402 31.751 134.343 31.5 135.387 31.5V28.5ZM131.039 29.6501C129.68 30.4321 128.599 31.5714 127.783 33.0096L130.392 34.4904C130.975 33.4619 131.694 32.7345 132.536 32.2499L131.039 29.6501ZM127.776 33.0215C126.961 34.4874 126.587 36.1827 126.587 38.05H129.587C129.587 36.584 129.879 35.4126 130.398 34.4785L127.776 33.0215ZM126.587 38.05C126.587 39.92 126.962 41.6336 127.76 43.1486L130.414 41.7514C129.879 40.733 129.587 39.5134 129.587 38.05H126.587ZM127.783 43.1904C128.596 44.6232 129.669 45.77 131.01 46.5828L132.565 44.0172C131.706 43.4966 130.978 42.7435 130.392 41.7096L127.783 43.1904ZM131.027 46.5929C132.381 47.3898 133.843 47.8 135.387 47.8V44.8C134.398 44.8 133.46 44.5436 132.548 44.0071L131.027 46.5929ZM135.387 47.8C136.943 47.8 138.412 47.4179 139.769 46.6594L138.305 44.0406C137.396 44.5488 136.431 44.8 135.387 44.8V47.8ZM139.798 46.6429C141.172 45.8345 142.258 44.7016 143.048 43.2785L140.426 41.8215C139.883 42.7984 139.169 43.5322 138.277 44.0571L139.798 46.6429ZM143.057 43.2633C143.864 41.7689 144.237 40.0465 144.237 38.15H141.237C141.237 39.6535 140.943 40.8645 140.418 41.8367L143.057 43.2633ZM157.074 19.85L156.013 20.9107L156.035 20.9327L156.058 20.9539L157.074 19.85ZM157.074 14L158.112 15.083L158.113 15.0821L157.074 14ZM163.224 14L162.163 15.0607L162.185 15.0827L162.208 15.1039L163.224 14ZM163.224 19.85L164.262 20.933L164.263 20.9321L163.224 19.85ZM163.624 24.3H165.124V22.8H163.624V24.3ZM163.624 52V53.5H165.124V52H163.624ZM156.624 52H155.124V53.5H156.624V52ZM156.624 24.3V22.8H155.124V24.3H156.624ZM160.174 19.5C159.28 19.5 158.62 19.2344 158.089 18.7461L156.058 20.9539C157.194 21.999 158.601 22.5 160.174 22.5V19.5ZM158.134 18.7893C157.625 18.2803 157.374 17.6827 157.374 16.9H154.374C154.374 18.4506 154.922 19.8197 156.013 20.9107L158.134 18.7893ZM157.374 16.9C157.374 16.118 157.624 15.5504 158.112 15.083L156.036 12.917C154.924 13.9829 154.374 15.3487 154.374 16.9H157.374ZM158.113 15.0821C158.646 14.5696 159.299 14.3 160.174 14.3V11.3C158.582 11.3 157.168 11.8304 156.035 12.9179L158.113 15.0821ZM160.174 14.3C161.049 14.3 161.671 14.5687 162.163 15.0607L164.284 12.9393C163.176 11.8313 161.765 11.3 160.174 11.3V14.3ZM162.208 15.1039C162.722 15.5769 162.974 16.1384 162.974 16.9H165.974C165.974 15.3282 165.392 13.9564 164.239 12.8961L162.208 15.1039ZM162.974 16.9C162.974 17.6628 162.72 18.2539 162.185 18.7679L164.263 20.9321C165.394 19.8461 165.974 18.4705 165.974 16.9H162.974ZM162.186 18.767C161.698 19.2349 161.068 19.5 160.174 19.5V22.5C161.746 22.5 163.15 21.9985 164.262 20.933L162.186 18.767ZM162.124 24.3V52H165.124V24.3H162.124ZM163.624 50.5H156.624V53.5H163.624V50.5ZM158.124 52V24.3H155.124V52H158.124ZM156.624 25.8H163.624V22.8H156.624V25.8ZM193.89 27.05L192.812 28.0934L192.821 28.102L193.89 27.05ZM196.94 52V53.5H198.44V52H196.94ZM189.94 52H188.44V53.5H189.94V52ZM188.29 31.65L187.184 32.6636L187.191 32.6714L187.198 32.679L188.29 31.65ZM179.19 31.65L178.099 30.6201L178.098 30.621L179.19 31.65ZM177.54 52V53.5H179.04V52H177.54ZM170.54 52H169.04V53.5H170.54V52ZM170.54 24.3V22.8H169.04V24.3H170.54ZM177.54 24.3H179.04V22.8H177.54V24.3ZM177.54 27.75H176.04V32.1218L178.724 28.6709L177.54 27.75ZM181.09 24.95L181.722 26.3101L181.729 26.3069L181.736 26.3037L181.09 24.95ZM185.89 25.4C188.841 25.4 191.099 26.3241 192.812 28.0934L194.967 26.0066C192.614 23.5759 189.539 22.4 185.89 22.4V25.4ZM192.821 28.102C194.505 29.8139 195.44 32.2921 195.44 35.75H198.44C198.44 31.7412 197.342 28.4195 194.959 25.998L192.821 28.102ZM195.44 35.75V52H198.44V35.75H195.44ZM196.94 50.5H189.94V53.5H196.94V50.5ZM191.44 52V36.7H188.44V52H191.44ZM191.44 36.7C191.44 34.2617 190.828 32.1557 189.381 30.621L187.198 32.679C187.951 33.4776 188.44 34.7383 188.44 36.7H191.44ZM189.396 30.6364C187.963 29.074 186.033 28.35 183.79 28.35V31.35C185.346 31.35 186.416 31.826 187.184 32.6636L189.396 30.6364ZM183.79 28.35C181.521 28.35 179.565 29.0683 178.099 30.6201L180.28 32.6799C181.082 31.8317 182.192 31.35 183.79 31.35V28.35ZM178.098 30.621C176.651 32.1557 176.04 34.2617 176.04 36.7H179.04C179.04 34.7383 179.528 33.4776 180.281 32.679L178.098 30.621ZM176.04 36.7V52H179.04V36.7H176.04ZM177.54 50.5H170.54V53.5H177.54V50.5ZM172.04 52V24.3H169.04V52H172.04ZM170.54 25.8H177.54V22.8H170.54V25.8ZM176.04 24.3V27.75H179.04V24.3H176.04ZM178.724 28.6709C179.505 27.6666 180.496 26.8804 181.722 26.3101L180.457 23.5899C178.817 24.353 177.441 25.4334 176.356 26.8291L178.724 28.6709ZM181.736 26.3037C182.988 25.7064 184.365 25.4 185.89 25.4V22.4C183.948 22.4 182.125 22.7936 180.444 23.5963L181.736 26.3037ZM219.896 25.1L219.192 26.4243L219.203 26.4302L219.214 26.4359L219.896 25.1ZM223.596 28.25L222.363 29.1038L225.096 33.0519V28.25H223.596ZM223.596 24.3V22.8H222.096V24.3H223.596ZM230.646 24.3H232.146V22.8H230.646V24.3ZM229.096 59.05L227.764 58.3615L227.759 58.3704L229.096 59.05ZM224.446 63.85L223.709 62.5438L223.701 62.5482L223.693 62.5528L224.446 63.85ZM207.246 62.9L206.359 64.1096L206.367 64.1152L207.246 62.9ZM202.996 55.4V53.9H201.33L201.505 55.557L202.996 55.4ZM209.946 55.4L211.387 54.9829L211.074 53.9H209.946V55.4ZM212.296 58.4L213.088 57.126L213.079 57.1201L212.296 58.4ZM221.696 57.7L220.665 56.6111L220.657 56.6181L220.65 56.6253L221.696 57.7ZM223.596 47.9H225.096V43.0981L222.363 47.0462L223.596 47.9ZM219.846 51.15L219.132 49.831L219.12 49.8374L219.846 51.15ZM208.046 50.65L208.838 49.3755L208.046 50.65ZM203.446 45.6L202.105 46.2708L202.111 46.2831L202.117 46.2952L203.446 45.6ZM203.446 30.6L202.117 29.9048L202.113 29.9128L202.109 29.921L203.446 30.6ZM207.996 25.6L207.221 24.3157L207.212 24.3217L207.996 25.6ZM222.596 33.8L221.277 34.5133L221.281 34.5209L221.285 34.5285L222.596 33.8ZM219.896 31L219.136 32.2929L219.15 32.3013L219.165 32.3094L219.896 31ZM212.646 30.95L211.898 29.6501L212.646 30.95ZM209.946 33.75L208.642 33.0096L208.635 33.0215L209.946 33.75ZM209.946 42.45L208.619 43.1486L208.63 43.1697L208.642 43.1904L209.946 42.45ZM212.646 45.3L211.869 46.5828L211.877 46.5879L211.886 46.5929L212.646 45.3ZM219.896 45.35L220.628 46.6594L220.643 46.6513L220.657 46.6429L219.896 45.35ZM222.596 42.55L223.908 43.2785L223.912 43.2709L223.916 43.2633L222.596 42.55ZM214.446 25.35C216.308 25.35 217.875 25.724 219.192 26.4243L220.601 23.7757C218.784 22.8093 216.718 22.35 214.446 22.35V25.35ZM219.214 26.4359C220.586 27.1361 221.62 28.0297 222.363 29.1038L224.83 27.3962C223.773 25.8703 222.341 24.6639 220.579 23.7641L219.214 26.4359ZM225.096 28.25V24.3H222.096V28.25H225.096ZM223.596 25.8H230.646V22.8H223.596V25.8ZM229.146 24.3V52.2H232.146V24.3H229.146ZM229.146 52.2C229.146 54.5609 228.673 56.6025 227.764 58.3615L230.429 59.7385C231.587 57.4975 232.146 54.9724 232.146 52.2H229.146ZM227.759 58.3704C226.865 60.1293 225.529 61.5161 223.709 62.5438L225.184 65.1562C227.497 63.8505 229.261 62.0374 230.434 59.7296L227.759 58.3704ZM223.693 62.5528C221.902 63.5928 219.675 64.15 216.946 64.15V67.15C220.085 67.15 222.858 66.5072 225.2 65.1472L223.693 62.5528ZM216.946 64.15C213.247 64.15 210.344 63.2901 208.126 61.6848L206.367 64.1152C209.216 66.1766 212.779 67.15 216.946 67.15V64.15ZM208.134 61.6904C205.985 60.1146 204.779 58.0022 204.488 55.243L201.505 55.557C201.881 59.1311 203.508 62.0187 206.359 64.1096L208.134 61.6904ZM202.996 56.9H209.946V53.9H202.996V56.9ZM208.506 55.8171C208.984 57.4688 210.018 58.7655 211.514 59.6799L213.079 57.1201C212.175 56.5678 211.643 55.8645 211.387 54.9829L208.506 55.8171ZM211.505 59.6739C213.018 60.6148 214.788 61.05 216.746 61.05V58.05C215.238 58.05 214.041 57.7185 213.088 57.1261L211.505 59.6739ZM216.746 61.05C219.107 61.05 221.154 60.322 222.743 58.7747L220.65 56.6253C219.706 57.5447 218.452 58.05 216.746 58.05V61.05ZM222.728 58.7889C224.4 57.205 225.096 54.9048 225.096 52.2H222.096C222.096 54.4286 221.526 55.795 220.665 56.6111L222.728 58.7889ZM225.096 52.2V47.9H222.096V52.2H225.096ZM222.363 47.0462C221.616 48.1252 220.556 49.0596 219.132 49.8311L220.561 52.4689C222.337 51.5071 223.777 50.2748 224.83 48.7538L222.363 47.0462ZM219.12 49.8374C217.805 50.5653 216.261 50.95 214.446 50.95V53.95C216.699 53.95 218.755 53.468 220.573 52.4626L219.12 49.8374ZM214.446 50.95C212.385 50.95 210.527 50.4242 208.838 49.3755L207.255 51.9245C209.433 53.2758 211.841 53.95 214.446 53.95V50.95ZM208.838 49.3755C207.149 48.3276 205.794 46.8521 204.776 44.9048L202.117 46.2952C203.365 48.6813 205.077 50.5724 207.255 51.9245L208.838 49.3755ZM204.788 44.9292C203.807 42.967 203.296 40.6859 203.296 38.05H200.296C200.296 41.0807 200.886 43.833 202.105 46.2708L204.788 44.9292ZM203.296 38.05C203.296 35.4499 203.806 33.2053 204.784 31.279L202.109 29.921C200.887 32.328 200.296 35.0501 200.296 38.05H203.296ZM204.776 31.2952C205.796 29.3446 207.134 27.8898 208.781 26.8783L207.212 24.3217C205.059 25.6436 203.364 27.5221 202.117 29.9048L204.776 31.2952ZM208.771 26.8843C210.459 25.8657 212.339 25.35 214.446 25.35V22.35C211.82 22.35 209.4 23.001 207.221 24.3157L208.771 26.8843ZM225.096 38.15C225.096 36.2551 224.724 34.5415 223.908 33.0715L221.285 34.5285C221.802 35.4585 222.096 36.6449 222.096 38.15H225.096ZM223.916 33.0867C223.125 31.6238 222.03 30.4739 220.628 29.6906L219.165 32.3094C220.03 32.7927 220.734 33.5096 221.277 34.5133L223.916 33.0867ZM220.657 29.7071C219.296 28.9065 217.817 28.5 216.246 28.5V31.5C217.276 31.5 218.23 31.7602 219.136 32.2929L220.657 29.7071ZM216.246 28.5C214.69 28.5 213.231 28.8824 211.898 29.6501L213.395 32.2499C214.262 31.751 215.203 31.5 216.246 31.5V28.5ZM211.898 29.6501C210.54 30.4321 209.458 31.5714 208.642 33.0096L211.251 34.4904C211.835 33.4619 212.553 32.7345 213.395 32.2499L211.898 29.6501ZM208.635 33.0215C207.821 34.4874 207.446 36.1827 207.446 38.05H210.446C210.446 36.584 210.739 35.4126 211.258 34.4785L208.635 33.0215ZM207.446 38.05C207.446 39.92 207.822 41.6336 208.619 43.1486L211.274 41.7514C210.738 40.733 210.446 39.5134 210.446 38.05H207.446ZM208.642 43.1904C209.455 44.6232 210.528 45.77 211.869 46.5828L213.424 44.0172C212.565 43.4966 211.838 42.7435 211.251 41.7096L208.642 43.1904ZM211.886 46.5929C213.241 47.3898 214.702 47.8 216.246 47.8V44.8C215.258 44.8 214.319 44.5436 213.407 44.0071L211.886 46.5929ZM216.246 47.8C217.802 47.8 219.271 47.4179 220.628 46.6594L219.165 44.0406C218.255 44.5488 217.291 44.8 216.246 44.8V47.8ZM220.657 46.6429C222.031 45.8345 223.117 44.7016 223.908 43.2785L221.285 41.8215C220.743 42.7984 220.028 43.5322 219.136 44.0571L220.657 46.6429ZM223.916 43.2633C224.724 41.7689 225.096 40.0465 225.096 38.15H222.096C222.096 39.6535 221.802 40.8645 221.277 41.8367L223.916 43.2633Z" fill="white"/>
</svg>
