<svg width="617" height="14" viewBox="0 0 617 14" fill="none" xmlns="http://www.w3.org/2000/svg">
<path d="M0.232 13V1.08H2.12V6.328H7.64V1.08H9.512V13H7.64V8.008H2.12V13H0.232ZM18.894 13.192C18.03 13.192 17.2247 13.0373 16.478 12.728C15.742 12.4187 15.0913 11.9867 14.526 11.432C13.9713 10.8773 13.534 10.2267 13.214 9.48C12.9047 8.73333 12.75 7.91733 12.75 7.032C12.75 6.14667 12.9047 5.33067 13.214 4.584C13.534 3.82667 13.9713 3.176 14.526 2.632C15.0807 2.07733 15.7313 1.65067 16.478 1.352C17.2247 1.04267 18.03 0.888 18.894 0.888C19.7687 0.888 20.574 1.04267 21.31 1.352C22.0567 1.65067 22.7073 2.07733 23.262 2.632C23.8273 3.18667 24.2647 3.83733 24.574 4.584C24.8833 5.33067 25.038 6.14667 25.038 7.032C25.038 7.91733 24.878 8.73333 24.558 9.48C24.2487 10.2267 23.8167 10.8773 23.262 11.432C22.7073 11.9867 22.0567 12.4187 21.31 12.728C20.5633 13.0373 19.758 13.192 18.894 13.192ZM18.894 11.464C19.5127 11.464 20.078 11.352 20.59 11.128C21.1127 10.904 21.566 10.5947 21.95 10.2C22.334 9.79467 22.6327 9.32533 22.846 8.792C23.0593 8.248 23.166 7.66133 23.166 7.032C23.166 6.40267 23.0593 5.82133 22.846 5.288C22.6327 4.75467 22.334 4.28533 21.95 3.88C21.566 3.47467 21.1127 3.16 20.59 2.936C20.078 2.712 19.5127 2.6 18.894 2.6C18.2753 2.6 17.7047 2.712 17.182 2.936C16.67 3.16 16.222 3.47467 15.838 3.88C15.454 4.28533 15.1553 4.75467 14.942 5.288C14.7393 5.82133 14.638 6.40267 14.638 7.032C14.638 7.66133 14.7393 8.248 14.942 8.792C15.1553 9.32533 15.454 9.79467 15.838 10.2C16.222 10.5947 16.6753 10.904 17.198 11.128C17.7207 11.352 18.286 11.464 18.894 11.464ZM28.2689 13V1.08H30.0289L34.5089 7.288H33.6289L38.0289 1.08H39.7889V13H37.9169V3.304L38.6209 3.496L34.1249 9.64H33.9329L29.5329 3.496L30.1569 3.304V13H28.2689ZM43.3733 13V1.08H51.2293V2.76H45.2613V6.184H50.9093V7.864H45.2613V11.32H51.2293V13H43.3733Z" fill="#E3B27D"/>
<path d="M97.1883 13V1.08H101.524C102.324 1.08 103.028 1.22933 103.636 1.528C104.255 1.816 104.735 2.24267 105.076 2.808C105.418 3.36267 105.588 4.02933 105.588 4.808C105.588 5.576 105.412 6.23733 105.06 6.792C104.719 7.34667 104.244 7.77333 103.636 8.072C103.028 8.37067 102.324 8.52 101.524 8.52H99.0763V13H97.1883ZM99.0763 6.84H101.572C101.999 6.84 102.372 6.75467 102.692 6.584C103.012 6.41333 103.263 6.17867 103.444 5.88C103.626 5.57067 103.716 5.208 103.716 4.792C103.716 4.376 103.626 4.01867 103.444 3.72C103.263 3.41067 103.012 3.176 102.692 3.016C102.372 2.84533 101.999 2.76 101.572 2.76H99.0763V6.84ZM106.643 13L110.835 1.08H113.171L117.363 13H115.347L114.435 10.328H109.587L108.659 13H106.643ZM110.131 8.648H113.859L111.747 2.408H112.275L110.131 8.648ZM124.997 13.192C124.154 13.192 123.37 13.0373 122.645 12.728C121.93 12.4187 121.301 11.992 120.757 11.448C120.223 10.8933 119.807 10.2427 119.509 9.496C119.21 8.74933 119.061 7.928 119.061 7.032C119.061 6.14667 119.205 5.33067 119.493 4.584C119.791 3.82667 120.207 3.176 120.741 2.632C121.274 2.07733 121.898 1.65067 122.613 1.352C123.327 1.04267 124.111 0.888 124.965 0.888C125.807 0.888 126.559 1.032 127.221 1.32C127.893 1.608 128.458 1.98667 128.917 2.456C129.375 2.91467 129.706 3.416 129.909 3.96L128.229 4.776C127.983 4.12533 127.578 3.60267 127.013 3.208C126.447 2.80267 125.765 2.6 124.965 2.6C124.175 2.6 123.477 2.78667 122.869 3.16C122.261 3.53333 121.786 4.05067 121.445 4.712C121.114 5.37333 120.949 6.14667 120.949 7.032C120.949 7.91733 121.119 8.696 121.461 9.368C121.813 10.0293 122.293 10.5467 122.901 10.92C123.509 11.2827 124.207 11.464 124.997 11.464C125.658 11.464 126.261 11.3307 126.805 11.064C127.359 10.7867 127.802 10.4027 128.133 9.912C128.463 9.41067 128.629 8.82933 128.629 8.168V7.352L129.477 8.12H124.965V6.52H130.501V7.64C130.501 8.51467 130.351 9.29867 130.053 9.992C129.754 10.6747 129.349 11.256 128.837 11.736C128.325 12.216 127.738 12.5787 127.077 12.824C126.415 13.0693 125.722 13.192 124.997 13.192ZM133.548 13V1.08H141.404V2.76H135.436V6.184H141.084V7.864H135.436V11.32H141.404V13H133.548ZM148.454 13.192C147.707 13.192 147.014 13.0533 146.374 12.776C145.734 12.488 145.19 12.0987 144.742 11.608C144.294 11.1173 143.963 10.552 143.75 9.912L145.35 9.24C145.638 9.976 146.059 10.5413 146.614 10.936C147.168 11.3307 147.808 11.528 148.534 11.528C148.96 11.528 149.334 11.464 149.654 11.336C149.974 11.1973 150.219 11.0053 150.39 10.76C150.571 10.5147 150.662 10.232 150.662 9.912C150.662 9.47467 150.539 9.128 150.294 8.872C150.048 8.616 149.686 8.41333 149.206 8.264L146.966 7.56C146.07 7.28267 145.387 6.86133 144.918 6.296C144.448 5.72 144.214 5.048 144.214 4.28C144.214 3.608 144.379 3.02133 144.71 2.52C145.04 2.008 145.494 1.608 146.07 1.32C146.656 1.032 147.323 0.888 148.07 0.888C148.784 0.888 149.435 1.016 150.022 1.272C150.608 1.51733 151.11 1.85867 151.526 2.296C151.952 2.73333 152.262 3.24 152.454 3.816L150.886 4.504C150.651 3.87467 150.283 3.38933 149.782 3.048C149.291 2.70667 148.72 2.536 148.07 2.536C147.675 2.536 147.328 2.60533 147.03 2.744C146.731 2.872 146.496 3.064 146.326 3.32C146.166 3.56533 146.086 3.85333 146.086 4.184C146.086 4.568 146.208 4.90933 146.454 5.208C146.699 5.50667 147.072 5.73067 147.574 5.88L149.654 6.536C150.603 6.824 151.318 7.24 151.798 7.784C152.278 8.31733 152.518 8.984 152.518 9.784C152.518 10.4453 152.342 11.032 151.99 11.544C151.648 12.056 151.174 12.4613 150.566 12.76C149.958 13.048 149.254 13.192 148.454 13.192ZM198.843 13V1.08H203.867C204.613 1.08 205.259 1.21333 205.803 1.48C206.347 1.736 206.763 2.10933 207.051 2.6C207.339 3.08 207.483 3.65067 207.483 4.312C207.483 4.888 207.333 5.416 207.035 5.896C206.747 6.36533 206.293 6.73867 205.675 7.016V6.216C206.219 6.42933 206.661 6.70133 207.003 7.032C207.344 7.352 207.589 7.71467 207.739 8.12C207.899 8.52533 207.979 8.952 207.979 9.4C207.979 10.52 207.611 11.4 206.875 12.04C206.149 12.68 205.152 13 203.883 13H198.843ZM200.731 11.32H204.027C204.656 11.32 205.157 11.1493 205.531 10.808C205.904 10.456 206.091 9.992 206.091 9.416C206.091 8.82933 205.904 8.36533 205.531 8.024C205.157 7.672 204.656 7.496 204.027 7.496H200.731V11.32ZM200.731 5.832H203.915C204.427 5.832 204.837 5.688 205.147 5.4C205.456 5.10133 205.611 4.712 205.611 4.232C205.611 3.752 205.456 3.37867 205.147 3.112C204.837 2.84533 204.427 2.712 203.915 2.712H200.731V5.832ZM211.041 13V1.08H212.929V11.32H218.081V13H211.041ZM226.265 13.192C225.401 13.192 224.596 13.0373 223.849 12.728C223.113 12.4187 222.463 11.9867 221.897 11.432C221.343 10.8773 220.905 10.2267 220.585 9.48C220.276 8.73333 220.121 7.91733 220.121 7.032C220.121 6.14667 220.276 5.33067 220.585 4.584C220.905 3.82667 221.343 3.176 221.897 2.632C222.452 2.07733 223.103 1.65067 223.849 1.352C224.596 1.04267 225.401 0.888 226.265 0.888C227.14 0.888 227.945 1.04267 228.681 1.352C229.428 1.65067 230.079 2.07733 230.633 2.632C231.199 3.18667 231.636 3.83733 231.945 4.584C232.255 5.33067 232.409 6.14667 232.409 7.032C232.409 7.91733 232.249 8.73333 231.929 9.48C231.62 10.2267 231.188 10.8773 230.633 11.432C230.079 11.9867 229.428 12.4187 228.681 12.728C227.935 13.0373 227.129 13.192 226.265 13.192ZM226.265 11.464C226.884 11.464 227.449 11.352 227.961 11.128C228.484 10.904 228.937 10.5947 229.321 10.2C229.705 9.79467 230.004 9.32533 230.217 8.792C230.431 8.248 230.537 7.66133 230.537 7.032C230.537 6.40267 230.431 5.82133 230.217 5.288C230.004 4.75467 229.705 4.28533 229.321 3.88C228.937 3.47467 228.484 3.16 227.961 2.936C227.449 2.712 226.884 2.6 226.265 2.6C225.647 2.6 225.076 2.712 224.553 2.936C224.041 3.16 223.593 3.47467 223.209 3.88C222.825 4.28533 222.527 4.75467 222.313 5.288C222.111 5.82133 222.009 6.40267 222.009 7.032C222.009 7.66133 222.111 8.248 222.313 8.792C222.527 9.32533 222.825 9.79467 223.209 10.2C223.593 10.5947 224.047 10.904 224.569 11.128C225.092 11.352 225.657 11.464 226.265 11.464ZM241.224 13.192C240.381 13.192 239.597 13.0373 238.872 12.728C238.157 12.4187 237.528 11.992 236.984 11.448C236.451 10.8933 236.035 10.2427 235.736 9.496C235.437 8.74933 235.288 7.928 235.288 7.032C235.288 6.14667 235.432 5.33067 235.72 4.584C236.019 3.82667 236.435 3.176 236.968 2.632C237.501 2.07733 238.125 1.65067 238.84 1.352C239.555 1.04267 240.339 0.888 241.192 0.888C242.035 0.888 242.787 1.032 243.448 1.32C244.12 1.608 244.685 1.98667 245.144 2.456C245.603 2.91467 245.933 3.416 246.136 3.96L244.456 4.776C244.211 4.12533 243.805 3.60267 243.24 3.208C242.675 2.80267 241.992 2.6 241.192 2.6C240.403 2.6 239.704 2.78667 239.096 3.16C238.488 3.53333 238.013 4.05067 237.672 4.712C237.341 5.37333 237.176 6.14667 237.176 7.032C237.176 7.91733 237.347 8.696 237.688 9.368C238.04 10.0293 238.52 10.5467 239.128 10.92C239.736 11.2827 240.435 11.464 241.224 11.464C241.885 11.464 242.488 11.3307 243.032 11.064C243.587 10.7867 244.029 10.4027 244.36 9.912C244.691 9.41067 244.856 8.82933 244.856 8.168V7.352L245.704 8.12H241.192V6.52H246.728V7.64C246.728 8.51467 246.579 9.29867 246.28 9.992C245.981 10.6747 245.576 11.256 245.064 11.736C244.552 12.216 243.965 12.5787 243.304 12.824C242.643 13.0693 241.949 13.192 241.224 13.192ZM292.861 13V1.08H297.197C297.997 1.08 298.701 1.22933 299.309 1.528C299.928 1.816 300.408 2.24267 300.749 2.808C301.091 3.36267 301.261 4.02933 301.261 4.808C301.261 5.576 301.085 6.23733 300.733 6.792C300.392 7.34667 299.917 7.77333 299.309 8.072C298.701 8.37067 297.997 8.52 297.197 8.52H294.749V13H292.861ZM294.749 6.84H297.245C297.672 6.84 298.045 6.75467 298.365 6.584C298.685 6.41333 298.936 6.17867 299.117 5.88C299.299 5.57067 299.389 5.208 299.389 4.792C299.389 4.376 299.299 4.01867 299.117 3.72C298.936 3.41067 298.685 3.176 298.365 3.016C298.045 2.84533 297.672 2.76 297.245 2.76H294.749V6.84ZM310.117 13.192C309.253 13.192 308.448 13.0373 307.701 12.728C306.965 12.4187 306.314 11.9867 305.749 11.432C305.194 10.8773 304.757 10.2267 304.437 9.48C304.128 8.73333 303.973 7.91733 303.973 7.032C303.973 6.14667 304.128 5.33067 304.437 4.584C304.757 3.82667 305.194 3.176 305.749 2.632C306.304 2.07733 306.954 1.65067 307.701 1.352C308.448 1.04267 309.253 0.888 310.117 0.888C310.992 0.888 311.797 1.04267 312.533 1.352C313.28 1.65067 313.93 2.07733 314.485 2.632C315.05 3.18667 315.488 3.83733 315.797 4.584C316.106 5.33067 316.261 6.14667 316.261 7.032C316.261 7.91733 316.101 8.73333 315.781 9.48C315.472 10.2267 315.04 10.8773 314.485 11.432C313.93 11.9867 313.28 12.4187 312.533 12.728C311.786 13.0373 310.981 13.192 310.117 13.192ZM310.117 11.464C310.736 11.464 311.301 11.352 311.813 11.128C312.336 10.904 312.789 10.5947 313.173 10.2C313.557 9.79467 313.856 9.32533 314.069 8.792C314.282 8.248 314.389 7.66133 314.389 7.032C314.389 6.40267 314.282 5.82133 314.069 5.288C313.856 4.75467 313.557 4.28533 313.173 3.88C312.789 3.47467 312.336 3.16 311.813 2.936C311.301 2.712 310.736 2.6 310.117 2.6C309.498 2.6 308.928 2.712 308.405 2.936C307.893 3.16 307.445 3.47467 307.061 3.88C306.677 4.28533 306.378 4.75467 306.165 5.288C305.962 5.82133 305.861 6.40267 305.861 7.032C305.861 7.66133 305.962 8.248 306.165 8.792C306.378 9.32533 306.677 9.79467 307.061 10.2C307.445 10.5947 307.898 10.904 308.421 11.128C308.944 11.352 309.509 11.464 310.117 11.464ZM319.492 13V1.08H323.828C324.628 1.08 325.332 1.22933 325.94 1.528C326.548 1.816 327.023 2.24267 327.364 2.808C327.716 3.36267 327.892 4.02933 327.892 4.808C327.892 5.62933 327.684 6.33333 327.268 6.92C326.863 7.50667 326.313 7.93333 325.62 8.2L328.372 13H326.228L323.3 7.8L324.532 8.52H321.38V13H319.492ZM321.38 6.84H323.86C324.297 6.84 324.676 6.75467 324.996 6.584C325.316 6.41333 325.561 6.17867 325.732 5.88C325.913 5.57067 326.004 5.208 326.004 4.792C326.004 4.376 325.913 4.01867 325.732 3.72C325.561 3.41067 325.316 3.176 324.996 3.016C324.676 2.84533 324.297 2.76 323.86 2.76H321.38V6.84ZM332.88 13V2.76H329.712V1.08H337.872V2.76H334.752V13H332.88ZM340.404 13V1.08H348.164V2.76H342.292V6.344H347.524V8.024H342.292V13H340.404ZM356.503 13.192C355.639 13.192 354.834 13.0373 354.087 12.728C353.351 12.4187 352.701 11.9867 352.135 11.432C351.581 10.8773 351.143 10.2267 350.823 9.48C350.514 8.73333 350.359 7.91733 350.359 7.032C350.359 6.14667 350.514 5.33067 350.823 4.584C351.143 3.82667 351.581 3.176 352.135 2.632C352.69 2.07733 353.341 1.65067 354.087 1.352C354.834 1.04267 355.639 0.888 356.503 0.888C357.378 0.888 358.183 1.04267 358.919 1.352C359.666 1.65067 360.317 2.07733 360.871 2.632C361.437 3.18667 361.874 3.83733 362.183 4.584C362.493 5.33067 362.647 6.14667 362.647 7.032C362.647 7.91733 362.487 8.73333 362.167 9.48C361.858 10.2267 361.426 10.8773 360.871 11.432C360.317 11.9867 359.666 12.4187 358.919 12.728C358.173 13.0373 357.367 13.192 356.503 13.192ZM356.503 11.464C357.122 11.464 357.687 11.352 358.199 11.128C358.722 10.904 359.175 10.5947 359.559 10.2C359.943 9.79467 360.242 9.32533 360.455 8.792C360.669 8.248 360.775 7.66133 360.775 7.032C360.775 6.40267 360.669 5.82133 360.455 5.288C360.242 4.75467 359.943 4.28533 359.559 3.88C359.175 3.47467 358.722 3.16 358.199 2.936C357.687 2.712 357.122 2.6 356.503 2.6C355.885 2.6 355.314 2.712 354.791 2.936C354.279 3.16 353.831 3.47467 353.447 3.88C353.063 4.28533 352.765 4.75467 352.551 5.288C352.349 5.82133 352.247 6.40267 352.247 7.032C352.247 7.66133 352.349 8.248 352.551 8.792C352.765 9.32533 353.063 9.79467 353.447 10.2C353.831 10.5947 354.285 10.904 354.807 11.128C355.33 11.352 355.895 11.464 356.503 11.464ZM365.878 13V1.08H367.766V11.32H372.918V13H365.878ZM375.623 13V1.08H377.511V13H375.623ZM386.895 13.192C386.031 13.192 385.225 13.0373 384.479 12.728C383.743 12.4187 383.092 11.9867 382.527 11.432C381.972 10.8773 381.535 10.2267 381.215 9.48C380.905 8.73333 380.751 7.91733 380.751 7.032C380.751 6.14667 380.905 5.33067 381.215 4.584C381.535 3.82667 381.972 3.176 382.527 2.632C383.081 2.07733 383.732 1.65067 384.479 1.352C385.225 1.04267 386.031 0.888 386.895 0.888C387.769 0.888 388.575 1.04267 389.311 1.352C390.057 1.65067 390.708 2.07733 391.263 2.632C391.828 3.18667 392.265 3.83733 392.575 4.584C392.884 5.33067 393.039 6.14667 393.039 7.032C393.039 7.91733 392.879 8.73333 392.559 9.48C392.249 10.2267 391.817 10.8773 391.263 11.432C390.708 11.9867 390.057 12.4187 389.311 12.728C388.564 13.0373 387.759 13.192 386.895 13.192ZM386.895 11.464C387.513 11.464 388.079 11.352 388.591 11.128C389.113 10.904 389.567 10.5947 389.951 10.2C390.335 9.79467 390.633 9.32533 390.847 8.792C391.06 8.248 391.167 7.66133 391.167 7.032C391.167 6.40267 391.06 5.82133 390.847 5.288C390.633 4.75467 390.335 4.28533 389.951 3.88C389.567 3.47467 389.113 3.16 388.591 2.936C388.079 2.712 387.513 2.6 386.895 2.6C386.276 2.6 385.705 2.712 385.183 2.936C384.671 3.16 384.223 3.47467 383.839 3.88C383.455 4.28533 383.156 4.75467 382.943 5.288C382.74 5.82133 382.639 6.40267 382.639 7.032C382.639 7.66133 382.74 8.248 382.943 8.792C383.156 9.32533 383.455 9.79467 383.839 10.2C384.223 10.5947 384.676 10.904 385.199 11.128C385.721 11.352 386.287 11.464 386.895 11.464ZM443.531 13.192C442.784 13.192 442.091 13.0533 441.451 12.776C440.811 12.488 440.267 12.0987 439.819 11.608C439.371 11.1173 439.04 10.552 438.827 9.912L440.427 9.24C440.715 9.976 441.136 10.5413 441.691 10.936C442.246 11.3307 442.886 11.528 443.611 11.528C444.038 11.528 444.411 11.464 444.731 11.336C445.051 11.1973 445.296 11.0053 445.467 10.76C445.648 10.5147 445.739 10.232 445.739 9.912C445.739 9.47467 445.616 9.128 445.371 8.872C445.126 8.616 444.763 8.41333 444.283 8.264L442.043 7.56C441.147 7.28267 440.464 6.86133 439.995 6.296C439.526 5.72 439.291 5.048 439.291 4.28C439.291 3.608 439.456 3.02133 439.787 2.52C440.118 2.008 440.571 1.608 441.147 1.32C441.734 1.032 442.4 0.888 443.147 0.888C443.862 0.888 444.512 1.016 445.099 1.272C445.686 1.51733 446.187 1.85867 446.603 2.296C447.03 2.73333 447.339 3.24 447.531 3.816L445.963 4.504C445.728 3.87467 445.36 3.38933 444.859 3.048C444.368 2.70667 443.798 2.536 443.147 2.536C442.752 2.536 442.406 2.60533 442.107 2.744C441.808 2.872 441.574 3.064 441.403 3.32C441.243 3.56533 441.163 3.85333 441.163 4.184C441.163 4.568 441.286 4.90933 441.531 5.208C441.776 5.50667 442.15 5.73067 442.651 5.88L444.731 6.536C445.68 6.824 446.395 7.24 446.875 7.784C447.355 8.31733 447.595 8.984 447.595 9.784C447.595 10.4453 447.419 11.032 447.067 11.544C446.726 12.056 446.251 12.4613 445.643 12.76C445.035 13.048 444.331 13.192 443.531 13.192ZM450.835 13V1.08H452.723V6.328H458.243V1.08H460.115V13H458.243V8.008H452.723V13H450.835ZM469.497 13.192C468.633 13.192 467.827 13.0373 467.081 12.728C466.345 12.4187 465.694 11.9867 465.129 11.432C464.574 10.8773 464.137 10.2267 463.817 9.48C463.507 8.73333 463.353 7.91733 463.353 7.032C463.353 6.14667 463.507 5.33067 463.817 4.584C464.137 3.82667 464.574 3.176 465.129 2.632C465.683 2.07733 466.334 1.65067 467.081 1.352C467.827 1.04267 468.633 0.888 469.497 0.888C470.371 0.888 471.177 1.04267 471.913 1.352C472.659 1.65067 473.31 2.07733 473.865 2.632C474.43 3.18667 474.867 3.83733 475.177 4.584C475.486 5.33067 475.641 6.14667 475.641 7.032C475.641 7.91733 475.481 8.73333 475.161 9.48C474.851 10.2267 474.419 10.8773 473.865 11.432C473.31 11.9867 472.659 12.4187 471.913 12.728C471.166 13.0373 470.361 13.192 469.497 13.192ZM469.497 11.464C470.115 11.464 470.681 11.352 471.193 11.128C471.715 10.904 472.169 10.5947 472.553 10.2C472.937 9.79467 473.235 9.32533 473.449 8.792C473.662 8.248 473.769 7.66133 473.769 7.032C473.769 6.40267 473.662 5.82133 473.449 5.288C473.235 4.75467 472.937 4.28533 472.553 3.88C472.169 3.47467 471.715 3.16 471.193 2.936C470.681 2.712 470.115 2.6 469.497 2.6C468.878 2.6 468.307 2.712 467.785 2.936C467.273 3.16 466.825 3.47467 466.441 3.88C466.057 4.28533 465.758 4.75467 465.545 5.288C465.342 5.82133 465.241 6.40267 465.241 7.032C465.241 7.66133 465.342 8.248 465.545 8.792C465.758 9.32533 466.057 9.79467 466.441 10.2C466.825 10.5947 467.278 10.904 467.801 11.128C468.323 11.352 468.889 11.464 469.497 11.464ZM478.871 13V1.08H483.207C484.007 1.08 484.711 1.22933 485.319 1.528C485.938 1.816 486.418 2.24267 486.759 2.808C487.101 3.36267 487.271 4.02933 487.271 4.808C487.271 5.576 487.095 6.23733 486.743 6.792C486.402 7.34667 485.927 7.77333 485.319 8.072C484.711 8.37067 484.007 8.52 483.207 8.52H480.759V13H478.871ZM480.759 6.84H483.255C483.682 6.84 484.055 6.75467 484.375 6.584C484.695 6.41333 484.946 6.17867 485.127 5.88C485.309 5.57067 485.399 5.208 485.399 4.792C485.399 4.376 485.309 4.01867 485.127 3.72C484.946 3.41067 484.695 3.176 484.375 3.016C484.055 2.84533 483.682 2.76 483.255 2.76H480.759V6.84ZM538.973 13.192C538.13 13.192 537.346 13.0373 536.621 12.728C535.906 12.4187 535.282 11.992 534.749 11.448C534.226 10.8933 533.815 10.2427 533.517 9.496C533.218 8.74933 533.069 7.928 533.069 7.032C533.069 6.14667 533.213 5.33067 533.501 4.584C533.799 3.82667 534.215 3.176 534.749 2.632C535.282 2.07733 535.906 1.65067 536.621 1.352C537.335 1.04267 538.119 0.888 538.973 0.888C539.815 0.888 540.567 1.032 541.229 1.32C541.901 1.608 542.466 1.98667 542.925 2.456C543.383 2.91467 543.714 3.416 543.917 3.96L542.221 4.76C541.965 4.12 541.554 3.60267 540.989 3.208C540.434 2.80267 539.762 2.6 538.973 2.6C538.183 2.6 537.485 2.78667 536.877 3.16C536.269 3.53333 535.794 4.05067 535.453 4.712C535.122 5.37333 534.957 6.14667 534.957 7.032C534.957 7.91733 535.122 8.696 535.453 9.368C535.794 10.0293 536.269 10.5467 536.877 10.92C537.485 11.2827 538.183 11.464 538.973 11.464C539.762 11.464 540.434 11.2667 540.989 10.872C541.554 10.4773 541.965 9.96 542.221 9.32L543.917 10.12C543.714 10.6533 543.383 11.1547 542.925 11.624C542.466 12.0933 541.901 12.472 541.229 12.76C540.567 13.048 539.815 13.192 538.973 13.192ZM552.77 13.192C551.906 13.192 551.101 13.0373 550.354 12.728C549.618 12.4187 548.968 11.9867 548.402 11.432C547.848 10.8773 547.41 10.2267 547.09 9.48C546.781 8.73333 546.626 7.91733 546.626 7.032C546.626 6.14667 546.781 5.33067 547.09 4.584C547.41 3.82667 547.848 3.176 548.402 2.632C548.957 2.07733 549.608 1.65067 550.354 1.352C551.101 1.04267 551.906 0.888 552.77 0.888C553.645 0.888 554.45 1.04267 555.186 1.352C555.933 1.65067 556.584 2.07733 557.138 2.632C557.704 3.18667 558.141 3.83733 558.45 4.584C558.76 5.33067 558.914 6.14667 558.914 7.032C558.914 7.91733 558.754 8.73333 558.434 9.48C558.125 10.2267 557.693 10.8773 557.138 11.432C556.584 11.9867 555.933 12.4187 555.186 12.728C554.44 13.0373 553.634 13.192 552.77 13.192ZM552.77 11.464C553.389 11.464 553.954 11.352 554.466 11.128C554.989 10.904 555.442 10.5947 555.826 10.2C556.21 9.79467 556.509 9.32533 556.722 8.792C556.936 8.248 557.042 7.66133 557.042 7.032C557.042 6.40267 556.936 5.82133 556.722 5.288C556.509 4.75467 556.21 4.28533 555.826 3.88C555.442 3.47467 554.989 3.16 554.466 2.936C553.954 2.712 553.389 2.6 552.77 2.6C552.152 2.6 551.581 2.712 551.058 2.936C550.546 3.16 550.098 3.47467 549.714 3.88C549.33 4.28533 549.032 4.75467 548.818 5.288C548.616 5.82133 548.514 6.40267 548.514 7.032C548.514 7.66133 548.616 8.248 548.818 8.792C549.032 9.32533 549.33 9.79467 549.714 10.2C550.098 10.5947 550.552 10.904 551.074 11.128C551.597 11.352 552.162 11.464 552.77 11.464ZM562.145 13V1.08H563.665L570.353 10.312L569.633 10.424V1.08H571.505V13H569.985L563.345 3.704L564.033 3.576V13H562.145ZM577.205 13V2.76H574.037V1.08H582.197V2.76H579.077V13H577.205ZM582.876 13L587.068 1.08H589.404L593.596 13H591.58L590.668 10.328H585.82L584.892 13H582.876ZM586.364 8.648H590.092L587.98 2.408H588.508L586.364 8.648ZM601.198 13.192C600.355 13.192 599.571 13.0373 598.846 12.728C598.131 12.4187 597.507 11.992 596.974 11.448C596.451 10.8933 596.04 10.2427 595.742 9.496C595.443 8.74933 595.294 7.928 595.294 7.032C595.294 6.14667 595.438 5.33067 595.726 4.584C596.024 3.82667 596.44 3.176 596.974 2.632C597.507 2.07733 598.131 1.65067 598.846 1.352C599.56 1.04267 600.344 0.888 601.198 0.888C602.04 0.888 602.792 1.032 603.454 1.32C604.126 1.608 604.691 1.98667 605.15 2.456C605.608 2.91467 605.939 3.416 606.142 3.96L604.446 4.76C604.19 4.12 603.779 3.60267 603.214 3.208C602.659 2.80267 601.987 2.6 601.198 2.6C600.408 2.6 599.71 2.78667 599.102 3.16C598.494 3.53333 598.019 4.05067 597.678 4.712C597.347 5.37333 597.182 6.14667 597.182 7.032C597.182 7.91733 597.347 8.696 597.678 9.368C598.019 10.0293 598.494 10.5467 599.102 10.92C599.71 11.2827 600.408 11.464 601.198 11.464C601.987 11.464 602.659 11.2667 603.214 10.872C603.779 10.4773 604.19 9.96 604.446 9.32L606.142 10.12C605.939 10.6533 605.608 11.1547 605.15 11.624C604.691 12.0933 604.126 12.472 603.454 12.76C602.792 13.048 602.04 13.192 601.198 13.192ZM611.315 13V2.76H608.147V1.08H616.307V2.76H613.187V13H611.315Z" fill="white"/>
</svg>
