<svg width="83" height="83" viewBox="0 0 83 83" fill="none" xmlns="http://www.w3.org/2000/svg">
<path d="M0.5 79.4999V37.3345H42.6654V79.4999H0.5Z" stroke="white"/>
<path d="M79.5004 21.5827C79.5004 33.2264 70.0613 42.6654 58.4177 42.6654C46.774 42.6654 37.335 33.2264 37.335 21.5827C37.335 9.93905 46.774 0.5 58.4177 0.5C70.0613 0.5 79.5004 9.93905 79.5004 21.5827Z" stroke="white"/>
<path d="M46.1654 39.8345H3V82.9999H46.1654V39.8345Z" fill="#E3B27D"/>
<path d="M61.4177 46.1654C73.3375 46.1654 83.0004 36.5025 83.0004 24.5827C83.0004 12.6629 73.3375 3 61.4177 3C49.4979 3 39.835 12.6629 39.835 24.5827C39.835 36.5025 49.4979 46.1654 61.4177 46.1654Z" fill="#E3B27D"/>
</svg>
