<svg width="47" height="46" viewBox="0 0 47 46" fill="none" xmlns="http://www.w3.org/2000/svg">
<path d="M11.1246 35.0041C10.5551 34.4347 10.5077 33.5408 10.9823 32.9173L11.1246 32.7544L33.6222 10.2568C34.2435 9.63553 35.2507 9.63553 35.872 10.2568C36.4415 10.8263 36.4889 11.7201 36.0144 12.3436L35.872 12.5065L13.3744 35.0041C12.7531 35.6254 11.7459 35.6254 11.1246 35.0041Z" fill="#E3B27D" stroke="#E3B27D" stroke-width="2"/>
<path d="M16.6428 13.0101C15.7642 13.012 15.0504 12.3013 15.0485 11.4228C15.0468 10.624 15.634 9.96154 16.4009 9.84626L16.6359 9.82851L34.745 9.78951C35.5461 9.78779 36.2097 10.3784 36.3224 11.1478L36.3393 11.3836L36.3018 29.4942C36.2999 30.3728 35.5862 31.0835 34.7076 31.0817C33.9089 31.0801 33.2489 30.4901 33.1369 29.7227L33.1201 29.4876L33.1534 12.9745L16.6428 13.0101Z" fill="#E3B27D" stroke="#E3B27D" stroke-width="2"/>
</svg>
