<svg width="79" height="80" viewBox="0 0 79 80" fill="none" xmlns="http://www.w3.org/2000/svg">
<path d="M62.9983 16.9693C65.3307 18.3167 65.3307 21.6833 62.9983 23.0307L36.3729 38.4112C35.2896 39.037 33.9547 39.037 32.8715 38.4112L6.24603 23.0307C3.91365 21.6833 3.91364 18.3167 6.24602 16.9693L32.8715 1.58875C33.9547 0.96299 35.2896 0.96299 36.3729 1.58875L62.9983 16.9693Z" stroke="white"/>
<path d="M62.9983 56.9693C65.3307 58.3167 65.3307 61.6833 62.9983 63.0307L36.3729 78.4112C35.2896 79.037 33.9547 79.037 32.8715 78.4112L6.24603 63.0307C3.91365 61.6833 3.91364 58.3167 6.24602 56.9693L32.8715 41.5888C33.9547 40.963 35.2896 40.963 36.3729 41.5888L62.9983 56.9693Z" stroke="white"/>
<path d="M72.2484 16.5364C74.914 18.0762 74.914 21.9238 72.2484 23.4636L45.623 38.8442C44.385 39.5594 42.8594 39.5594 41.6214 38.8442L14.9959 23.4636C12.3303 21.9238 12.3303 18.0762 14.9959 16.5364L41.6214 1.1558C42.8594 0.440641 44.385 0.440641 45.623 1.1558L72.2484 16.5364Z" fill="#E3B27D"/>
<path d="M72.2484 56.5364C74.914 58.0762 74.914 61.9238 72.2484 63.4636L45.623 78.8442C44.385 79.5594 42.8594 79.5594 41.6214 78.8442L14.9959 63.4636C12.3303 61.9238 12.3303 58.0762 14.9959 56.5364L41.6214 41.1558C42.8594 40.4406 44.385 40.4406 45.623 41.1558L72.2484 56.5364Z" fill="#E3B27D"/>
</svg>
