<svg width="76" height="76" viewBox="0 0 76 76" fill="none" xmlns="http://www.w3.org/2000/svg">
<path d="M36.7148 36.7143C56.4371 36.7143 72.4291 20.7222 72.4291 1H36.7148" stroke="white"/>
<path d="M36.7148 72.4285H72.4291C72.4291 52.746 56.4371 36.7142 36.7148 36.7142" stroke="white"/>
<path d="M36.7143 72.4285H1C1 52.746 16.9921 36.7142 36.7143 36.7142" stroke="white"/>
<path d="M36.7143 1H1C1 20.7222 16.9921 36.7143 36.7143 36.7143" stroke="white"/>
<path d="M39.3931 40.2858V4.57153H75.1074C75.1074 24.2938 59.1153 40.2858 39.3931 40.2858Z" fill="#E3B27D"/>
<path d="M75.1074 76.0001H39.3931V40.2858C59.1153 40.2858 75.1074 56.3175 75.1074 76.0001Z" fill="#E3B27D"/>
<path d="M3.67969 76.0001H39.394V40.2858C19.6718 40.2858 3.67969 56.3175 3.67969 76.0001Z" fill="#E3B27D"/>
<path d="M3.6792 4.57153H39.3935V40.2858C19.6713 40.2858 3.6792 24.2938 3.6792 4.57153Z" fill="#E3B27D"/>
</svg>
