<svg width="153" height="14" viewBox="0 0 153 14" fill="none" xmlns="http://www.w3.org/2000/svg">
<path d="M0.0790001 11V1.315H1.249L4.876 6.476H4.278L7.879 1.315H9.049V11H7.762V2.927L8.217 3.07L4.616 8.14H4.512L0.95 3.07L1.353 2.927V11H0.0790001ZM13.1111 11.156C12.6518 11.156 12.2444 11.0737 11.8891 10.909C11.5424 10.7357 11.2694 10.5017 11.0701 10.207C10.8708 9.90367 10.7711 9.557 10.7711 9.167C10.7711 8.79433 10.8491 8.46067 11.0051 8.166C11.1698 7.86267 11.4211 7.607 11.7591 7.399C12.1058 7.191 12.5391 7.04367 13.0591 6.957L15.6591 6.528V7.542L13.3321 7.932C12.8814 8.01 12.5521 8.153 12.3441 8.361C12.1448 8.569 12.0451 8.82467 12.0451 9.128C12.0451 9.414 12.1578 9.65233 12.3831 9.843C12.6171 10.0337 12.9074 10.129 13.2541 10.129C13.6961 10.129 14.0774 10.038 14.3981 9.856C14.7274 9.66533 14.9831 9.40967 15.1651 9.089C15.3558 8.76833 15.4511 8.413 15.4511 8.023V6.242C15.4511 5.86067 15.3081 5.553 15.0221 5.319C14.7448 5.07633 14.3764 4.955 13.9171 4.955C13.5184 4.955 13.1631 5.059 12.8511 5.267C12.5478 5.46633 12.3224 5.735 12.1751 6.073L11.1221 5.527C11.2521 5.20633 11.4601 4.92033 11.7461 4.669C12.0321 4.409 12.3658 4.20533 12.7471 4.058C13.1284 3.91067 13.5271 3.837 13.9431 3.837C14.4804 3.837 14.9528 3.941 15.3601 4.149C15.7674 4.34833 16.0838 4.63 16.3091 4.994C16.5431 5.34933 16.6601 5.76533 16.6601 6.242V11H15.4771V9.674L15.6981 9.752C15.5508 10.0293 15.3514 10.272 15.1001 10.48C14.8488 10.688 14.5541 10.8527 14.2161 10.974C13.8781 11.0953 13.5098 11.156 13.1111 11.156ZM18.5346 11V3.993H19.7176V5.28L19.5876 5.098C19.7523 4.69933 20.0036 4.40467 20.3416 4.214C20.6796 4.01467 21.0913 3.915 21.5766 3.915H22.0056V5.059H21.3946C20.9006 5.059 20.502 5.215 20.1986 5.527C19.8953 5.83033 19.7436 6.26367 19.7436 6.827V11H18.5346ZM23.0796 11V1.159H24.2886V7.906L23.7946 7.789L27.5126 3.993H29.0596L26.3686 6.814L29.2416 11H27.8116L25.1856 7.204L25.9396 7.165L23.8986 9.297L24.2886 8.413V11H23.0796ZM33.4256 11.156C32.7496 11.156 32.1473 10.9957 31.6186 10.675C31.09 10.3543 30.674 9.91667 30.3706 9.362C30.0673 8.79867 29.9156 8.17033 29.9156 7.477C29.9156 6.775 30.063 6.151 30.3576 5.605C30.661 5.059 31.0683 4.63 31.5796 4.318C32.0996 3.99733 32.6803 3.837 33.3216 3.837C33.8416 3.837 34.301 3.93233 34.6996 4.123C35.107 4.305 35.4493 4.55633 35.7266 4.877C36.0126 5.189 36.2293 5.54867 36.3766 5.956C36.5326 6.35467 36.6106 6.77067 36.6106 7.204C36.6106 7.29933 36.602 7.40767 36.5846 7.529C36.576 7.64167 36.563 7.75 36.5456 7.854H30.7996V6.814H35.8436L35.2716 7.282C35.3496 6.83133 35.3063 6.42833 35.1416 6.073C34.977 5.71767 34.7343 5.436 34.4136 5.228C34.093 5.02 33.729 4.916 33.3216 4.916C32.9143 4.916 32.5416 5.02 32.2036 5.228C31.8656 5.436 31.6013 5.735 31.4106 6.125C31.2286 6.50633 31.155 6.96133 31.1896 7.49C31.155 8.00133 31.233 8.452 31.4236 8.842C31.623 9.22333 31.9003 9.52233 32.2556 9.739C32.6196 9.947 33.014 10.051 33.4386 10.051C33.9066 10.051 34.301 9.94267 34.6216 9.726C34.9423 9.50933 35.2023 9.232 35.4016 8.894L36.4156 9.414C36.277 9.73467 36.0603 10.0293 35.7656 10.298C35.4796 10.558 35.1373 10.766 34.7386 10.922C34.3486 11.078 33.911 11.156 33.4256 11.156ZM41.034 11.078C40.3493 11.078 39.8206 10.883 39.448 10.493C39.084 10.103 38.902 9.55267 38.902 8.842V5.15H37.628V3.993H37.888C38.2 3.993 38.447 3.89767 38.629 3.707C38.811 3.51633 38.902 3.265 38.902 2.953V2.381H40.111V3.993H41.684V5.15H40.111V8.803C40.111 9.037 40.1456 9.24067 40.215 9.414C40.293 9.58733 40.4186 9.726 40.592 9.83C40.7653 9.92533 40.995 9.973 41.281 9.973C41.3416 9.973 41.4153 9.96867 41.502 9.96C41.5973 9.95133 41.684 9.94267 41.762 9.934V11C41.6493 11.026 41.5236 11.0433 41.385 11.052C41.2463 11.0693 41.1293 11.078 41.034 11.078ZM43.3413 11V3.993H44.5503V11H43.3413ZM43.3413 2.875V1.315H44.5503V2.875H43.3413ZM46.4262 11V3.993H47.6092V5.358L47.4142 5.241C47.5876 4.799 47.8649 4.45667 48.2462 4.214C48.6362 3.96267 49.0912 3.837 49.6112 3.837C50.1139 3.837 50.5602 3.94967 50.9502 4.175C51.3489 4.40033 51.6609 4.71233 51.8862 5.111C52.1202 5.50967 52.2372 5.96033 52.2372 6.463V11H51.0152V6.853C51.0152 6.463 50.9459 6.13367 50.8072 5.865C50.6686 5.59633 50.4692 5.38833 50.2092 5.241C49.9579 5.085 49.6676 5.007 49.3382 5.007C49.0089 5.007 48.7142 5.085 48.4542 5.241C48.2029 5.38833 48.0036 5.60067 47.8562 5.878C47.7089 6.14667 47.6352 6.47167 47.6352 6.853V11H46.4262ZM57.3083 13.86C56.8143 13.86 56.3549 13.782 55.9303 13.626C55.5143 13.47 55.1546 13.2533 54.8513 12.976C54.5566 12.7073 54.3313 12.391 54.1753 12.027L55.3063 11.507C55.4276 11.8363 55.6573 12.1137 55.9953 12.339C56.3419 12.573 56.7753 12.69 57.2953 12.69C57.6939 12.69 58.0536 12.612 58.3743 12.456C58.7036 12.3087 58.9636 12.0833 59.1543 11.78C59.3449 11.4853 59.4403 11.1257 59.4403 10.701V9.128L59.6613 9.362C59.4186 9.83867 59.0676 10.2027 58.6083 10.454C58.1576 10.7053 57.6593 10.831 57.1133 10.831C56.4546 10.831 55.8653 10.6793 55.3453 10.376C54.8253 10.064 54.4179 9.64367 54.1233 9.115C53.8286 8.57767 53.6813 7.984 53.6813 7.334C53.6813 6.67533 53.8286 6.08167 54.1233 5.553C54.4179 5.02433 54.8209 4.60833 55.3323 4.305C55.8523 3.993 56.4416 3.837 57.1003 3.837C57.6463 3.837 58.1403 3.96267 58.5823 4.214C59.0329 4.45667 59.3926 4.79467 59.6613 5.228L59.4793 5.553V3.993H60.6623V10.701C60.6623 11.3077 60.5193 11.8493 60.2333 12.326C59.9473 12.8027 59.5486 13.1753 59.0373 13.444C58.5346 13.7213 57.9583 13.86 57.3083 13.86ZM57.2173 9.661C57.6333 9.661 58.0059 9.557 58.3353 9.349C58.6733 9.141 58.9419 8.86367 59.1413 8.517C59.3406 8.16167 59.4403 7.76733 59.4403 7.334C59.4403 6.90933 59.3406 6.51933 59.1413 6.164C58.9419 5.80867 58.6733 5.527 58.3353 5.319C58.0059 5.111 57.6333 5.007 57.2173 5.007C56.7926 5.007 56.4069 5.111 56.0603 5.319C55.7136 5.527 55.4406 5.80867 55.2413 6.164C55.0506 6.51067 54.9553 6.90067 54.9553 7.334C54.9553 7.76733 55.0506 8.16167 55.2413 8.517C55.4406 8.86367 55.7093 9.141 56.0473 9.349C56.3939 9.557 56.7839 9.661 57.2173 9.661ZM67.6157 13.47V0.0149996H68.8897V13.47H67.6157Z" fill="#888888"/>
<path d="M79.4663 11V2.42H77.6333V1.315H80.7533V11H79.4663ZM86.0162 11.156C85.5135 11.156 85.0412 11.0693 84.5992 10.896C84.1572 10.714 83.7715 10.4583 83.4422 10.129C83.1215 9.791 82.8875 9.39667 82.7402 8.946L83.7802 8.504C83.9622 8.98067 84.2569 9.35333 84.6642 9.622C85.0802 9.882 85.5309 10.012 86.0162 10.012C86.4149 10.012 86.7659 9.92533 87.0692 9.752C87.3812 9.57 87.6239 9.323 87.7972 9.011C87.9705 8.69033 88.0572 8.335 88.0572 7.945C88.0572 7.53767 87.9662 7.178 87.7842 6.866C87.6109 6.554 87.3725 6.31133 87.0692 6.138C86.7659 5.956 86.4192 5.865 86.0292 5.865C85.6305 5.865 85.2665 5.956 84.9372 6.138C84.6079 6.32 84.3695 6.54967 84.2222 6.827L83.1952 6.606L83.9362 1.315H88.9542V2.42H84.4172L84.9112 1.926L84.3392 6.034L83.8972 5.774C84.1832 5.41 84.5169 5.15 84.8982 4.994C85.2882 4.82933 85.7085 4.747 86.1592 4.747C86.7919 4.747 87.3465 4.89 87.8232 5.176C88.2999 5.462 88.6725 5.84333 88.9412 6.32C89.2099 6.79667 89.3442 7.33833 89.3442 7.945C89.3442 8.55167 89.1969 9.09767 88.9022 9.583C88.6162 10.0683 88.2219 10.454 87.7192 10.74C87.2252 11.0173 86.6575 11.156 86.0162 11.156ZM93.453 11V1.315H96.625C97.6044 1.315 98.458 1.51433 99.186 1.913C99.914 2.31167 100.477 2.875 100.876 3.603C101.275 4.32233 101.474 5.17167 101.474 6.151C101.474 7.12167 101.275 7.971 100.876 8.699C100.477 9.427 99.914 9.99467 99.186 10.402C98.458 10.8007 97.6044 11 96.625 11H93.453ZM94.727 9.83H96.638C97.3574 9.83 97.977 9.67833 98.497 9.375C99.0257 9.07167 99.433 8.647 99.719 8.101C100.005 7.54633 100.148 6.89633 100.148 6.151C100.148 5.397 100.001 4.747 99.706 4.201C99.42 3.655 99.0127 3.23467 98.484 2.94C97.964 2.63667 97.3487 2.485 96.638 2.485H94.727V9.83ZM106.17 11.156C105.494 11.156 104.891 10.9957 104.363 10.675C103.834 10.3543 103.418 9.91667 103.115 9.362C102.811 8.79867 102.66 8.17033 102.66 7.477C102.66 6.775 102.807 6.151 103.102 5.605C103.405 5.059 103.812 4.63 104.324 4.318C104.844 3.99733 105.424 3.837 106.066 3.837C106.586 3.837 107.045 3.93233 107.444 4.123C107.851 4.305 108.193 4.55633 108.471 4.877C108.757 5.189 108.973 5.54867 109.121 5.956C109.277 6.35467 109.355 6.77067 109.355 7.204C109.355 7.29933 109.346 7.40767 109.329 7.529C109.32 7.64167 109.307 7.75 109.29 7.854H103.544V6.814H108.588L108.016 7.282C108.094 6.83133 108.05 6.42833 107.886 6.073C107.721 5.71767 107.478 5.436 107.158 5.228C106.837 5.02 106.473 4.916 106.066 4.916C105.658 4.916 105.286 5.02 104.948 5.228C104.61 5.436 104.345 5.735 104.155 6.125C103.973 6.50633 103.899 6.96133 103.934 7.49C103.899 8.00133 103.977 8.452 104.168 8.842C104.367 9.22333 104.644 9.52233 105 9.739C105.364 9.947 105.758 10.051 106.183 10.051C106.651 10.051 107.045 9.94267 107.366 9.726C107.686 9.50933 107.946 9.232 108.146 8.894L109.16 9.414C109.021 9.73467 108.804 10.0293 108.51 10.298C108.224 10.558 107.881 10.766 107.483 10.922C107.093 11.078 106.655 11.156 106.17 11.156ZM114.181 11.156C113.496 11.156 112.885 10.9957 112.348 10.675C111.819 10.3543 111.403 9.91667 111.1 9.362C110.797 8.80733 110.645 8.18333 110.645 7.49C110.645 6.788 110.797 6.164 111.1 5.618C111.403 5.072 111.819 4.63867 112.348 4.318C112.885 3.99733 113.496 3.837 114.181 3.837C114.64 3.837 115.069 3.91933 115.468 4.084C115.867 4.24867 116.218 4.46967 116.521 4.747C116.824 5.02433 117.045 5.34933 117.184 5.722L116.105 6.242C115.94 5.878 115.689 5.58333 115.351 5.358C115.013 5.124 114.623 5.007 114.181 5.007C113.756 5.007 113.371 5.11533 113.024 5.332C112.686 5.54867 112.417 5.84333 112.218 6.216C112.019 6.58867 111.919 7.01767 111.919 7.503C111.919 7.971 112.019 8.39567 112.218 8.777C112.417 9.14967 112.686 9.44433 113.024 9.661C113.371 9.87767 113.756 9.986 114.181 9.986C114.623 9.986 115.013 9.87333 115.351 9.648C115.689 9.414 115.94 9.10633 116.105 8.725L117.184 9.271C117.045 9.635 116.824 9.96 116.521 10.246C116.218 10.5233 115.867 10.7443 115.468 10.909C115.069 11.0737 114.64 11.156 114.181 11.156ZM120.777 11V10.116L123.455 7.217C123.984 6.65367 124.404 6.19 124.716 5.826C125.037 5.462 125.271 5.137 125.418 4.851C125.566 4.565 125.639 4.26167 125.639 3.941C125.639 3.41233 125.483 3.005 125.171 2.719C124.859 2.433 124.448 2.29 123.936 2.29C123.416 2.29 122.974 2.44167 122.61 2.745C122.246 3.03967 121.995 3.46 121.856 4.006L120.699 3.707C120.812 3.187 121.02 2.73633 121.323 2.355C121.627 1.97367 122.004 1.679 122.454 1.471C122.905 1.263 123.399 1.159 123.936 1.159C124.526 1.159 125.041 1.276 125.483 1.51C125.934 1.73533 126.285 2.05167 126.536 2.459C126.796 2.86633 126.926 3.33867 126.926 3.876C126.926 4.23133 126.853 4.578 126.705 4.916C126.558 5.254 126.341 5.61367 126.055 5.995C125.769 6.36767 125.397 6.801 124.937 7.295L122.545 9.895H127.134V11H120.777ZM132.576 11.156C131.805 11.156 131.129 10.948 130.548 10.532C129.976 10.1073 129.53 9.52233 129.209 8.777C128.889 8.023 128.728 7.14767 128.728 6.151C128.728 5.15433 128.889 4.28333 129.209 3.538C129.53 2.784 129.976 2.199 130.548 1.783C131.12 1.367 131.792 1.159 132.563 1.159C133.335 1.159 134.006 1.367 134.578 1.783C135.15 2.199 135.597 2.784 135.917 3.538C136.247 4.28333 136.411 5.15433 136.411 6.151C136.411 7.14767 136.251 8.023 135.93 8.777C135.61 9.531 135.159 10.116 134.578 10.532C134.006 10.948 133.339 11.156 132.576 11.156ZM132.576 9.973C133.096 9.973 133.547 9.817 133.928 9.505C134.31 9.18433 134.604 8.738 134.812 8.166C135.029 7.594 135.137 6.92233 135.137 6.151C135.137 5.37967 135.029 4.708 134.812 4.136C134.604 3.564 134.305 3.122 133.915 2.81C133.534 2.498 133.083 2.342 132.563 2.342C132.043 2.342 131.593 2.498 131.211 2.81C130.83 3.122 130.531 3.564 130.314 4.136C130.106 4.708 130.002 5.37967 130.002 6.151C130.002 6.91367 130.106 7.581 130.314 8.153C130.531 8.725 130.83 9.17133 131.211 9.492C131.601 9.81267 132.056 9.973 132.576 9.973ZM137.967 11V10.116L140.645 7.217C141.173 6.65367 141.594 6.19 141.906 5.826C142.226 5.462 142.46 5.137 142.608 4.851C142.755 4.565 142.829 4.26167 142.829 3.941C142.829 3.41233 142.673 3.005 142.361 2.719C142.049 2.433 141.637 2.29 141.126 2.29C140.606 2.29 140.164 2.44167 139.8 2.745C139.436 3.03967 139.184 3.46 139.046 4.006L137.889 3.707C138.001 3.187 138.209 2.73633 138.513 2.355C138.816 1.97367 139.193 1.679 139.644 1.471C140.094 1.263 140.588 1.159 141.126 1.159C141.715 1.159 142.231 1.276 142.673 1.51C143.123 1.73533 143.474 2.05167 143.726 2.459C143.986 2.86633 144.116 3.33867 144.116 3.876C144.116 4.23133 144.042 4.578 143.895 4.916C143.747 5.254 143.531 5.61367 143.245 5.995C142.959 6.36767 142.586 6.801 142.127 7.295L139.735 9.895H144.324V11H137.967ZM145.749 11V10.116L148.427 7.217C148.956 6.65367 149.376 6.19 149.688 5.826C150.009 5.462 150.243 5.137 150.39 4.851C150.537 4.565 150.611 4.26167 150.611 3.941C150.611 3.41233 150.455 3.005 150.143 2.719C149.831 2.433 149.419 2.29 148.908 2.29C148.388 2.29 147.946 2.44167 147.582 2.745C147.218 3.03967 146.967 3.46 146.828 4.006L145.671 3.707C145.784 3.187 145.992 2.73633 146.295 2.355C146.598 1.97367 146.975 1.679 147.426 1.471C147.877 1.263 148.371 1.159 148.908 1.159C149.497 1.159 150.013 1.276 150.455 1.51C150.906 1.73533 151.257 2.05167 151.508 2.459C151.768 2.86633 151.898 3.33867 151.898 3.876C151.898 4.23133 151.824 4.578 151.677 4.916C151.53 5.254 151.313 5.61367 151.027 5.995C150.741 6.36767 150.368 6.801 149.909 7.295L147.517 9.895H152.106V11H145.749Z" fill="#E3B27D"/>
</svg>
