<svg width="276" height="137" viewBox="0 0 276 137" fill="none" xmlns="http://www.w3.org/2000/svg">
<line x1="32" y1="104.5" x2="2" y2="104.5" stroke="white"/>
<path d="M64.65 86.1C68.3167 86.1 71.5333 86.8167 74.3 88.25C77.1 89.6833 79.25 91.7333 80.75 94.4C82.2833 97.0333 83.05 100.1 83.05 103.6C83.05 107.1 82.2833 110.167 80.75 112.8C79.25 115.4 77.1 117.417 74.3 118.85C71.5333 120.283 68.3167 121 64.65 121H52.45V86.1H64.65ZM64.4 115.05C68.0667 115.05 70.9 114.05 72.9 112.05C74.9 110.05 75.9 107.233 75.9 103.6C75.9 99.9667 74.9 97.1333 72.9 95.1C70.9 93.0333 68.0667 92 64.4 92H59.45V115.05H64.4ZM114.04 106.55C114.04 107.55 113.973 108.45 113.84 109.25H93.5898C93.7565 111.25 94.4565 112.817 95.6898 113.95C96.9232 115.083 98.4398 115.65 100.24 115.65C102.84 115.65 104.69 114.533 105.79 112.3H113.34C112.54 114.967 111.007 117.167 108.74 118.9C106.473 120.6 103.69 121.45 100.39 121.45C97.7232 121.45 95.3232 120.867 93.1898 119.7C91.0898 118.5 89.4398 116.817 88.2398 114.65C87.0732 112.483 86.4898 109.983 86.4898 107.15C86.4898 104.283 87.0732 101.767 88.2398 99.6C89.4065 97.4333 91.0398 95.7667 93.1398 94.6C95.2398 93.4333 97.6565 92.85 100.39 92.85C103.023 92.85 105.373 93.4167 107.44 94.55C109.54 95.6833 111.157 97.3 112.29 99.4C113.457 101.467 114.04 103.85 114.04 106.55ZM106.79 104.55C106.757 102.75 106.107 101.317 104.84 100.25C103.573 99.15 102.023 98.6 100.19 98.6C98.4565 98.6 96.9898 99.1333 95.7898 100.2C94.6232 101.233 93.9065 102.683 93.6398 104.55H106.79ZM129.749 121.45C127.483 121.45 125.449 121.05 123.649 120.25C121.849 119.417 120.416 118.3 119.349 116.9C118.316 115.5 117.749 113.95 117.649 112.25H124.699C124.833 113.317 125.349 114.2 126.249 114.9C127.183 115.6 128.333 115.95 129.699 115.95C131.033 115.95 132.066 115.683 132.799 115.15C133.566 114.617 133.949 113.933 133.949 113.1C133.949 112.2 133.483 111.533 132.549 111.1C131.649 110.633 130.199 110.133 128.199 109.6C126.133 109.1 124.433 108.583 123.099 108.05C121.799 107.517 120.666 106.7 119.699 105.6C118.766 104.5 118.299 103.017 118.299 101.15C118.299 99.6167 118.733 98.2167 119.599 96.95C120.499 95.6833 121.766 94.6833 123.399 93.95C125.066 93.2167 127.016 92.85 129.249 92.85C132.549 92.85 135.183 93.6833 137.149 95.35C139.116 96.9833 140.199 99.2 140.399 102H133.699C133.599 100.9 133.133 100.033 132.299 99.4C131.499 98.7333 130.416 98.4 129.049 98.4C127.783 98.4 126.799 98.6333 126.099 99.1C125.433 99.5667 125.099 100.217 125.099 101.05C125.099 101.983 125.566 102.7 126.499 103.2C127.433 103.667 128.883 104.15 130.849 104.65C132.849 105.15 134.499 105.667 135.799 106.2C137.099 106.733 138.216 107.567 139.149 108.7C140.116 109.8 140.616 111.267 140.649 113.1C140.649 114.7 140.199 116.133 139.299 117.4C138.433 118.667 137.166 119.667 135.499 120.4C133.866 121.1 131.949 121.45 129.749 121.45ZM149.945 90C148.712 90 147.679 89.6167 146.845 88.85C146.045 88.05 145.645 87.0667 145.645 85.9C145.645 84.7333 146.045 83.7667 146.845 83C147.679 82.2 148.712 81.8 149.945 81.8C151.179 81.8 152.195 82.2 152.995 83C153.829 83.7667 154.245 84.7333 154.245 85.9C154.245 87.0667 153.829 88.05 152.995 88.85C152.195 89.6167 151.179 90 149.945 90ZM153.395 93.3V121H146.395V93.3H153.395ZM171.161 92.85C173.228 92.85 175.045 93.2667 176.611 94.1C178.178 94.9 179.411 95.95 180.311 97.25V93.3H187.361V121.2C187.361 123.767 186.845 126.05 185.811 128.05C184.778 130.083 183.228 131.683 181.161 132.85C179.095 134.05 176.595 134.65 173.661 134.65C169.728 134.65 166.495 133.733 163.961 131.9C161.461 130.067 160.045 127.567 159.711 124.4H166.661C167.028 125.667 167.811 126.667 169.011 127.4C170.245 128.167 171.728 128.55 173.461 128.55C175.495 128.55 177.145 127.933 178.411 126.7C179.678 125.5 180.311 123.667 180.311 121.2V116.9C179.411 118.2 178.161 119.283 176.561 120.15C174.995 121.017 173.195 121.45 171.161 121.45C168.828 121.45 166.695 120.85 164.761 119.65C162.828 118.45 161.295 116.767 160.161 114.6C159.061 112.4 158.511 109.883 158.511 107.05C158.511 104.25 159.061 101.767 160.161 99.6C161.295 97.4333 162.811 95.7667 164.711 94.6C166.645 93.4333 168.795 92.85 171.161 92.85ZM180.311 107.15C180.311 105.45 179.978 104 179.311 102.8C178.645 101.567 177.745 100.633 176.611 100C175.478 99.3333 174.261 99 172.961 99C171.661 99 170.461 99.3167 169.361 99.95C168.261 100.583 167.361 101.517 166.661 102.75C165.995 103.95 165.661 105.383 165.661 107.05C165.661 108.717 165.995 110.183 166.661 111.45C167.361 112.683 168.261 113.633 169.361 114.3C170.495 114.967 171.695 115.3 172.961 115.3C174.261 115.3 175.478 114.983 176.611 114.35C177.745 113.683 178.645 112.75 179.311 111.55C179.978 110.317 180.311 108.85 180.311 107.15ZM209.548 92.9C212.848 92.9 215.515 93.95 217.548 96.05C219.581 98.1167 220.598 101.017 220.598 104.75V121H213.598V105.7C213.598 103.5 213.048 101.817 211.948 100.65C210.848 99.45 209.348 98.85 207.448 98.85C205.515 98.85 203.981 99.45 202.848 100.65C201.748 101.817 201.198 103.5 201.198 105.7V121H194.198V93.3H201.198V96.75C202.131 95.55 203.315 94.6167 204.748 93.95C206.215 93.25 207.815 92.9 209.548 92.9Z" fill="white"/>
<path d="M10.45 17.1H11.95V15.6H10.45V17.1ZM10.45 52V53.5H11.95V52H10.45ZM3.45 52H1.95V53.5H3.45V52ZM3.45 17.1V15.6H1.95V17.1H3.45ZM8.95 17.1V52H11.95V17.1H8.95ZM10.45 50.5H3.45V53.5H10.45V50.5ZM4.95 52V17.1H1.95V52H4.95ZM3.45 18.6H10.45V15.6H3.45V18.6ZM40.716 27.05L39.6384 28.0934L39.6468 28.102L40.716 27.05ZM43.766 52V53.5H45.266V52H43.766ZM36.766 52H35.266V53.5H36.766V52ZM35.116 31.65L34.0103 32.6636L34.0174 32.6714L34.0246 32.679L35.116 31.65ZM26.016 31.65L24.9255 30.6201L24.9246 30.621L26.016 31.65ZM24.366 52V53.5H25.866V52H24.366ZM17.366 52H15.866V53.5H17.366V52ZM17.366 24.3V22.8H15.866V24.3H17.366ZM24.366 24.3H25.866V22.8H24.366V24.3ZM24.366 27.75H22.866V32.1218L25.55 28.6709L24.366 27.75ZM27.916 24.95L28.5486 26.3101L28.5554 26.3069L28.5621 26.3037L27.916 24.95ZM32.716 25.4C35.6672 25.4 37.9252 26.3241 39.6384 28.0934L41.7936 26.0066C39.4402 23.5759 36.3648 22.4 32.716 22.4V25.4ZM39.6468 28.102C41.331 29.8139 42.266 32.2921 42.266 35.75H45.266C45.266 31.7412 44.1677 28.4195 41.7853 25.998L39.6468 28.102ZM42.266 35.75V52H45.266V35.75H42.266ZM43.766 50.5H36.766V53.5H43.766V50.5ZM38.266 52V36.7H35.266V52H38.266ZM38.266 36.7C38.266 34.2617 37.6544 32.1557 36.2074 30.621L34.0246 32.679C34.7776 33.4776 35.266 34.7383 35.266 36.7H38.266ZM36.2217 30.6364C34.7895 29.074 32.8595 28.35 30.616 28.35V31.35C32.1725 31.35 33.2425 31.826 34.0103 32.6636L36.2217 30.6364ZM30.616 28.35C28.3469 28.35 26.391 29.0683 24.9255 30.6201L27.1065 32.6799C27.9077 31.8317 29.0184 31.35 30.616 31.35V28.35ZM24.9246 30.621C23.4776 32.1557 22.866 34.2617 22.866 36.7H25.866C25.866 34.7383 26.3544 33.4776 27.1074 32.679L24.9246 30.621ZM22.866 36.7V52H25.866V36.7H22.866ZM24.366 50.5H17.366V53.5H24.366V50.5ZM18.866 52V24.3H15.866V52H18.866ZM17.366 25.8H24.366V22.8H17.366V25.8ZM22.866 24.3V27.75H25.866V24.3H22.866ZM25.55 28.6709C26.3312 27.6666 27.3225 26.8804 28.5486 26.3101L27.2834 23.5899C25.6429 24.353 24.2675 25.4334 23.182 26.8291L25.55 28.6709ZM28.5621 26.3037C29.8137 25.7064 31.1911 25.4 32.716 25.4V22.4C30.7743 22.4 28.9516 22.7936 27.2699 23.5963L28.5621 26.3037ZM58.5727 30.05V28.55H57.0727V30.05H58.5727ZM59.2227 45.5L58.162 46.5607L58.2027 46.6014L58.2465 46.6389L59.2227 45.5ZM64.7727 46.1H66.2727V44.6H64.7727V46.1ZM64.7727 52V53.5H66.2727V52H64.7727ZM51.5227 30.05H53.0227V28.55H51.5227V30.05ZM48.2227 30.05H46.7227V31.55H48.2227V30.05ZM48.2227 24.3V22.8H46.7227V24.3H48.2227ZM51.5227 24.3V25.8H53.0227V24.3H51.5227ZM51.5227 17.45V15.95H50.0227V17.45H51.5227ZM58.5727 17.45H60.0727V15.95H58.5727V17.45ZM58.5727 24.3H57.0727V25.8H58.5727V24.3ZM64.7727 24.3H66.2727V22.8H64.7727V24.3ZM64.7727 30.05V31.55H66.2727V30.05H64.7727ZM57.0727 30.05V43.45H60.0727V30.05H57.0727ZM57.0727 43.45C57.0727 44.5768 57.33 45.7286 58.162 46.5607L60.2833 44.4393C60.2487 44.4047 60.0727 44.1899 60.0727 43.45H57.0727ZM58.2465 46.6389C59.1238 47.3908 60.3373 47.6 61.5227 47.6V44.6C60.5747 44.6 60.2549 44.4092 60.1988 44.3611L58.2465 46.6389ZM61.5227 47.6H64.7727V44.6H61.5227V47.6ZM63.2727 46.1V52H66.2727V46.1H63.2727ZM64.7727 50.5H60.3727V53.5H64.7727V50.5ZM60.3727 50.5C57.6433 50.5 55.8737 49.8366 54.7805 48.7743C53.6953 47.7197 53.0227 46.0244 53.0227 43.4H50.0227C50.0227 46.509 50.825 49.1136 52.6898 50.9257C54.5466 52.7301 57.202 53.5 60.3727 53.5V50.5ZM53.0227 43.4V30.05H50.0227V43.4H53.0227ZM51.5227 28.55H48.2227V31.55H51.5227V28.55ZM49.7227 30.05V24.3H46.7227V30.05H49.7227ZM48.2227 25.8H51.5227V22.8H48.2227V25.8ZM53.0227 24.3V17.45H50.0227V24.3H53.0227ZM51.5227 18.95H58.5727V15.95H51.5227V18.95ZM57.0727 17.45V24.3H60.0727V17.45H57.0727ZM58.5727 25.8H64.7727V22.8H58.5727V25.8ZM63.2727 24.3V30.05H66.2727V24.3H63.2727ZM64.7727 28.55H58.5727V31.55H64.7727V28.55ZM95.3574 40.25V41.75H96.6281L96.837 40.4966L95.3574 40.25ZM75.1074 40.25V38.75H73.4772L73.6126 40.3746L75.1074 40.25ZM77.2074 44.95L76.1925 46.0545V46.0545L77.2074 44.95ZM87.3074 43.3V41.8H86.3742L85.9618 42.6372L87.3074 43.3ZM94.8574 43.3L96.2942 43.731L96.8735 41.8H94.8574V43.3ZM90.2574 49.9L91.1575 51.1001L91.1686 51.0915L90.2574 49.9ZM74.7074 50.7L73.9632 52.0024L73.9754 52.0093L73.9877 52.0161L74.7074 50.7ZM69.7574 45.65L68.4367 46.3611L68.4409 46.369L68.4452 46.3768L69.7574 45.65ZM69.7574 30.6L68.4367 29.8888L69.7574 30.6ZM74.6574 25.6L75.3859 26.9112L74.6574 25.6ZM88.9574 25.55L88.2362 26.8652L88.245 26.87L88.9574 25.55ZM93.8074 30.4L92.4874 31.1124L92.4942 31.125L92.5012 31.1374L93.8074 30.4ZM88.3074 35.55V37.05H89.8355L89.8072 35.5222L88.3074 35.55ZM86.3574 31.25L85.3739 32.3825L85.3825 32.39L85.3912 32.3974L86.3574 31.25ZM77.3074 31.2L78.302 32.3229L78.304 32.3211L77.3074 31.2ZM75.1574 35.55L73.6725 35.3379L73.4279 37.05H75.1574V35.55ZM94.0574 37.55C94.0574 38.4856 93.9949 39.3011 93.8778 40.0034L96.837 40.4966C96.9866 39.5989 97.0574 38.6144 97.0574 37.55H94.0574ZM95.3574 38.75H75.1074V41.75H95.3574V38.75ZM73.6126 40.3746C73.804 42.6712 74.6287 44.6175 76.1925 46.0545L78.2224 43.8455C77.3194 43.0158 76.7442 41.8288 76.6022 40.1254L73.6126 40.3746ZM76.1925 46.0545C77.7244 47.4622 79.6121 48.15 81.7574 48.15V45.15C80.3027 45.15 79.1571 44.7045 78.2224 43.8455L76.1925 46.0545ZM81.7574 48.15C83.2749 48.15 84.6676 47.8225 85.8701 47.0967C87.0764 46.3685 87.996 45.2968 88.6531 43.9628L85.9618 42.6372C85.5189 43.5365 84.9635 44.1398 84.3198 44.5283C83.6722 44.9192 82.84 45.15 81.7574 45.15V48.15ZM87.3074 44.8H94.8574V41.8H87.3074V44.8ZM93.4207 42.869C92.7138 45.2252 91.3687 47.1619 89.3462 48.7085L91.1686 51.0915C93.6795 49.1715 95.401 46.7082 96.2942 43.731L93.4207 42.869ZM89.3574 48.7C87.3915 50.1744 84.9384 50.95 81.9074 50.95V53.95C85.4765 53.95 88.59 53.0256 91.1574 51.1L89.3574 48.7ZM81.9074 50.95C79.4674 50.95 77.3189 50.4185 75.4271 49.3839L73.9877 52.0161C76.3626 53.3148 79.0141 53.95 81.9074 53.95V50.95ZM75.4516 49.3976C73.596 48.3373 72.1399 46.8557 71.0696 44.9232L68.4452 46.3768C69.7749 48.7776 71.6188 50.6627 73.9632 52.0024L75.4516 49.3976ZM71.0781 44.9389C70.0459 43.0218 69.5074 40.773 69.5074 38.15H66.5074C66.5074 41.1937 67.1356 43.9448 68.4367 46.3611L71.0781 44.9389ZM69.5074 38.15C69.5074 35.4904 70.0472 33.2257 71.0781 31.3111L68.4367 29.8888C67.1343 32.3076 66.5074 35.0762 66.5074 38.15H69.5074ZM71.0781 31.3111C72.1123 29.3905 73.543 27.9351 75.3859 26.9112L73.929 24.2888C71.5719 25.5983 69.7359 27.4761 68.4367 29.8888L71.0781 31.3111ZM75.3859 26.9112C77.2339 25.8846 79.3934 25.35 81.9074 25.35V22.35C78.9548 22.35 76.281 22.9821 73.929 24.2888L75.3859 26.9112ZM81.9074 25.35C84.3187 25.35 86.4155 25.8668 88.2362 26.8652L89.6787 24.2348C87.366 22.9665 84.7628 22.35 81.9074 22.35V25.35ZM88.245 26.87C90.0876 27.8644 91.493 29.2699 92.4874 31.1124L95.1275 29.6876C93.8552 27.3301 92.0273 25.5023 89.6698 24.23L88.245 26.87ZM92.5012 31.1374C93.5242 32.9496 94.0574 35.0723 94.0574 37.55H97.0574C97.0574 34.6277 96.424 31.9838 95.1137 29.6626L92.5012 31.1374ZM89.8072 35.5222C89.7666 33.332 88.9525 31.4743 87.3236 30.1026L85.3912 32.3974C86.2957 33.159 86.7816 34.168 86.8077 35.5778L89.8072 35.5222ZM87.341 30.1174C85.7753 28.7578 83.866 28.1 81.7074 28.1V31.1C83.2155 31.1 84.4062 31.5422 85.3739 32.3825L87.341 30.1174ZM81.7074 28.1C79.6384 28.1 77.8083 28.7479 76.3109 30.0789L78.304 32.3211C79.2066 31.5188 80.3097 31.1 81.7074 31.1V28.1ZM76.3129 30.0771C74.827 31.3932 73.9785 33.1961 73.6725 35.3379L76.6423 35.7621C76.8697 34.1706 77.4546 33.0735 78.302 32.3229L76.3129 30.0771ZM75.1574 37.05H88.3074V34.05H75.1574V37.05ZM107.667 28.6H106.167V33.9124L108.945 29.3845L107.667 28.6ZM111.167 25.15L110.426 23.8458L110.419 23.8495L110.413 23.8532L111.167 25.15ZM116.167 23.9H117.667V22.4H116.167V23.9ZM116.167 31.25V32.75H117.667V31.25H116.167ZM109.317 32.8L108.306 31.6916L108.298 31.6991L108.29 31.7067L109.317 32.8ZM107.667 52V53.5H109.167V52H107.667ZM100.667 52H99.1668V53.5H100.667V52ZM100.667 24.3V22.8H99.1668V24.3H100.667ZM107.667 24.3H109.167V22.8H107.667V24.3ZM108.945 29.3845C109.721 28.121 110.71 27.1506 111.921 26.4468L110.413 23.8532C108.757 24.8161 107.413 26.1456 106.388 27.8155L108.945 29.3845ZM111.908 26.4542C113.125 25.7625 114.532 25.4 116.167 25.4V22.4C114.069 22.4 112.142 22.8708 110.426 23.8458L111.908 26.4542ZM114.667 23.9V31.25H117.667V23.9H114.667ZM116.167 29.75H114.317V32.75H116.167V29.75ZM114.317 29.75C111.904 29.75 109.815 30.3155 108.306 31.6916L110.327 33.9084C111.085 33.2178 112.33 32.75 114.317 32.75V29.75ZM108.29 31.7067C106.734 33.1685 106.167 35.4937 106.167 38.2H109.167C109.167 35.7729 109.7 34.4982 110.344 33.8933L108.29 31.7067ZM106.167 38.2V52H109.167V38.2H106.167ZM107.667 50.5H100.667V53.5H107.667V50.5ZM102.167 52V24.3H99.1668V52H102.167ZM100.667 25.8H107.667V22.8H100.667V25.8ZM106.167 24.3V28.6H109.167V24.3H106.167ZM120.732 30.6L119.402 29.9048L119.398 29.9128L119.394 29.921L120.732 30.6ZM125.282 25.6L124.507 24.3157L124.497 24.3217L125.282 25.6ZM137.132 25.1L136.415 26.418L136.427 26.4243L137.132 25.1ZM140.882 28.25L139.674 29.1398L142.382 32.8144V28.25H140.882ZM140.882 24.3V22.8H139.382V24.3H140.882ZM147.932 24.3H149.432V22.8H147.932V24.3ZM147.932 52V53.5H149.432V52H147.932ZM140.882 52H139.382V53.5H140.882V52ZM140.882 47.95H142.382V43.1481L139.648 47.0962L140.882 47.95ZM137.132 51.2L137.836 52.5243L137.846 52.5189L137.132 51.2ZM125.282 50.65L124.481 51.9183L124.491 51.9245L125.282 50.65ZM120.732 45.6L119.39 46.2708L119.396 46.2831L119.402 46.2952L120.732 45.6ZM139.882 33.8L138.562 34.5133L138.566 34.5209L138.57 34.5285L139.882 33.8ZM137.182 31L136.421 32.2929L136.435 32.3013L136.45 32.3094L137.182 31ZM129.932 30.95L129.183 29.6501L129.932 30.95ZM127.232 33.75L125.927 33.0096L125.92 33.0215L127.232 33.75ZM127.232 42.45L125.904 43.1486L125.915 43.1697L125.927 43.1904L127.232 42.45ZM129.932 45.3L129.154 46.5828L129.163 46.5879L129.171 46.5929L129.932 45.3ZM137.182 45.35L137.913 46.6594L137.928 46.6513L137.942 46.6429L137.182 45.35ZM139.882 42.55L141.193 43.2785L141.197 43.2709L141.201 43.2633L139.882 42.55ZM120.582 38.05C120.582 35.4499 121.091 33.2053 122.069 31.279L119.394 29.921C118.172 32.328 117.582 35.0501 117.582 38.05H120.582ZM122.061 31.2952C123.081 29.3446 124.419 27.8898 126.067 26.8783L124.497 24.3217C122.344 25.6436 120.649 27.5221 119.402 29.9048L122.061 31.2952ZM126.057 26.8843C127.745 25.8657 129.624 25.35 131.732 25.35V22.35C129.106 22.35 126.685 23.001 124.507 24.3157L126.057 26.8843ZM131.732 25.35C133.594 25.35 135.139 25.7243 136.415 26.4179L137.848 23.7821C136.058 22.809 134.002 22.35 131.732 22.35V25.35ZM136.427 26.4243C137.821 27.1658 138.89 28.0756 139.674 29.1398L142.089 27.3602C141.007 25.891 139.575 24.7009 137.836 23.7757L136.427 26.4243ZM142.382 28.25V24.3H139.382V28.25H142.382ZM140.882 25.8H147.932V22.8H140.882V25.8ZM146.432 24.3V52H149.432V24.3H146.432ZM147.932 50.5H140.882V53.5H147.932V50.5ZM142.382 52V47.95H139.382V52H142.382ZM139.648 47.0962C138.901 48.1752 137.841 49.1096 136.417 49.8811L137.846 52.5189C139.622 51.5571 141.062 50.3248 142.115 48.8038L139.648 47.0962ZM136.427 49.8757C135.111 50.576 133.543 50.95 131.682 50.95V53.95C133.953 53.95 136.019 53.4907 137.836 52.5243L136.427 49.8757ZM131.682 50.95C129.62 50.95 127.762 50.4242 126.073 49.3755L124.491 51.9245C126.668 53.2758 129.076 53.95 131.682 53.95V50.95ZM126.083 49.3818C124.426 48.3352 123.083 46.8585 122.061 44.9048L119.402 46.2952C120.647 48.6748 122.338 50.5648 124.481 51.9182L126.083 49.3818ZM122.073 44.9292C121.092 42.967 120.582 40.6859 120.582 38.05H117.582C117.582 41.0807 118.171 43.833 119.39 46.2708L122.073 44.9292ZM142.382 38.15C142.382 36.2551 142.01 34.5415 141.193 33.0715L138.57 34.5285C139.087 35.4585 139.382 36.6449 139.382 38.15H142.382ZM141.201 33.0867C140.41 31.6238 139.315 30.4739 137.913 29.6906L136.45 32.3094C137.315 32.7927 138.02 33.5096 138.562 34.5133L141.201 33.0867ZM137.942 29.7071C136.581 28.9065 135.102 28.5 133.532 28.5V31.5C134.561 31.5 135.516 31.7602 136.421 32.2929L137.942 29.7071ZM133.532 28.5C131.976 28.5 130.517 28.8824 129.183 29.6501L130.68 32.2499C131.547 31.751 132.488 31.5 133.532 31.5V28.5ZM129.183 29.6501C127.825 30.4321 126.743 31.5714 125.927 33.0096L128.536 34.4904C129.12 33.4619 129.838 32.7345 130.68 32.2499L129.183 29.6501ZM125.92 33.0215C125.106 34.4874 124.732 36.1827 124.732 38.05H127.732C127.732 36.584 128.024 35.4126 128.543 34.4785L125.92 33.0215ZM124.732 38.05C124.732 39.92 125.107 41.6336 125.904 43.1486L128.559 41.7514C128.023 40.733 127.732 39.5134 127.732 38.05H124.732ZM125.927 43.1904C126.74 44.6232 127.813 45.77 129.154 46.5828L130.709 44.0172C129.85 43.4966 129.123 42.7435 128.536 41.7096L125.927 43.1904ZM129.171 46.5929C130.526 47.3898 131.987 47.8 133.532 47.8V44.8C132.543 44.8 131.604 44.5436 130.692 44.0071L129.171 46.5929ZM133.532 47.8C135.087 47.8 136.556 47.4179 137.913 46.6594L136.45 44.0406C135.541 44.5488 134.576 44.8 133.532 44.8V47.8ZM137.942 46.6429C139.316 45.8345 140.402 44.7016 141.193 43.2785L138.57 41.8215C138.028 42.7984 137.313 43.5322 136.421 44.0571L137.942 46.6429ZM141.201 43.2633C142.009 41.7689 142.382 40.0465 142.382 38.15H139.382C139.382 39.6535 139.088 40.8645 138.562 41.8367L141.201 43.2633ZM154.718 30.65L156.034 31.3697L156.039 31.3611L154.718 30.65ZM159.568 25.65L160.306 26.9562L160.314 26.9518L160.322 26.9472L159.568 25.65ZM175.168 26.45L174.249 27.635L174.258 27.6426L174.268 27.65L175.168 26.45ZM179.718 33.65V35.15H181.635L181.174 33.2899L179.718 33.65ZM172.168 33.65L170.745 34.1243L171.087 35.15H172.168V33.65ZM170.118 30.85L169.218 32.05L169.242 32.0679L169.267 32.0848L170.118 30.85ZM161.868 32L163.032 32.9469L163.037 32.9404L163.042 32.9338L161.868 32ZM161.868 44.3L160.694 45.2338L160.7 45.2404L160.705 45.2469L161.868 44.3ZM172.168 42.65V41.15H171.096L170.749 42.1645L172.168 42.65ZM179.718 42.65L181.172 43.0214L181.65 41.15H179.718V42.65ZM175.168 49.8L176.09 50.9831L175.168 49.8ZM159.568 50.7L158.815 51.9972L158.823 52.0018L158.831 52.0062L159.568 50.7ZM154.718 45.7L153.398 46.4112L153.402 46.4197L154.718 45.7ZM154.468 38.15C154.468 35.4898 155.008 33.2459 156.034 31.3697L153.402 29.9303C152.095 32.3208 151.468 35.0769 151.468 38.15H154.468ZM156.039 31.3611C157.077 29.4343 158.495 27.9783 160.306 26.9562L158.831 24.3438C156.508 25.655 154.693 27.5324 153.398 29.9388L156.039 31.3611ZM160.322 26.9472C162.134 25.8949 164.235 25.35 166.668 25.35V22.35C163.769 22.35 161.136 23.0051 158.815 24.3528L160.322 26.9472ZM166.668 25.35C169.842 25.35 172.331 26.1467 174.249 27.635L176.088 25.265C173.539 23.2866 170.361 22.35 166.668 22.35V25.35ZM174.268 27.65C176.223 29.1162 177.567 31.2006 178.262 34.0101L181.174 33.2899C180.336 29.8994 178.647 27.1838 176.068 25.25L174.268 27.65ZM179.718 32.15H172.168V35.15H179.718V32.15ZM173.591 33.1757C173.097 31.6922 172.226 30.4812 170.97 29.6152L169.267 32.0848C169.944 32.5521 170.44 33.2078 170.745 34.1243L173.591 33.1757ZM171.018 29.65C169.777 28.7187 168.276 28.3 166.618 28.3V31.3C167.761 31.3 168.593 31.5813 169.218 32.05L171.018 29.65ZM166.618 28.3C164.197 28.3 162.167 29.215 160.694 31.0662L163.042 32.9338C163.903 31.8517 165.04 31.3 166.618 31.3V28.3ZM160.705 31.0531C159.242 32.8503 158.618 35.2873 158.618 38.15H161.618C161.618 35.6794 162.161 34.0164 163.032 32.9469L160.705 31.0531ZM158.618 38.15C158.618 40.9876 159.246 43.4125 160.694 45.2338L163.042 43.3662C162.158 42.2542 161.618 40.579 161.618 38.15H158.618ZM160.705 45.2469C162.182 47.0618 164.209 47.95 166.618 47.95V44.95C165.027 44.95 163.888 44.4049 163.032 43.3531L160.705 45.2469ZM166.618 47.95C168.258 47.95 169.745 47.582 170.978 46.7377C172.219 45.8884 173.071 44.6469 173.588 43.1355L170.749 42.1645C170.399 43.1865 169.893 43.845 169.283 44.2623C168.667 44.6846 167.812 44.95 166.618 44.95V47.95ZM172.168 44.15H179.718V41.15H172.168V44.15ZM178.265 42.2786C177.574 44.9832 176.23 47.0707 174.246 48.6169L176.09 50.9831C178.64 48.9959 180.33 46.3168 181.172 43.0214L178.265 42.2786ZM174.246 48.6169C172.289 50.1423 169.798 50.95 166.668 50.95V53.95C170.339 53.95 173.514 52.991 176.09 50.9831L174.246 48.6169ZM166.668 50.95C164.228 50.95 162.121 50.4183 160.306 49.3938L158.831 52.0062C161.149 53.315 163.776 53.95 166.668 53.95V50.95ZM160.322 49.4028C158.496 48.3428 157.072 46.8778 156.034 44.9803L153.402 46.4197C154.698 48.7889 156.507 50.6572 158.815 51.9972L160.322 49.4028ZM156.039 44.9888C155.008 43.0743 154.468 40.8096 154.468 38.15H151.468C151.468 41.2238 152.095 43.9924 153.398 46.4111L156.039 44.9888ZM192.996 30.05V28.55H191.496V30.05H192.996ZM193.646 45.5L192.586 46.5607L192.627 46.6014L192.67 46.6389L193.646 45.5ZM199.196 46.1H200.696V44.6H199.196V46.1ZM199.196 52V53.5H200.696V52H199.196ZM185.946 30.05H187.446V28.55H185.946V30.05ZM182.646 30.05H181.146V31.55H182.646V30.05ZM182.646 24.3V22.8H181.146V24.3H182.646ZM185.946 24.3V25.8H187.446V24.3H185.946ZM185.946 17.45V15.95H184.446V17.45H185.946ZM192.996 17.45H194.496V15.95H192.996V17.45ZM192.996 24.3H191.496V25.8H192.996V24.3ZM199.196 24.3H200.696V22.8H199.196V24.3ZM199.196 30.05V31.55H200.696V30.05H199.196ZM191.496 30.05V43.45H194.496V30.05H191.496ZM191.496 43.45C191.496 44.5768 191.754 45.7286 192.586 46.5607L194.707 44.4393C194.673 44.4047 194.496 44.1899 194.496 43.45H191.496ZM192.67 46.6389C193.548 47.3908 194.761 47.6 195.946 47.6V44.6C194.999 44.6 194.679 44.4092 194.623 44.3611L192.67 46.6389ZM195.946 47.6H199.196V44.6H195.946V47.6ZM197.696 46.1V52H200.696V46.1H197.696ZM199.196 50.5H194.796V53.5H199.196V50.5ZM194.796 50.5C192.067 50.5 190.298 49.8366 189.204 48.7743C188.119 47.7197 187.446 46.0244 187.446 43.4H184.446C184.446 46.509 185.249 49.1136 187.114 50.9257C188.97 52.7301 191.626 53.5 194.796 53.5V50.5ZM187.446 43.4V30.05H184.446V43.4H187.446ZM185.946 28.55H182.646V31.55H185.946V28.55ZM184.146 30.05V24.3H181.146V30.05H184.146ZM182.646 25.8H185.946V22.8H182.646V25.8ZM187.446 24.3V17.45H184.446V24.3H187.446ZM185.946 18.95H192.996V15.95H185.946V18.95ZM191.496 17.45V24.3H194.496V17.45H191.496ZM192.996 25.8H199.196V22.8H192.996V25.8ZM197.696 24.3V30.05H200.696V24.3H197.696ZM199.196 28.55H192.996V31.55H199.196V28.55ZM204.681 19.85L203.621 20.9107L203.643 20.9327L203.666 20.9539L204.681 19.85ZM204.681 14L205.719 15.083L205.72 15.0821L204.681 14ZM210.831 14L209.771 15.0607L209.793 15.0827L209.816 15.1039L210.831 14ZM210.831 19.85L211.869 20.933L211.87 20.9321L210.831 19.85ZM211.231 24.3H212.731V22.8H211.231V24.3ZM211.231 52V53.5H212.731V52H211.231ZM204.231 52H202.731V53.5H204.231V52ZM204.231 24.3V22.8H202.731V24.3H204.231ZM207.781 19.5C206.888 19.5 206.228 19.2344 205.697 18.7461L203.666 20.9539C204.802 21.999 206.208 22.5 207.781 22.5V19.5ZM205.742 18.7893C205.233 18.2803 204.981 17.6827 204.981 16.9H201.981C201.981 18.4506 202.53 19.8197 203.621 20.9107L205.742 18.7893ZM204.981 16.9C204.981 16.118 205.231 15.5504 205.719 15.083L203.643 12.917C202.531 13.9829 201.981 15.3487 201.981 16.9H204.981ZM205.72 15.0821C206.254 14.5696 206.906 14.3 207.781 14.3V11.3C206.19 11.3 204.775 11.8304 203.642 12.9179L205.72 15.0821ZM207.781 14.3C208.656 14.3 209.279 14.5687 209.771 15.0607L211.892 12.9393C210.784 11.8313 209.373 11.3 207.781 11.3V14.3ZM209.816 15.1039C210.33 15.5769 210.581 16.1384 210.581 16.9H213.581C213.581 15.3282 212.999 13.9564 211.847 12.8961L209.816 15.1039ZM210.581 16.9C210.581 17.6628 210.328 18.2539 209.792 18.7679L211.87 20.9321C213.001 19.8461 213.581 18.4705 213.581 16.9H210.581ZM209.793 18.767C209.305 19.2349 208.675 19.5 207.781 19.5V22.5C209.354 22.5 210.757 21.9985 211.869 20.933L209.793 18.767ZM209.731 24.3V52H212.731V24.3H209.731ZM211.231 50.5H204.231V53.5H211.231V50.5ZM205.731 52V24.3H202.731V52H205.731ZM204.231 25.8H211.231V22.8H204.231V25.8ZM229.697 45.55L228.273 46.0193L229.697 50.3443L231.122 46.0193L229.697 45.55ZM236.697 24.3V22.8H235.612L235.273 23.8307L236.697 24.3ZM244.147 24.3L245.554 24.8206L246.302 22.8H244.147V24.3ZM233.897 52V53.5H234.942L235.304 52.5206L233.897 52ZM225.397 52L223.99 52.5183L224.351 53.5H225.397V52ZM215.197 24.3V22.8H213.046L213.79 24.8183L215.197 24.3ZM222.697 24.3L224.122 23.8307L223.782 22.8H222.697V24.3ZM231.122 46.0193L238.122 24.7693L235.273 23.8307L228.273 45.0807L231.122 46.0193ZM236.697 25.8H244.147V22.8H236.697V25.8ZM242.74 23.7794L232.49 51.4794L235.304 52.5206L245.554 24.8206L242.74 23.7794ZM233.897 50.5H225.397V53.5H233.897V50.5ZM226.805 51.4817L216.605 23.7817L213.79 24.8183L223.99 52.5183L226.805 51.4817ZM215.197 25.8H222.697V22.8H215.197V25.8ZM221.273 24.7693L228.273 46.0193L231.122 45.0807L224.122 23.8307L221.273 24.7693ZM273.629 40.25V41.75H274.9L275.108 40.4966L273.629 40.25ZM253.379 40.25V38.75H251.749L251.884 40.3746L253.379 40.25ZM255.479 44.95L254.464 46.0545V46.0545L255.479 44.95ZM265.579 43.3V41.8H264.646L264.233 42.6372L265.579 43.3ZM273.129 43.3L274.566 43.731L275.145 41.8H273.129V43.3ZM268.529 49.9L269.429 51.1001L269.44 51.0915L268.529 49.9ZM252.979 50.7L252.235 52.0024L252.247 52.0093L252.259 52.0161L252.979 50.7ZM248.029 45.65L246.708 46.3611L246.712 46.369L246.717 46.3768L248.029 45.65ZM248.029 30.6L246.708 29.8888L248.029 30.6ZM252.929 25.6L253.657 26.9112L252.929 25.6ZM267.229 25.55L266.508 26.8652L266.517 26.87L267.229 25.55ZM272.079 30.4L270.759 31.1124L270.766 31.125L270.773 31.1374L272.079 30.4ZM266.579 35.55V37.05H268.107L268.079 35.5222L266.579 35.55ZM264.629 31.25L263.645 32.3825L263.654 32.39L263.663 32.3974L264.629 31.25ZM255.579 31.2L256.573 32.3229L256.575 32.3211L255.579 31.2ZM253.429 35.55L251.944 35.3379L251.699 37.05H253.429V35.55ZM272.329 37.55C272.329 38.4856 272.266 39.3011 272.149 40.0034L275.108 40.4966C275.258 39.5989 275.329 38.6144 275.329 37.55H272.329ZM273.629 38.75H253.379V41.75H273.629V38.75ZM251.884 40.3746C252.075 42.6712 252.9 44.6175 254.464 46.0545L256.494 43.8455C255.591 43.0158 255.016 41.8288 254.874 40.1254L251.884 40.3746ZM254.464 46.0545C255.996 47.4622 257.884 48.15 260.029 48.15V45.15C258.574 45.15 257.429 44.7045 256.494 43.8455L254.464 46.0545ZM260.029 48.15C261.546 48.15 262.939 47.8225 264.142 47.0967C265.348 46.3685 266.267 45.2968 266.925 43.9628L264.233 42.6372C263.79 43.5365 263.235 44.1398 262.591 44.5283C261.944 44.9192 261.111 45.15 260.029 45.15V48.15ZM265.579 44.8H273.129V41.8H265.579V44.8ZM271.692 42.869C270.985 45.2252 269.64 47.1619 267.618 48.7085L269.44 51.0915C271.951 49.1715 273.672 46.7082 274.566 43.731L271.692 42.869ZM267.629 48.7C265.663 50.1744 263.21 50.95 260.179 50.95V53.95C263.748 53.95 266.861 53.0256 269.429 51.1L267.629 48.7ZM260.179 50.95C257.739 50.95 255.59 50.4185 253.699 49.3839L252.259 52.0161C254.634 53.3148 257.286 53.95 260.179 53.95V50.95ZM253.723 49.3976C251.868 48.3373 250.411 46.8557 249.341 44.9232L246.717 46.3768C248.046 48.7776 249.89 50.6627 252.235 52.0024L253.723 49.3976ZM249.35 44.9389C248.317 43.0218 247.779 40.773 247.779 38.15H244.779C244.779 41.1937 245.407 43.9448 246.708 46.3611L249.35 44.9389ZM247.779 38.15C247.779 35.4904 248.319 33.2257 249.35 31.3111L246.708 29.8888C245.406 32.3076 244.779 35.0762 244.779 38.15H247.779ZM249.35 31.3111C250.384 29.3905 251.814 27.9351 253.657 26.9112L252.2 24.2888C249.843 25.5983 248.007 27.4761 246.708 29.8888L249.35 31.3111ZM253.657 26.9112C255.505 25.8846 257.665 25.35 260.179 25.35V22.35C257.226 22.35 254.552 22.9821 252.2 24.2888L253.657 26.9112ZM260.179 25.35C262.59 25.35 264.687 25.8668 266.508 26.8652L267.95 24.2348C265.637 22.9665 263.034 22.35 260.179 22.35V25.35ZM266.517 26.87C268.359 27.8644 269.764 29.2699 270.759 31.1124L273.399 29.6876C272.127 27.3301 270.299 25.5023 267.941 24.23L266.517 26.87ZM270.773 31.1374C271.796 32.9496 272.329 35.0723 272.329 37.55H275.329C275.329 34.6277 274.695 31.9838 273.385 29.6626L270.773 31.1374ZM268.079 35.5222C268.038 33.332 267.224 31.4743 265.595 30.1026L263.663 32.3974C264.567 33.159 265.053 34.168 265.079 35.5778L268.079 35.5222ZM265.612 30.1174C264.047 28.7578 262.137 28.1 259.979 28.1V31.1C261.487 31.1 262.678 31.5422 263.645 32.3825L265.612 30.1174ZM259.979 28.1C257.91 28.1 256.08 28.7479 254.582 30.0789L256.575 32.3211C257.478 31.5188 258.581 31.1 259.979 31.1V28.1ZM254.584 30.0771C253.098 31.3932 252.25 33.1961 251.944 35.3379L254.914 35.7621C255.141 34.1706 255.726 33.0735 256.573 32.3229L254.584 30.0771ZM253.429 37.05H266.579V34.05H253.429V37.05Z" fill="white"/>
</svg>
