<svg width="20" height="93" viewBox="0 0 20 93" fill="none" xmlns="http://www.w3.org/2000/svg">
<path d="M16.168 69.268C16.168 69.9213 16.0467 70.528 15.804 71.088C15.552 71.648 15.2113 72.124 14.782 72.516C14.3527 72.908 13.858 73.1973 13.298 73.384L12.71 71.984C13.354 71.732 13.8487 71.3633 14.194 70.878C14.5393 70.3927 14.712 69.8327 14.712 69.198C14.712 68.8247 14.656 68.498 14.544 68.218C14.4227 67.938 14.2547 67.7233 14.04 67.574C13.8253 67.4153 13.578 67.336 13.298 67.336C12.9153 67.336 12.612 67.4433 12.388 67.658C12.164 67.8727 11.9867 68.19 11.856 68.61L11.24 70.57C10.9973 71.354 10.6287 71.9513 10.134 72.362C9.63 72.7727 9.042 72.978 8.37 72.978C7.782 72.978 7.26867 72.8333 6.83 72.544C6.382 72.2547 6.032 71.858 5.78 71.354C5.528 70.8407 5.402 70.2573 5.402 69.604C5.402 68.9787 5.514 68.4093 5.738 67.896C5.95267 67.3827 6.25133 66.944 6.634 66.58C7.01667 66.2067 7.46 65.936 7.964 65.768L8.566 67.14C8.01533 67.3453 7.59067 67.6673 7.292 68.106C6.99333 68.5353 6.844 69.0347 6.844 69.604C6.844 69.9493 6.90467 70.2527 7.026 70.514C7.138 70.7753 7.306 70.9807 7.53 71.13C7.74467 71.27 7.99667 71.34 8.286 71.34C8.622 71.34 8.92067 71.2327 9.182 71.018C9.44333 70.8033 9.63933 70.4767 9.77 70.038L10.344 68.218C10.596 67.3873 10.96 66.762 11.436 66.342C11.9027 65.922 12.486 65.712 13.186 65.712C13.7647 65.712 14.278 65.866 14.726 66.174C15.174 66.4727 15.5287 66.888 15.79 67.42C16.042 67.952 16.168 68.568 16.168 69.268ZM16.168 55.4995C16.168 56.2369 16.0327 56.9229 15.762 57.5575C15.4913 58.1829 15.118 58.7289 14.642 59.1955C14.1567 59.6529 13.5873 60.0122 12.934 60.2735C12.2807 60.5349 11.562 60.6655 10.778 60.6655C10.0033 60.6655 9.28933 60.5395 8.636 60.2875C7.97333 60.0262 7.404 59.6622 6.928 59.1955C6.44267 58.7289 6.06933 58.1829 5.808 57.5575C5.53733 56.9322 5.402 56.2462 5.402 55.4995C5.402 54.7622 5.528 54.1042 5.78 53.5255C6.032 52.9375 6.36333 52.4429 6.774 52.0415C7.17533 51.6402 7.614 51.3509 8.09 51.1735L8.79 52.6575C8.23 52.8815 7.77733 53.2409 7.432 53.7355C7.07733 54.2209 6.9 54.8089 6.9 55.4995C6.9 56.1902 7.06333 56.8015 7.39 57.3335C7.71667 57.8655 8.16933 58.2809 8.748 58.5795C9.32667 58.8689 10.0033 59.0135 10.778 59.0135C11.5527 59.0135 12.234 58.8689 12.822 58.5795C13.4007 58.2809 13.8533 57.8655 14.18 57.3335C14.4973 56.8015 14.656 56.1902 14.656 55.4995C14.656 54.8089 14.4833 54.2209 14.138 53.7355C13.7927 53.2409 13.34 52.8815 12.78 52.6575L13.48 51.1735C13.9467 51.3509 14.3853 51.6402 14.796 52.0415C15.2067 52.4429 15.538 52.9375 15.79 53.5255C16.042 54.1042 16.168 54.7622 16.168 55.4995ZM16 45.9747L5.57 45.9747L5.57 42.1807C5.57 41.4807 5.70066 40.8647 5.962 40.3327C6.214 39.8007 6.58733 39.3854 7.082 39.0867C7.56733 38.7787 8.15066 38.6247 8.832 38.6247C9.55066 38.6247 10.1667 38.8067 10.68 39.1707C11.1933 39.5254 11.5667 40.0061 11.8 40.6127L16 38.2047L16 40.0807L11.45 42.6427L12.08 41.5647L12.08 44.3227L16 44.3227L16 45.9747ZM10.61 44.3227L10.61 42.1527C10.61 41.7701 10.5353 41.4387 10.386 41.1587C10.2367 40.8787 10.0313 40.6641 9.77 40.5147C9.49933 40.3561 9.182 40.2767 8.818 40.2767C8.454 40.2767 8.14133 40.3561 7.88 40.5147C7.60933 40.6641 7.404 40.8787 7.264 41.1587C7.11466 41.4387 7.04 41.7701 7.04 42.1527L7.04 44.3227L10.61 44.3227ZM16.168 28.2466C16.168 29.0026 16.0327 29.7072 15.762 30.3606C15.4913 31.0046 15.1133 31.5739 14.628 32.0686C14.1427 32.5539 13.5733 32.9366 12.92 33.2166C12.2667 33.4872 11.5527 33.6226 10.778 33.6226C10.0033 33.6226 9.28933 33.4872 8.636 33.2166C7.97333 32.9366 7.404 32.5539 6.928 32.0686C6.44266 31.5832 6.06933 31.0139 5.808 30.3606C5.53733 29.7072 5.402 29.0026 5.402 28.2466C5.402 27.4812 5.53733 26.7766 5.808 26.1326C6.06933 25.4792 6.44266 24.9099 6.928 24.4246C7.41333 23.9299 7.98266 23.5472 8.636 23.2766C9.28933 23.0059 10.0033 22.8706 10.778 22.8706C11.5527 22.8706 12.2667 23.0106 12.92 23.2906C13.5733 23.5612 14.1427 23.9392 14.628 24.4246C15.1133 24.9099 15.4913 25.4792 15.762 26.1326C16.0327 26.7859 16.168 27.4906 16.168 28.2466ZM14.656 28.2466C14.656 27.7052 14.558 27.2106 14.362 26.7626C14.166 26.3052 13.8953 25.9086 13.55 25.5726C13.1953 25.2366 12.7847 24.9752 12.318 24.7886C11.842 24.6019 11.3287 24.5086 10.778 24.5086C10.2273 24.5086 9.71866 24.6019 9.252 24.7886C8.78533 24.9752 8.37466 25.2366 8.02 25.5726C7.66533 25.9086 7.39 26.3052 7.194 26.7626C6.998 27.2106 6.9 27.7052 6.9 28.2466C6.9 28.7879 6.998 29.2872 7.194 29.7446C7.39 30.1926 7.66533 30.5846 8.02 30.9206C8.37466 31.2566 8.78533 31.5179 9.252 31.7046C9.71866 31.8819 10.2273 31.9706 10.778 31.9706C11.3287 31.9706 11.842 31.8819 12.318 31.7046C12.7847 31.5179 13.1953 31.2566 13.55 30.9206C13.8953 30.5846 14.166 30.1879 14.362 29.7306C14.558 29.2732 14.656 28.7786 14.656 28.2466ZM16 17.5236L5.57 17.5236L5.57 15.8716L14.53 15.8716L14.53 11.3636L16 11.3636L16 17.5236ZM16 6.47669L5.57 6.47669L5.57 4.82469L14.53 4.82469L14.53 0.316687L16 0.316687L16 6.47669Z" fill="white"/>
<path d="M5.13083 83.1308C5.28942 82.9722 5.53758 82.9578 5.71245 83.0876L5.76255 83.1308L9.61581 86.9839L13.4691 83.1308C13.6277 82.9722 13.8758 82.9578 14.0507 83.0876L14.1008 83.1308C14.2594 83.2894 14.2738 83.5376 14.144 83.7124L14.1008 83.7625L9.93167 87.9317C9.77308 88.0903 9.52492 88.1047 9.35005 87.9749L9.29995 87.9317L5.13083 83.7625C4.95639 83.5881 4.95639 83.3053 5.13083 83.1308Z" fill="white" stroke="white" stroke-width="0.5"/>
<path d="M5.13083 87.0683C5.28942 86.9097 5.53758 86.8953 5.71245 87.0251L5.76255 87.0683L9.61581 90.9214L13.4691 87.0683C13.6277 86.9097 13.8758 86.8953 14.0507 87.0251L14.1008 87.0683C14.2594 87.2269 14.2738 87.4751 14.144 87.6499L14.1008 87.7L9.93167 91.8692C9.77308 92.0278 9.52492 92.0422 9.35005 91.9124L9.29995 91.8692L5.13083 87.7C4.95639 87.5256 4.95639 87.2428 5.13083 87.0683Z" fill="white" stroke="white" stroke-width="0.5"/>
</svg>
