<svg width="63" height="61" viewBox="0 0 63 61" fill="none" xmlns="http://www.w3.org/2000/svg">
<path d="M57.6923 46.577C57.6923 54.5577 51.25 61 43.2692 61C35.2885 61 28.8461 54.5577 28.8461 46.577C28.8461 38.5962 22.4038 32.1539 14.4231 32.1539C6.44231 32.1539 0 25.7116 0 17.7308C0 9.75005 6.44231 3.30774 14.4231 3.30774C22.4038 3.30774 28.8461 9.75005 28.8461 17.7308C28.8461 25.7116 35.2885 32.1539 43.2692 32.1539C51.25 32.1539 57.6923 38.5962 57.6923 46.577Z" fill="#E3B27D"/>
<path d="M62.3075 44.2692C62.3075 52.25 55.8652 58.6923 47.8845 58.6923C39.9037 58.6923 33.4614 52.25 33.4614 44.2692C33.4614 36.2885 27.0191 29.8461 19.0383 29.8461C11.0575 29.8461 4.61523 23.4038 4.61523 15.4231C4.61523 7.44231 11.0575 1 19.0383 1C27.0191 1 33.4614 7.44231 33.4614 15.4231C33.4614 23.4038 39.9037 29.8461 47.8845 29.8461C55.8652 29.8461 62.3075 36.2885 62.3075 44.2692Z" stroke="white" stroke-miterlimit="10"/>
</svg>
