<svg width="184" height="146" viewBox="0 0 184 146" fill="none" xmlns="http://www.w3.org/2000/svg">
<path d="M45.8986 47.6305L16.8001 30.8305L33.6001 1.73206C49.6851 11.0187 55.1852 31.5455 45.8986 47.6305Z" fill="#E3B27D"/>
<path d="M16.8003 30.8306L45.8987 47.6306L29.0987 76.729C13.0138 67.4424 7.56029 46.8347 16.8003 30.8306Z" fill="#E3B27D"/>
<path d="M74.9969 64.4305L45.8984 47.6305L29.0984 76.7289C45.1834 86.0156 65.7569 80.4346 74.9969 64.4305Z" fill="#E3B27D"/>
<path d="M45.8987 47.6306L74.9972 64.4306L91.7972 35.3321C75.7122 26.0454 55.1854 31.5456 45.8987 47.6306Z" fill="#E3B27D"/>
<path d="M104.095 81.2305L74.9969 64.4305L91.7969 35.332C107.882 44.6187 113.382 65.1455 104.095 81.2305Z" fill="#E3B27D"/>
<path d="M133.194 98.0305L162.292 114.831L145.492 143.929C129.407 134.642 123.954 114.035 133.194 98.0305Z" fill="#E3B27D"/>
<path d="M162.293 114.83L133.194 98.0305L149.994 68.932C166.079 78.2187 171.579 98.7455 162.293 114.83Z" fill="#E3B27D"/>
<path d="M104.096 81.2305L133.194 98.0305L149.994 68.9321C133.909 59.6454 113.382 65.1456 104.096 81.2305Z" fill="#E3B27D"/>
<path d="M133.194 98.0305L104.096 81.2305L87.2957 110.329C103.381 119.616 123.954 114.035 133.194 98.0305Z" fill="#E3B27D"/>
<path d="M74.9971 64.4305L104.096 81.2305L87.2955 110.329C71.2105 101.042 65.7571 80.4347 74.9971 64.4305Z" fill="#E3B27D"/>
<path d="M50.3624 47.8985C59.6491 31.8135 54.1489 11.2867 38.064 2L21.264 31.0985" stroke="white"/>
<path d="M21.2642 31.0985C12.0242 47.1027 17.4776 67.7103 33.5626 76.997" stroke="white"/>
<path d="M79.4608 64.6984C70.2208 80.7026 49.6473 86.2836 33.5623 76.9969" stroke="white"/>
<path d="M50.3626 47.8985C59.6493 31.8135 80.1761 26.3134 96.261 35.6" stroke="white"/>
<path d="M108.559 81.4984C117.846 65.4134 112.346 44.8866 96.2607 35.6" stroke="white"/>
<path d="M137.658 98.2985C128.418 114.303 133.871 134.91 149.956 144.197L166.756 115.098" stroke="white"/>
<path d="M166.756 115.098C176.043 99.0134 170.543 78.4866 154.458 69.2" stroke="white"/>
<path d="M108.559 81.4985C117.846 65.4135 138.373 59.9134 154.458 69.2" stroke="white"/>
<path d="M137.658 98.2984C128.418 114.303 107.845 119.884 91.7596 110.597" stroke="white"/>
<path d="M79.4609 64.6985C70.2209 80.7026 75.6744 101.31 91.7594 110.597" stroke="white"/>
</svg>
