<svg width="398" height="348" viewBox="0 0 398 348" fill="none" xmlns="http://www.w3.org/2000/svg">
<path d="M27.2 7.49999C34.6 7.49999 41.0667 8.93333 46.6 11.8C52.2 14.6 56.5 18.6667 59.5 24C62.5667 29.2667 64.1 35.4333 64.1 42.5C64.1 49.5667 62.5667 55.7 59.5 60.9C56.5 66.1 52.2 70.1 46.6 72.9C41.0667 75.6333 34.6 77 27.2 77H4.5V7.49999H27.2ZM27.2 67.7C35.3333 67.7 41.5667 65.5 45.9 61.1C50.2333 56.7 52.4 50.5 52.4 42.5C52.4 34.4333 50.2333 28.1333 45.9 23.6C41.5667 19.0667 35.3333 16.8 27.2 16.8H15.9V67.7H27.2ZM81.1984 14.6C79.1318 14.6 77.3984 13.9 75.9984 12.5C74.5984 11.1 73.8984 9.36667 73.8984 7.3C73.8984 5.23333 74.5984 3.5 75.9984 2.1C77.3984 0.699997 79.1318 -4.05312e-06 81.1984 -4.05312e-06C83.1984 -4.05312e-06 84.8984 0.699997 86.2984 2.1C87.6984 3.5 88.3984 5.23333 88.3984 7.3C88.3984 9.36667 87.6984 11.1 86.2984 12.5C84.8984 13.9 83.1984 14.6 81.1984 14.6ZM86.7984 21.9V77H75.3984V21.9H86.7984ZM123.966 21C128.232 21 131.999 21.8667 135.266 23.6C138.599 25.2667 141.199 27.3667 143.066 29.9V21.9H154.566V77.9C154.566 82.9667 153.499 87.4667 151.366 91.4C149.232 95.4 146.132 98.5333 142.066 100.8C138.066 103.067 133.266 104.2 127.666 104.2C120.199 104.2 113.999 102.433 109.066 98.9C104.132 95.4333 101.332 90.7 100.666 84.7H111.966C112.832 87.5667 114.666 89.8667 117.466 91.6C120.332 93.4 123.732 94.3 127.666 94.3C132.266 94.3 135.966 92.9 138.766 90.1C141.632 87.3 143.066 83.2333 143.066 77.9V68.7C141.132 71.3 138.499 73.5 135.166 75.3C131.899 77.0333 128.166 77.9 123.966 77.9C119.166 77.9 114.766 76.7 110.766 74.3C106.832 71.8333 103.699 68.4333 101.366 64.1C99.099 59.7 97.9656 54.7333 97.9656 49.2C97.9656 43.6667 99.099 38.7667 101.366 34.5C103.699 30.2333 106.832 26.9333 110.766 24.6C114.766 22.2 119.166 21 123.966 21ZM143.066 49.4C143.066 45.6 142.266 42.3 140.666 39.5C139.132 36.7 137.099 34.5667 134.566 33.1C132.032 31.6333 129.299 30.9 126.366 30.9C123.432 30.9 120.699 31.6333 118.166 33.1C115.632 34.5 113.566 36.6 111.966 39.4C110.432 42.1333 109.666 45.4 109.666 49.2C109.666 53 110.432 56.3333 111.966 59.2C113.566 62.0667 115.632 64.2667 118.166 65.8C120.766 67.2667 123.499 68 126.366 68C129.299 68 132.032 67.2667 134.566 65.8C137.099 64.3333 139.132 62.2 140.666 59.4C142.266 56.5333 143.066 53.2 143.066 49.4ZM175.339 14.6C173.272 14.6 171.539 13.9 170.139 12.5C168.739 11.1 168.039 9.36667 168.039 7.3C168.039 5.23333 168.739 3.5 170.139 2.1C171.539 0.699997 173.272 -4.05312e-06 175.339 -4.05312e-06C177.339 -4.05312e-06 179.039 0.699997 180.439 2.1C181.839 3.5 182.539 5.23333 182.539 7.3C182.539 9.36667 181.839 11.1 180.439 12.5C179.039 13.9 177.339 14.6 175.339 14.6ZM180.939 21.9V77H169.539V21.9H180.939ZM209.206 31.2V61.7C209.206 63.7667 209.673 65.2667 210.606 66.2C211.606 67.0667 213.273 67.5 215.606 67.5H222.606V77H213.606C208.473 77 204.54 75.8 201.806 73.4C199.073 71 197.706 67.1 197.706 61.7V31.2H191.206V21.9H197.706V8.2H209.206V21.9H222.606V31.2H209.206ZM229.313 49.2C229.313 43.6667 230.447 38.7667 232.713 34.5C235.047 30.2333 238.18 26.9333 242.113 24.6C246.113 22.2 250.513 21 255.313 21C259.647 21 263.413 21.8667 266.613 23.6C269.88 25.2667 272.48 27.3667 274.413 29.9V21.9H285.913V77H274.413V68.8C272.48 71.4 269.847 73.5667 266.513 75.3C263.18 77.0333 259.38 77.9 255.113 77.9C250.38 77.9 246.047 76.7 242.113 74.3C238.18 71.8333 235.047 68.4333 232.713 64.1C230.447 59.7 229.313 54.7333 229.313 49.2ZM274.413 49.4C274.413 45.6 273.613 42.3 272.013 39.5C270.48 36.7 268.447 34.5667 265.913 33.1C263.38 31.6333 260.647 30.9 257.713 30.9C254.78 30.9 252.047 31.6333 249.513 33.1C246.98 34.5 244.913 36.6 243.313 39.4C241.78 42.1333 241.013 45.4 241.013 49.2C241.013 53 241.78 56.3333 243.313 59.2C244.913 62.0667 246.98 64.2667 249.513 65.8C252.113 67.2667 254.847 68 257.713 68C260.647 68 263.38 67.2667 265.913 65.8C268.447 64.3333 270.48 62.2 272.013 59.4C273.613 56.5333 274.413 53.2 274.413 49.4ZM312.287 3V77H300.887V3H312.287ZM46.4 197.8H17.3L12.3 212H0.4L25.3 142.4H38.5L63.4 212H51.4L46.4 197.8ZM43.2 188.5L31.9 156.2L20.5 188.5H43.2ZM96.4266 156C100.693 156 104.46 156.867 107.727 158.6C111.06 160.267 113.66 162.367 115.527 164.9V156.9H127.027V212.9C127.027 217.967 125.96 222.467 123.827 226.4C121.693 230.4 118.593 233.533 114.527 235.8C110.527 238.067 105.727 239.2 100.127 239.2C92.6599 239.2 86.4599 237.433 81.5266 233.9C76.5932 230.433 73.7932 225.7 73.1266 219.7H84.4266C85.2932 222.567 87.1266 224.867 89.9266 226.6C92.7932 228.4 96.1932 229.3 100.127 229.3C104.727 229.3 108.427 227.9 111.227 225.1C114.093 222.3 115.527 218.233 115.527 212.9V203.7C113.593 206.3 110.96 208.5 107.627 210.3C104.36 212.033 100.627 212.9 96.4266 212.9C91.6266 212.9 87.2266 211.7 83.2266 209.3C79.2932 206.833 76.1599 203.433 73.8266 199.1C71.5599 194.7 70.4266 189.733 70.4266 184.2C70.4266 178.667 71.5599 173.767 73.8266 169.5C76.1599 165.233 79.2932 161.933 83.2266 159.6C87.2266 157.2 91.6266 156 96.4266 156ZM115.527 184.4C115.527 180.6 114.727 177.3 113.127 174.5C111.593 171.7 109.56 169.567 107.027 168.1C104.493 166.633 101.76 165.9 98.8266 165.9C95.8932 165.9 93.1599 166.633 90.6266 168.1C88.0932 169.5 86.0266 171.6 84.4266 174.4C82.8932 177.133 82.1266 180.4 82.1266 184.2C82.1266 188 82.8932 191.333 84.4266 194.2C86.0266 197.067 88.0932 199.267 90.6266 200.8C93.2266 202.267 95.9599 203 98.8266 203C101.76 203 104.493 202.267 107.027 200.8C109.56 199.333 111.593 197.2 113.127 194.4C114.727 191.533 115.527 188.2 115.527 184.4ZM192.5 183.1C192.5 185.167 192.367 187.033 192.1 188.7H150C150.333 193.1 151.967 196.633 154.9 199.3C157.833 201.967 161.433 203.3 165.7 203.3C171.833 203.3 176.167 200.733 178.7 195.6H191C189.333 200.667 186.3 204.833 181.9 208.1C177.567 211.3 172.167 212.9 165.7 212.9C160.433 212.9 155.7 211.733 151.5 209.4C147.367 207 144.1 203.667 141.7 199.4C139.367 195.067 138.2 190.067 138.2 184.4C138.2 178.733 139.333 173.767 141.6 169.5C143.933 165.167 147.167 161.833 151.3 159.5C155.5 157.167 160.3 156 165.7 156C170.9 156 175.533 157.133 179.6 159.4C183.667 161.667 186.833 164.867 189.1 169C191.367 173.067 192.5 177.767 192.5 183.1ZM180.6 179.5C180.533 175.3 179.033 171.933 176.1 169.4C173.167 166.867 169.533 165.6 165.2 165.6C161.267 165.6 157.9 166.867 155.1 169.4C152.3 171.867 150.633 175.233 150.1 179.5H180.6ZM231.519 156C235.852 156 239.719 156.9 243.119 158.7C246.585 160.5 249.285 163.167 251.219 166.7C253.152 170.233 254.119 174.5 254.119 179.5V212H242.819V181.2C242.819 176.267 241.585 172.5 239.119 169.9C236.652 167.233 233.285 165.9 229.019 165.9C224.752 165.9 221.352 167.233 218.819 169.9C216.352 172.5 215.119 176.267 215.119 181.2V212H203.719V156.9H215.119V163.2C216.985 160.933 219.352 159.167 222.219 157.9C225.152 156.633 228.252 156 231.519 156ZM264.86 184.4C264.86 178.733 265.993 173.767 268.26 169.5C270.593 165.167 273.793 161.833 277.86 159.5C281.927 157.167 286.593 156 291.86 156C298.527 156 304.027 157.6 308.36 160.8C312.76 163.933 315.727 168.433 317.26 174.3H304.96C303.96 171.567 302.36 169.433 300.16 167.9C297.96 166.367 295.193 165.6 291.86 165.6C287.193 165.6 283.46 167.267 280.66 170.6C277.927 173.867 276.56 178.467 276.56 184.4C276.56 190.333 277.927 194.967 280.66 198.3C283.46 201.633 287.193 203.3 291.86 203.3C298.46 203.3 302.827 200.4 304.96 194.6H317.26C315.66 200.2 312.66 204.667 308.26 208C303.86 211.267 298.393 212.9 291.86 212.9C286.593 212.9 281.927 211.733 277.86 209.4C273.793 207 270.593 203.667 268.26 199.4C265.993 195.067 264.86 190.067 264.86 184.4ZM378.221 156.9L344.421 237.9H332.621L343.821 211.1L322.121 156.9H334.821L350.321 198.9L366.421 156.9H378.221ZM27.4 347.7C22.7333 347.7 18.5333 346.9 14.8 345.3C11.0667 343.633 8.13333 341.3 6 338.3C3.86667 335.3 2.8 331.8 2.8 327.8H15C15.2667 330.8 16.4333 333.267 18.5 335.2C20.6333 337.133 23.6 338.1 27.4 338.1C31.3333 338.1 34.4 337.167 36.6 335.3C38.8 333.367 39.9 330.9 39.9 327.9C39.9 325.567 39.2 323.667 37.8 322.2C36.4667 320.733 34.7667 319.6 32.7 318.8C30.7 318 27.9 317.133 24.3 316.2C19.7667 315 16.0667 313.8 13.2 312.6C10.4 311.333 8 309.4 6 306.8C4 304.2 3 300.733 3 296.4C3 292.4 4 288.9 6 285.9C8 282.9 10.8 280.6 14.4 279C18 277.4 22.1667 276.6 26.9 276.6C33.6333 276.6 39.1333 278.3 43.4 281.7C47.7333 285.033 50.1333 289.633 50.6 295.5H38C37.8 292.967 36.6 290.8 34.4 289C32.2 287.2 29.3 286.3 25.7 286.3C22.4333 286.3 19.7667 287.133 17.7 288.8C15.6333 290.467 14.6 292.867 14.6 296C14.6 298.133 15.2333 299.9 16.5 301.3C17.8333 302.633 19.5 303.7 21.5 304.5C23.5 305.3 26.2333 306.167 29.7 307.1C34.3 308.367 38.0333 309.633 40.9 310.9C43.8333 312.167 46.3 314.133 48.3 316.8C50.3667 319.4 51.4 322.9 51.4 327.3C51.4 330.833 50.4333 334.167 48.5 337.3C46.6333 340.433 43.8667 342.967 40.2 344.9C36.6 346.767 32.3333 347.7 27.4 347.7ZM88.7516 347.9C83.5516 347.9 78.8516 346.733 74.6516 344.4C70.4516 342 67.1516 338.667 64.7516 334.4C62.3516 330.067 61.1516 325.067 61.1516 319.4C61.1516 313.8 62.3849 308.833 64.8516 304.5C67.3182 300.167 70.6849 296.833 74.9516 294.5C79.2182 292.167 83.9849 291 89.2516 291C94.5182 291 99.2849 292.167 103.552 294.5C107.818 296.833 111.185 300.167 113.652 304.5C116.118 308.833 117.352 313.8 117.352 319.4C117.352 325 116.085 329.967 113.552 334.3C111.018 338.633 107.552 342 103.152 344.4C98.8182 346.733 94.0182 347.9 88.7516 347.9ZM88.7516 338C91.6849 338 94.4182 337.3 96.9516 335.9C99.5516 334.5 101.652 332.4 103.252 329.6C104.852 326.8 105.652 323.4 105.652 319.4C105.652 315.4 104.885 312.033 103.352 309.3C101.818 306.5 99.7849 304.4 97.2516 303C94.7182 301.6 91.9849 300.9 89.0516 300.9C86.1182 300.9 83.3849 301.6 80.8516 303C78.3849 304.4 76.4182 306.5 74.9516 309.3C73.4849 312.033 72.7516 315.4 72.7516 319.4C72.7516 325.333 74.2516 329.933 77.2516 333.2C80.3182 336.4 84.1516 338 88.7516 338ZM140.021 273V347H128.621V273H140.021ZM204.888 291.9V347H193.488V340.5C191.688 342.767 189.322 344.567 186.388 345.9C183.522 347.167 180.455 347.8 177.188 347.8C172.855 347.8 168.955 346.9 165.488 345.1C162.088 343.3 159.388 340.633 157.388 337.1C155.455 333.567 154.488 329.3 154.488 324.3V291.9H165.788V322.6C165.788 327.533 167.022 331.333 169.488 334C171.955 336.6 175.322 337.9 179.588 337.9C183.855 337.9 187.222 336.6 189.688 334C192.222 331.333 193.488 327.533 193.488 322.6V291.9H204.888ZM233.23 301.2V331.7C233.23 333.767 233.696 335.267 234.63 336.2C235.63 337.067 237.296 337.5 239.63 337.5H246.63V347H237.63C232.496 347 228.563 345.8 225.83 343.4C223.096 341 221.73 337.1 221.73 331.7V301.2H215.23V291.9H221.73V278.2H233.23V291.9H246.63V301.2H233.23ZM262.937 284.6C260.87 284.6 259.137 283.9 257.737 282.5C256.337 281.1 255.637 279.367 255.637 277.3C255.637 275.233 256.337 273.5 257.737 272.1C259.137 270.7 260.87 270 262.937 270C264.937 270 266.637 270.7 268.037 272.1C269.437 273.5 270.137 275.233 270.137 277.3C270.137 279.367 269.437 281.1 268.037 282.5C266.637 283.9 264.937 284.6 262.937 284.6ZM268.537 291.9V347H257.137V291.9H268.537ZM307.404 347.9C302.204 347.9 297.504 346.733 293.304 344.4C289.104 342 285.804 338.667 283.404 334.4C281.004 330.067 279.804 325.067 279.804 319.4C279.804 313.8 281.037 308.833 283.504 304.5C285.971 300.167 289.337 296.833 293.604 294.5C297.871 292.167 302.637 291 307.904 291C313.171 291 317.937 292.167 322.204 294.5C326.471 296.833 329.837 300.167 332.304 304.5C334.771 308.833 336.004 313.8 336.004 319.4C336.004 325 334.737 329.967 332.204 334.3C329.671 338.633 326.204 342 321.804 344.4C317.471 346.733 312.671 347.9 307.404 347.9ZM307.404 338C310.337 338 313.071 337.3 315.604 335.9C318.204 334.5 320.304 332.4 321.904 329.6C323.504 326.8 324.304 323.4 324.304 319.4C324.304 315.4 323.537 312.033 322.004 309.3C320.471 306.5 318.437 304.4 315.904 303C313.371 301.6 310.637 300.9 307.704 300.9C304.771 300.9 302.037 301.6 299.504 303C297.037 304.4 295.071 306.5 293.604 309.3C292.137 312.033 291.404 315.4 291.404 319.4C291.404 325.333 292.904 329.933 295.904 333.2C298.971 336.4 302.804 338 307.404 338ZM375.073 291C379.407 291 383.273 291.9 386.673 293.7C390.14 295.5 392.84 298.167 394.773 301.7C396.707 305.233 397.673 309.5 397.673 314.5V347H386.373V316.2C386.373 311.267 385.14 307.5 382.673 304.9C380.207 302.233 376.84 300.9 372.573 300.9C368.307 300.9 364.907 302.233 362.373 304.9C359.907 307.5 358.673 311.267 358.673 316.2V347H347.273V291.9H358.673V298.2C360.54 295.933 362.907 294.167 365.773 292.9C368.707 291.633 371.807 291 375.073 291Z" fill="white"/>
</svg>
