<svg width="148" height="14" viewBox="0 0 148 14" fill="none" xmlns="http://www.w3.org/2000/svg">
<path d="M3.589 11.156C2.887 11.156 2.263 11.0087 1.717 10.714C1.17967 10.4193 0.759333 10.0163 0.456 9.505C0.161333 8.985 0.014 8.39567 0.014 7.737V1.315H1.301V7.711C1.301 8.153 1.39633 8.54733 1.587 8.894C1.78633 9.232 2.055 9.49633 2.393 9.687C2.73967 9.87767 3.13833 9.973 3.589 9.973C4.03967 9.973 4.434 9.87767 4.772 9.687C5.11867 9.49633 5.38733 9.232 5.578 8.894C5.77733 8.54733 5.877 8.153 5.877 7.711V1.315H7.164V7.737C7.164 8.39567 7.01233 8.985 6.709 9.505C6.41433 10.0163 5.99833 10.4193 5.461 10.714C4.92367 11.0087 4.29967 11.156 3.589 11.156ZM9.25771 11V1.315H10.5317V11H9.25771ZM14.9325 11V1.315H18.1045C19.0838 1.315 19.9375 1.51433 20.6655 1.913C21.3935 2.31167 21.9568 2.875 22.3555 3.603C22.7542 4.32233 22.9535 5.17167 22.9535 6.151C22.9535 7.12167 22.7542 7.971 22.3555 8.699C21.9568 9.427 21.3935 9.99467 20.6655 10.402C19.9375 10.8007 19.0838 11 18.1045 11H14.9325ZM16.2065 9.83H18.1175C18.8368 9.83 19.4565 9.67833 19.9765 9.375C20.5052 9.07167 20.9125 8.647 21.1985 8.101C21.4845 7.54633 21.6275 6.89633 21.6275 6.151C21.6275 5.397 21.4802 4.747 21.1855 4.201C20.8995 3.655 20.4922 3.23467 19.9635 2.94C19.4435 2.63667 18.8282 2.485 18.1175 2.485H16.2065V9.83ZM27.6493 11.156C26.9733 11.156 26.3709 10.9957 25.8423 10.675C25.3136 10.3543 24.8976 9.91667 24.5943 9.362C24.2909 8.79867 24.1393 8.17033 24.1393 7.477C24.1393 6.775 24.2866 6.151 24.5813 5.605C24.8846 5.059 25.2919 4.63 25.8033 4.318C26.3233 3.99733 26.9039 3.837 27.5453 3.837C28.0653 3.837 28.5246 3.93233 28.9233 4.123C29.3306 4.305 29.6729 4.55633 29.9503 4.877C30.2363 5.189 30.4529 5.54867 30.6003 5.956C30.7563 6.35467 30.8343 6.77067 30.8343 7.204C30.8343 7.29933 30.8256 7.40767 30.8083 7.529C30.7996 7.64167 30.7866 7.75 30.7693 7.854H25.0233V6.814H30.0673L29.4953 7.282C29.5733 6.83133 29.5299 6.42833 29.3653 6.073C29.2006 5.71767 28.9579 5.436 28.6373 5.228C28.3166 5.02 27.9526 4.916 27.5453 4.916C27.1379 4.916 26.7653 5.02 26.4273 5.228C26.0893 5.436 25.8249 5.735 25.6343 6.125C25.4523 6.50633 25.3786 6.96133 25.4133 7.49C25.3786 8.00133 25.4566 8.452 25.6473 8.842C25.8466 9.22333 26.1239 9.52233 26.4793 9.739C26.8433 9.947 27.2376 10.051 27.6623 10.051C28.1303 10.051 28.5246 9.94267 28.8453 9.726C29.1659 9.50933 29.4259 9.232 29.6253 8.894L30.6393 9.414C30.5006 9.73467 30.2839 10.0293 29.9893 10.298C29.7033 10.558 29.3609 10.766 28.9623 10.922C28.5723 11.078 28.1346 11.156 27.6493 11.156ZM34.9196 11.156C34.2176 11.156 33.6066 10.9827 33.0866 10.636C32.5666 10.2893 32.1983 9.82133 31.9816 9.232L32.9436 8.764C33.1429 9.18 33.4159 9.50933 33.7626 9.752C34.1093 9.99467 34.4949 10.116 34.9196 10.116C35.3009 10.116 35.6173 10.025 35.8686 9.843C36.1199 9.661 36.2456 9.42267 36.2456 9.128C36.2456 8.92 36.1849 8.75533 36.0636 8.634C35.9509 8.504 35.8123 8.40433 35.6476 8.335C35.4829 8.257 35.3313 8.20067 35.1926 8.166L34.1396 7.867C33.5069 7.685 33.0433 7.425 32.7486 7.087C32.4626 6.749 32.3196 6.35467 32.3196 5.904C32.3196 5.488 32.4236 5.12833 32.6316 4.825C32.8483 4.513 33.1386 4.27033 33.5026 4.097C33.8753 3.92367 34.2913 3.837 34.7506 3.837C35.3659 3.837 35.9163 3.993 36.4016 4.305C36.8956 4.617 37.2466 5.05467 37.4546 5.618L36.4666 6.073C36.3106 5.709 36.0766 5.423 35.7646 5.215C35.4526 4.99833 35.1016 4.89 34.7116 4.89C34.3563 4.89 34.0746 4.981 33.8666 5.163C33.6586 5.33633 33.5546 5.55733 33.5546 5.826C33.5546 6.02533 33.6066 6.19 33.7106 6.32C33.8146 6.44133 33.9403 6.53667 34.0876 6.606C34.2349 6.66667 34.3779 6.71867 34.5166 6.762L35.6606 7.1C36.2326 7.26467 36.6746 7.52033 36.9866 7.867C37.3073 8.21367 37.4676 8.62967 37.4676 9.115C37.4676 9.505 37.3593 9.856 37.1426 10.168C36.9259 10.48 36.6269 10.7227 36.2456 10.896C35.8643 11.0693 35.4223 11.156 34.9196 11.156ZM39.0503 11V3.993H40.2593V11H39.0503ZM39.0503 2.875V1.315H40.2593V2.875H39.0503ZM45.4762 13.86C44.9822 13.86 44.5229 13.782 44.0982 13.626C43.6822 13.47 43.3226 13.2533 43.0192 12.976C42.7246 12.7073 42.4992 12.391 42.3432 12.027L43.4742 11.507C43.5956 11.8363 43.8252 12.1137 44.1632 12.339C44.5099 12.573 44.9432 12.69 45.4632 12.69C45.8619 12.69 46.2216 12.612 46.5422 12.456C46.8716 12.3087 47.1316 12.0833 47.3222 11.78C47.5129 11.4853 47.6082 11.1257 47.6082 10.701V9.128L47.8292 9.362C47.5866 9.83867 47.2356 10.2027 46.7762 10.454C46.3256 10.7053 45.8272 10.831 45.2812 10.831C44.6226 10.831 44.0332 10.6793 43.5132 10.376C42.9932 10.064 42.5859 9.64367 42.2912 9.115C41.9966 8.57767 41.8492 7.984 41.8492 7.334C41.8492 6.67533 41.9966 6.08167 42.2912 5.553C42.5859 5.02433 42.9889 4.60833 43.5002 4.305C44.0202 3.993 44.6096 3.837 45.2682 3.837C45.8142 3.837 46.3082 3.96267 46.7502 4.214C47.2009 4.45667 47.5606 4.79467 47.8292 5.228L47.6472 5.553V3.993H48.8302V10.701C48.8302 11.3077 48.6872 11.8493 48.4012 12.326C48.1152 12.8027 47.7166 13.1753 47.2052 13.444C46.7026 13.7213 46.1262 13.86 45.4762 13.86ZM45.3852 9.661C45.8012 9.661 46.1739 9.557 46.5032 9.349C46.8412 9.141 47.1099 8.86367 47.3092 8.517C47.5086 8.16167 47.6082 7.76733 47.6082 7.334C47.6082 6.90933 47.5086 6.51933 47.3092 6.164C47.1099 5.80867 46.8412 5.527 46.5032 5.319C46.1739 5.111 45.8012 5.007 45.3852 5.007C44.9606 5.007 44.5749 5.111 44.2282 5.319C43.8816 5.527 43.6086 5.80867 43.4092 6.164C43.2186 6.51067 43.1232 6.90067 43.1232 7.334C43.1232 7.76733 43.2186 8.16167 43.4092 8.517C43.6086 8.86367 43.8772 9.141 44.2152 9.349C44.5619 9.557 44.9519 9.661 45.3852 9.661ZM50.7046 11V3.993H51.8876V5.358L51.6926 5.241C51.8659 4.799 52.1432 4.45667 52.5246 4.214C52.9146 3.96267 53.3696 3.837 53.8896 3.837C54.3922 3.837 54.8386 3.94967 55.2286 4.175C55.6272 4.40033 55.9392 4.71233 56.1646 5.111C56.3986 5.50967 56.5156 5.96033 56.5156 6.463V11H55.2936V6.853C55.2936 6.463 55.2242 6.13367 55.0856 5.865C54.9469 5.59633 54.7476 5.38833 54.4876 5.241C54.2362 5.085 53.9459 5.007 53.6166 5.007C53.2872 5.007 52.9926 5.085 52.7326 5.241C52.4812 5.38833 52.2819 5.60067 52.1346 5.878C51.9872 6.14667 51.9136 6.47167 51.9136 6.853V11H50.7046ZM63.3247 13.47V0.0149996H64.5987V13.47H63.3247Z" fill="#888888"/>
<path d="M75.1753 11V2.42H73.3423V1.315H76.4623V11H75.1753ZM81.7252 11.156C81.2225 11.156 80.7502 11.0693 80.3082 10.896C79.8662 10.714 79.4805 10.4583 79.1512 10.129C78.8305 9.791 78.5965 9.39667 78.4492 8.946L79.4892 8.504C79.6712 8.98067 79.9659 9.35333 80.3732 9.622C80.7892 9.882 81.2399 10.012 81.7252 10.012C82.1239 10.012 82.4749 9.92533 82.7782 9.752C83.0902 9.57 83.3329 9.323 83.5062 9.011C83.6795 8.69033 83.7662 8.335 83.7662 7.945C83.7662 7.53767 83.6752 7.178 83.4932 6.866C83.3199 6.554 83.0815 6.31133 82.7782 6.138C82.4749 5.956 82.1282 5.865 81.7382 5.865C81.3395 5.865 80.9755 5.956 80.6462 6.138C80.3169 6.32 80.0785 6.54967 79.9312 6.827L78.9042 6.606L79.6452 1.315H84.6632V2.42H80.1262L80.6202 1.926L80.0482 6.034L79.6062 5.774C79.8922 5.41 80.2259 5.15 80.6072 4.994C80.9972 4.82933 81.4175 4.747 81.8682 4.747C82.5009 4.747 83.0555 4.89 83.5322 5.176C84.0089 5.462 84.3815 5.84333 84.6502 6.32C84.9189 6.79667 85.0532 7.33833 85.0532 7.945C85.0532 8.55167 84.9059 9.09767 84.6112 9.583C84.3252 10.0683 83.9309 10.454 83.4282 10.74C82.9342 11.0173 82.3665 11.156 81.7252 11.156ZM89.162 11V1.315H92.334C93.3133 1.315 94.167 1.51433 94.895 1.913C95.623 2.31167 96.1863 2.875 96.585 3.603C96.9837 4.32233 97.183 5.17167 97.183 6.151C97.183 7.12167 96.9837 7.971 96.585 8.699C96.1863 9.427 95.623 9.99467 94.895 10.402C94.167 10.8007 93.3133 11 92.334 11H89.162ZM90.436 9.83H92.347C93.0663 9.83 93.686 9.67833 94.206 9.375C94.7347 9.07167 95.142 8.647 95.428 8.101C95.714 7.54633 95.857 6.89633 95.857 6.151C95.857 5.397 95.7097 4.747 95.415 4.201C95.129 3.655 94.7217 3.23467 94.193 2.94C93.673 2.63667 93.0577 2.485 92.347 2.485H90.436V9.83ZM101.879 11.156C101.203 11.156 100.6 10.9957 100.072 10.675C99.5431 10.3543 99.1271 9.91667 98.8238 9.362C98.5204 8.79867 98.3688 8.17033 98.3688 7.477C98.3688 6.775 98.5161 6.151 98.8108 5.605C99.1141 5.059 99.5214 4.63 100.033 4.318C100.553 3.99733 101.133 3.837 101.775 3.837C102.295 3.837 102.754 3.93233 103.153 4.123C103.56 4.305 103.902 4.55633 104.18 4.877C104.466 5.189 104.682 5.54867 104.83 5.956C104.986 6.35467 105.064 6.77067 105.064 7.204C105.064 7.29933 105.055 7.40767 105.038 7.529C105.029 7.64167 105.016 7.75 104.999 7.854H99.2528V6.814H104.297L103.725 7.282C103.803 6.83133 103.759 6.42833 103.595 6.073C103.43 5.71767 103.187 5.436 102.867 5.228C102.546 5.02 102.182 4.916 101.775 4.916C101.367 4.916 100.995 5.02 100.657 5.228C100.319 5.436 100.054 5.735 99.8638 6.125C99.6818 6.50633 99.6081 6.96133 99.6428 7.49C99.6081 8.00133 99.6861 8.452 99.8768 8.842C100.076 9.22333 100.353 9.52233 100.709 9.739C101.073 9.947 101.467 10.051 101.892 10.051C102.36 10.051 102.754 9.94267 103.075 9.726C103.395 9.50933 103.655 9.232 103.855 8.894L104.869 9.414C104.73 9.73467 104.513 10.0293 104.219 10.298C103.933 10.558 103.59 10.766 103.192 10.922C102.802 11.078 102.364 11.156 101.879 11.156ZM109.89 11.156C109.205 11.156 108.594 10.9957 108.057 10.675C107.528 10.3543 107.112 9.91667 106.809 9.362C106.506 8.80733 106.354 8.18333 106.354 7.49C106.354 6.788 106.506 6.164 106.809 5.618C107.112 5.072 107.528 4.63867 108.057 4.318C108.594 3.99733 109.205 3.837 109.89 3.837C110.349 3.837 110.778 3.91933 111.177 4.084C111.576 4.24867 111.927 4.46967 112.23 4.747C112.533 5.02433 112.754 5.34933 112.893 5.722L111.814 6.242C111.649 5.878 111.398 5.58333 111.06 5.358C110.722 5.124 110.332 5.007 109.89 5.007C109.465 5.007 109.08 5.11533 108.733 5.332C108.395 5.54867 108.126 5.84333 107.927 6.216C107.728 6.58867 107.628 7.01767 107.628 7.503C107.628 7.971 107.728 8.39567 107.927 8.777C108.126 9.14967 108.395 9.44433 108.733 9.661C109.08 9.87767 109.465 9.986 109.89 9.986C110.332 9.986 110.722 9.87333 111.06 9.648C111.398 9.414 111.649 9.10633 111.814 8.725L112.893 9.271C112.754 9.635 112.533 9.96 112.23 10.246C111.927 10.5233 111.576 10.7443 111.177 10.909C110.778 11.0737 110.349 11.156 109.89 11.156ZM116.486 11V10.116L119.164 7.217C119.693 6.65367 120.113 6.19 120.425 5.826C120.746 5.462 120.98 5.137 121.127 4.851C121.275 4.565 121.348 4.26167 121.348 3.941C121.348 3.41233 121.192 3.005 120.88 2.719C120.568 2.433 120.157 2.29 119.645 2.29C119.125 2.29 118.683 2.44167 118.319 2.745C117.955 3.03967 117.704 3.46 117.565 4.006L116.408 3.707C116.521 3.187 116.729 2.73633 117.032 2.355C117.336 1.97367 117.713 1.679 118.163 1.471C118.614 1.263 119.108 1.159 119.645 1.159C120.235 1.159 120.75 1.276 121.192 1.51C121.643 1.73533 121.994 2.05167 122.245 2.459C122.505 2.86633 122.635 3.33867 122.635 3.876C122.635 4.23133 122.562 4.578 122.414 4.916C122.267 5.254 122.05 5.61367 121.764 5.995C121.478 6.36767 121.106 6.801 120.646 7.295L118.254 9.895H122.843V11H116.486ZM128.285 11.156C127.514 11.156 126.838 10.948 126.257 10.532C125.685 10.1073 125.239 9.52233 124.918 8.777C124.598 8.023 124.437 7.14767 124.437 6.151C124.437 5.15433 124.598 4.28333 124.918 3.538C125.239 2.784 125.685 2.199 126.257 1.783C126.829 1.367 127.501 1.159 128.272 1.159C129.044 1.159 129.715 1.367 130.287 1.783C130.859 2.199 131.306 2.784 131.626 3.538C131.956 4.28333 132.12 5.15433 132.12 6.151C132.12 7.14767 131.96 8.023 131.639 8.777C131.319 9.531 130.868 10.116 130.287 10.532C129.715 10.948 129.048 11.156 128.285 11.156ZM128.285 9.973C128.805 9.973 129.256 9.817 129.637 9.505C130.019 9.18433 130.313 8.738 130.521 8.166C130.738 7.594 130.846 6.92233 130.846 6.151C130.846 5.37967 130.738 4.708 130.521 4.136C130.313 3.564 130.014 3.122 129.624 2.81C129.243 2.498 128.792 2.342 128.272 2.342C127.752 2.342 127.302 2.498 126.92 2.81C126.539 3.122 126.24 3.564 126.023 4.136C125.815 4.708 125.711 5.37967 125.711 6.151C125.711 6.91367 125.815 7.581 126.023 8.153C126.24 8.725 126.539 9.17133 126.92 9.492C127.31 9.81267 127.765 9.973 128.285 9.973ZM133.676 11V10.116L136.354 7.217C136.882 6.65367 137.303 6.19 137.615 5.826C137.935 5.462 138.169 5.137 138.317 4.851C138.464 4.565 138.538 4.26167 138.538 3.941C138.538 3.41233 138.382 3.005 138.07 2.719C137.758 2.433 137.346 2.29 136.835 2.29C136.315 2.29 135.873 2.44167 135.509 2.745C135.145 3.03967 134.893 3.46 134.755 4.006L133.598 3.707C133.71 3.187 133.918 2.73633 134.222 2.355C134.525 1.97367 134.902 1.679 135.353 1.471C135.803 1.263 136.297 1.159 136.835 1.159C137.424 1.159 137.94 1.276 138.382 1.51C138.832 1.73533 139.183 2.05167 139.435 2.459C139.695 2.86633 139.825 3.33867 139.825 3.876C139.825 4.23133 139.751 4.578 139.604 4.916C139.456 5.254 139.24 5.61367 138.954 5.995C138.668 6.36767 138.295 6.801 137.836 7.295L135.444 9.895H140.033V11H133.676ZM141.458 11V10.116L144.136 7.217C144.665 6.65367 145.085 6.19 145.397 5.826C145.718 5.462 145.952 5.137 146.099 4.851C146.246 4.565 146.32 4.26167 146.32 3.941C146.32 3.41233 146.164 3.005 145.852 2.719C145.54 2.433 145.128 2.29 144.617 2.29C144.097 2.29 143.655 2.44167 143.291 2.745C142.927 3.03967 142.676 3.46 142.537 4.006L141.38 3.707C141.493 3.187 141.701 2.73633 142.004 2.355C142.307 1.97367 142.684 1.679 143.135 1.471C143.586 1.263 144.08 1.159 144.617 1.159C145.206 1.159 145.722 1.276 146.164 1.51C146.615 1.73533 146.966 2.05167 147.217 2.459C147.477 2.86633 147.607 3.33867 147.607 3.876C147.607 4.23133 147.533 4.578 147.386 4.916C147.239 5.254 147.022 5.61367 146.736 5.995C146.45 6.36767 146.077 6.801 145.618 7.295L143.226 9.895H147.815V11H141.458Z" fill="#E3B27D"/>
</svg>
