<svg width="300" height="137" viewBox="0 0 300 137" fill="none" xmlns="http://www.w3.org/2000/svg">
<line x1="32" y1="104.5" x2="2" y2="104.5" stroke="white"/>
<path d="M90.5 86.1V121H83.5V98.3L74.15 121H68.85L59.45 98.3V121H52.45V86.1H60.4L71.5 112.05L82.6 86.1H90.5ZM109.721 121.45C107.054 121.45 104.654 120.867 102.521 119.7C100.387 118.5 98.704 116.817 97.4707 114.65C96.2707 112.483 95.6707 109.983 95.6707 107.15C95.6707 104.317 96.2874 101.817 97.5207 99.65C98.7874 97.4833 100.504 95.8167 102.671 94.65C104.837 93.45 107.254 92.85 109.921 92.85C112.587 92.85 115.004 93.45 117.171 94.65C119.337 95.8167 121.037 97.4833 122.271 99.65C123.537 101.817 124.171 104.317 124.171 107.15C124.171 109.983 123.521 112.483 122.221 114.65C120.954 116.817 119.221 118.5 117.021 119.7C114.854 120.867 112.421 121.45 109.721 121.45ZM109.721 115.35C110.987 115.35 112.171 115.05 113.271 114.45C114.404 113.817 115.304 112.883 115.971 111.65C116.637 110.417 116.971 108.917 116.971 107.15C116.971 104.517 116.271 102.5 114.871 101.1C113.504 99.6667 111.821 98.95 109.821 98.95C107.821 98.95 106.137 99.6667 104.771 101.1C103.437 102.5 102.771 104.517 102.771 107.15C102.771 109.783 103.421 111.817 104.721 113.25C106.054 114.65 107.721 115.35 109.721 115.35ZM127.505 107.05C127.505 104.25 128.055 101.767 129.155 99.6C130.289 97.4333 131.822 95.7667 133.755 94.6C135.689 93.4333 137.839 92.85 140.205 92.85C142.005 92.85 143.722 93.25 145.355 94.05C146.989 94.8167 148.289 95.85 149.255 97.15V84H156.355V121H149.255V116.9C148.389 118.267 147.172 119.367 145.605 120.2C144.039 121.033 142.222 121.45 140.155 121.45C137.822 121.45 135.689 120.85 133.755 119.65C131.822 118.45 130.289 116.767 129.155 114.6C128.055 112.4 127.505 109.883 127.505 107.05ZM149.305 107.15C149.305 105.45 148.972 104 148.305 102.8C147.639 101.567 146.739 100.633 145.605 100C144.472 99.3333 143.255 99 141.955 99C140.655 99 139.455 99.3167 138.355 99.95C137.255 100.583 136.355 101.517 135.655 102.75C134.989 103.95 134.655 105.383 134.655 107.05C134.655 108.717 134.989 110.183 135.655 111.45C136.355 112.683 137.255 113.633 138.355 114.3C139.489 114.967 140.689 115.3 141.955 115.3C143.255 115.3 144.472 114.983 145.605 114.35C146.739 113.683 147.639 112.75 148.305 111.55C148.972 110.317 149.305 108.85 149.305 107.15ZM188.942 106.55C188.942 107.55 188.876 108.45 188.742 109.25H168.492C168.659 111.25 169.359 112.817 170.592 113.95C171.826 115.083 173.342 115.65 175.142 115.65C177.742 115.65 179.592 114.533 180.692 112.3H188.242C187.442 114.967 185.909 117.167 183.642 118.9C181.376 120.6 178.592 121.45 175.292 121.45C172.626 121.45 170.226 120.867 168.092 119.7C165.992 118.5 164.342 116.817 163.142 114.65C161.976 112.483 161.392 109.983 161.392 107.15C161.392 104.283 161.976 101.767 163.142 99.6C164.309 97.4333 165.942 95.7667 168.042 94.6C170.142 93.4333 172.559 92.85 175.292 92.85C177.926 92.85 180.276 93.4167 182.342 94.55C184.442 95.6833 186.059 97.3 187.192 99.4C188.359 101.467 188.942 103.85 188.942 106.55ZM181.692 104.55C181.659 102.75 181.009 101.317 179.742 100.25C178.476 99.15 176.926 98.6 175.092 98.6C173.359 98.6 171.892 99.1333 170.692 100.2C169.526 101.233 168.809 102.683 168.542 104.55H181.692ZM201.052 84V121H194.052V84H201.052ZM214.968 84V121H207.968V84H214.968ZM225.434 90C224.2 90 223.167 89.6167 222.334 88.85C221.534 88.05 221.134 87.0667 221.134 85.9C221.134 84.7333 221.534 83.7667 222.334 83C223.167 82.2 224.2 81.8 225.434 81.8C226.667 81.8 227.684 82.2 228.484 83C229.317 83.7667 229.734 84.7333 229.734 85.9C229.734 87.0667 229.317 88.05 228.484 88.85C227.684 89.6167 226.667 90 225.434 90ZM228.884 93.3V121H221.884V93.3H228.884ZM251.15 92.9C254.45 92.9 257.116 93.95 259.15 96.05C261.183 98.1167 262.2 101.017 262.2 104.75V121H255.2V105.7C255.2 103.5 254.65 101.817 253.55 100.65C252.45 99.45 250.95 98.85 249.05 98.85C247.116 98.85 245.583 99.45 244.45 100.65C243.35 101.817 242.8 103.5 242.8 105.7V121H235.8V93.3H242.8V96.75C243.733 95.55 244.916 94.6167 246.35 93.95C247.816 93.25 249.416 92.9 251.15 92.9ZM279.706 92.85C281.773 92.85 283.59 93.2667 285.156 94.1C286.723 94.9 287.956 95.95 288.856 97.25V93.3H295.906V121.2C295.906 123.767 295.39 126.05 294.356 128.05C293.323 130.083 291.773 131.683 289.706 132.85C287.64 134.05 285.14 134.65 282.206 134.65C278.273 134.65 275.04 133.733 272.506 131.9C270.006 130.067 268.59 127.567 268.256 124.4H275.206C275.573 125.667 276.356 126.667 277.556 127.4C278.79 128.167 280.273 128.55 282.006 128.55C284.04 128.55 285.69 127.933 286.956 126.7C288.223 125.5 288.856 123.667 288.856 121.2V116.9C287.956 118.2 286.706 119.283 285.106 120.15C283.54 121.017 281.74 121.45 279.706 121.45C277.373 121.45 275.24 120.85 273.306 119.65C271.373 118.45 269.84 116.767 268.706 114.6C267.606 112.4 267.056 109.883 267.056 107.05C267.056 104.25 267.606 101.767 268.706 99.6C269.84 97.4333 271.356 95.7667 273.256 94.6C275.19 93.4333 277.34 92.85 279.706 92.85ZM288.856 107.15C288.856 105.45 288.523 104 287.856 102.8C287.19 101.567 286.29 100.633 285.156 100C284.023 99.3333 282.806 99 281.506 99C280.206 99 279.006 99.3167 277.906 99.95C276.806 100.583 275.906 101.517 275.206 102.75C274.54 103.95 274.206 105.383 274.206 107.05C274.206 108.717 274.54 110.183 275.206 111.45C275.906 112.683 276.806 113.633 277.906 114.3C279.04 114.967 280.24 115.3 281.506 115.3C282.806 115.3 284.023 114.983 285.156 114.35C286.29 113.683 287.19 112.75 287.856 111.55C288.523 110.317 288.856 108.85 288.856 107.15Z" fill="white"/>
<path d="M10.45 17.1H11.95V15.6H10.45V17.1ZM10.45 52V53.5H11.95V52H10.45ZM3.45 52H1.95V53.5H3.45V52ZM3.45 17.1V15.6H1.95V17.1H3.45ZM8.95 17.1V52H11.95V17.1H8.95ZM10.45 50.5H3.45V53.5H10.45V50.5ZM4.95 52V17.1H1.95V52H4.95ZM3.45 18.6H10.45V15.6H3.45V18.6ZM24.366 15H25.866V13.5H24.366V15ZM24.366 52V53.5H25.866V52H24.366ZM17.366 52H15.866V53.5H17.366V52ZM17.366 15V13.5H15.866V15H17.366ZM22.866 15V52H25.866V15H22.866ZM24.366 50.5H17.366V53.5H24.366V50.5ZM18.866 52V15H15.866V52H18.866ZM17.366 16.5H24.366V13.5H17.366V16.5ZM38.282 15H39.782V13.5H38.282V15ZM38.282 52V53.5H39.782V52H38.282ZM31.282 52H29.782V53.5H31.282V52ZM31.282 15V13.5H29.782V15H31.282ZM36.782 15V52H39.782V15H36.782ZM38.282 50.5H31.282V53.5H38.282V50.5ZM32.782 52V15H29.782V52H32.782ZM31.282 16.5H38.282V13.5H31.282V16.5ZM71.348 24.3H72.848V22.8H71.348V24.3ZM71.348 52V53.5H72.848V52H71.348ZM64.298 52H62.798V53.5H64.298V52ZM64.298 48.5H65.798V44L63.098 47.6L64.298 48.5ZM60.748 51.35L61.3806 52.7101L61.3874 52.7069L61.3941 52.7037L60.748 51.35ZM50.298 51L49.5651 52.3088L49.5752 52.3144L49.5853 52.3199L50.298 51ZM46.348 46.95L45.0164 47.6405L45.0241 47.6553L45.0322 47.67L46.348 46.95ZM44.948 24.3V22.8H43.448V24.3H44.948ZM51.948 24.3H53.448V22.8H51.948V24.3ZM53.598 44.65L52.4923 45.6636L52.4994 45.6714L52.5067 45.679L53.598 44.65ZM62.648 44.65L63.7394 45.679L63.7467 45.6714L63.7538 45.6636L62.648 44.65ZM64.298 24.3V22.8H62.798V24.3H64.298ZM69.848 24.3V52H72.848V24.3H69.848ZM71.348 50.5H64.298V53.5H71.348V50.5ZM65.798 52V48.5H62.798V52H65.798ZM63.098 47.6C62.3553 48.5904 61.3687 49.3917 60.102 49.9963L61.3941 52.7037C63.0607 51.9083 64.4408 50.8096 65.498 49.4L63.098 47.6ZM60.1155 49.9899C58.8949 50.5576 57.5463 50.85 56.048 50.85V53.85C57.9498 53.85 59.7345 53.4757 61.3806 52.7101L60.1155 49.9899ZM56.048 50.85C54.0941 50.85 52.4287 50.4458 51.0108 49.6801L49.5853 52.3199C51.5007 53.3542 53.6687 53.85 56.048 53.85V50.85ZM51.031 49.6912C49.6236 48.9031 48.5031 47.7636 47.6639 46.23L45.0322 47.67C46.1263 49.6697 47.6391 51.2302 49.5651 52.3088L51.031 49.6912ZM47.6797 46.2595C46.8784 44.7143 46.448 42.8278 46.448 40.55H43.448C43.448 43.2056 43.951 45.5857 45.0164 47.6405L47.6797 46.2595ZM46.448 40.55V24.3H43.448V40.55H46.448ZM44.948 25.8H51.948V22.8H44.948V25.8ZM50.448 24.3V39.55H53.448V24.3H50.448ZM50.448 39.55C50.448 41.9914 51.0608 44.102 52.4923 45.6636L54.7038 43.6364C53.9352 42.798 53.448 41.5086 53.448 39.55H50.448ZM52.5067 45.679C53.9423 47.2017 55.8678 47.9 58.098 47.9V44.9C56.5283 44.9 55.4538 44.4317 54.6894 43.621L52.5067 45.679ZM58.098 47.9C60.3528 47.9 62.2987 47.207 63.7394 45.679L61.5567 43.621C60.7974 44.4263 59.7099 44.9 58.098 44.9V47.9ZM63.7538 45.6636C65.1852 44.102 65.798 41.9914 65.798 39.55H62.798C62.798 41.5086 62.3108 42.798 61.5423 43.6364L63.7538 45.6636ZM65.798 39.55V24.3H62.798V39.55H65.798ZM64.298 25.8H71.348V22.8H64.298V25.8ZM82.7547 51.25L82.1245 52.6112L82.135 52.616L82.1455 52.6207L82.7547 51.25ZM78.4547 47.9L77.2478 48.7908L77.2546 48.8L77.2615 48.8091L78.4547 47.9ZM76.7547 43.25V41.75H75.1639L75.2573 43.3381L76.7547 43.25ZM83.8047 43.25L85.2931 43.0639L85.1289 41.75H83.8047V43.25ZM85.3547 45.9L84.4338 47.084L84.4442 47.0921L84.4547 47.1L85.3547 45.9ZM91.9047 46.15L91.0481 44.9186L91.0352 44.9276L91.0224 44.9369L91.9047 46.15ZM91.6547 42.1L90.9642 43.4316L90.9933 43.4467L91.023 43.4605L91.6547 42.1ZM87.3047 40.6L87.6912 39.1506L87.6743 39.1462L87.6574 39.1421L87.3047 40.6ZM82.2047 39.05L81.6353 40.4378L81.6476 40.4427L82.2047 39.05ZM78.8047 36.6L77.6609 37.5705L77.6693 37.5804L77.6779 37.5902L78.8047 36.6ZM78.7047 27.95L77.4819 27.0812L77.4742 27.092L77.4667 27.103L78.7047 27.95ZM82.5047 24.95L81.9006 23.577L81.8903 23.5816L82.5047 24.95ZM96.2547 26.35L95.2849 27.4943L95.2906 27.4992L95.2963 27.5039L96.2547 26.35ZM99.5047 33V34.5H101.116L101.001 32.8931L99.5047 33ZM92.8047 33L91.3109 33.1358L91.4349 34.5H92.8047V33ZM91.4047 30.4L90.4444 31.5523L90.4703 31.5739L90.4971 31.5942L91.4047 30.4ZM85.2047 30.1L84.3726 28.8519L84.3585 28.8614L84.3445 28.8712L85.2047 30.1ZM85.6047 34.2L84.8964 35.5222L84.915 35.5322L84.9339 35.5416L85.6047 34.2ZM89.9547 35.65L89.5851 37.1038L89.5909 37.1052L89.9547 35.65ZM98.2547 39.7L97.0968 40.6536L97.1121 40.6721L97.1279 40.6902L98.2547 39.7ZM99.7547 44.1H101.255V44.0864L101.254 44.0727L99.7547 44.1ZM98.4047 48.4L97.1819 47.5312L97.1742 47.542L97.1667 47.553L98.4047 48.4ZM94.6047 51.4L95.1956 52.7787L95.2022 52.7759L95.2088 52.773L94.6047 51.4ZM88.8547 50.95C86.7664 50.95 84.9453 50.5821 83.3639 49.8793L82.1455 52.6207C84.1641 53.5179 86.4096 53.95 88.8547 53.95V50.95ZM83.3849 49.8888C81.778 49.1449 80.5485 48.1731 79.6478 46.9909L77.2615 48.8091C78.4942 50.4269 80.1313 51.6884 82.1245 52.6112L83.3849 49.8888ZM79.6616 47.0092C78.7968 45.8376 78.3346 44.5652 78.2521 43.1619L75.2573 43.3381C75.3747 45.3348 76.0459 47.1624 77.2478 48.7908L79.6616 47.0092ZM76.7547 44.75H83.8047V41.75H76.7547V44.75ZM82.3163 43.4361C82.5022 44.9233 83.2409 46.1562 84.4338 47.084L86.2756 44.716C85.6685 44.2438 85.3739 43.7101 85.2931 43.0639L82.3163 43.4361ZM84.4547 47.1C85.6903 48.0267 87.1711 48.45 88.8047 48.45V45.45C87.7049 45.45 86.8858 45.1733 86.2547 44.7L84.4547 47.1ZM88.8047 48.45C90.3127 48.45 91.7021 48.1521 92.7869 47.3631L91.0224 44.9369C90.6406 45.2146 89.9633 45.45 88.8047 45.45V48.45ZM92.7613 47.3814C93.8744 46.607 94.5547 45.4895 94.5547 44.1H91.5547C91.5547 44.3771 91.4683 44.6263 91.0481 44.9186L92.7613 47.3814ZM94.5547 44.1C94.5547 43.3763 94.3619 42.6768 93.9335 42.0648C93.5136 41.4649 92.9303 41.0384 92.2864 40.7395L91.023 43.4605C91.3125 43.5949 91.4291 43.7185 91.4758 43.7852C91.5141 43.8398 91.5547 43.9237 91.5547 44.1H94.5547ZM92.3452 40.7684C91.293 40.2228 89.7113 39.6894 87.6912 39.1506L86.9182 42.0494C88.8981 42.5773 90.2163 43.0438 90.9642 43.4316L92.3452 40.7684ZM87.6574 39.1421C85.6306 38.6517 84.0053 38.1547 82.7618 37.6573L81.6476 40.4427C83.0708 41.012 84.8454 41.5483 86.952 42.0579L87.6574 39.1421ZM82.774 37.6622C81.6971 37.2204 80.7521 36.5436 79.9314 35.6098L77.6779 37.5902C78.7906 38.8564 80.1123 39.8129 81.6354 40.4378L82.774 37.6622ZM79.9484 35.6295C79.3057 34.872 78.9047 33.7677 78.9047 32.15H75.9047C75.9047 34.2656 76.437 36.128 77.6609 37.5705L79.9484 35.6295ZM78.9047 32.15C78.9047 30.9193 79.2465 29.8145 79.9426 28.797L77.4667 27.103C76.4295 28.6189 75.9047 30.3141 75.9047 32.15H78.9047ZM79.9275 28.8188C80.6505 27.8012 81.6917 26.9592 83.1191 26.3184L81.8903 23.5816C80.051 24.4074 78.5589 25.5654 77.4819 27.0812L79.9275 28.8188ZM83.1088 26.323C84.5471 25.6901 86.2834 25.35 88.3547 25.35V22.35C85.9593 22.35 83.7956 22.7432 81.9006 23.577L83.1088 26.323ZM88.3547 25.35C91.4013 25.35 93.6579 26.1155 95.2849 27.4943L97.2245 25.2057C94.9182 23.2512 91.9081 22.35 88.3547 22.35V25.35ZM95.2963 27.5039C96.916 28.8491 97.8345 30.6704 98.0085 33.1069L101.001 32.8931C100.775 29.7296 99.5267 27.1176 97.213 25.1961L95.2963 27.5039ZM99.5047 31.5H92.8047V34.5H99.5047V31.5ZM94.2985 32.8642C94.1628 31.3709 93.5013 30.1094 92.3123 29.2058L90.4971 31.5942C90.9747 31.9573 91.2466 32.4291 91.3109 33.1358L94.2985 32.8642ZM92.365 29.2477C91.221 28.2943 89.7613 27.9 88.1547 27.9V30.9C89.2814 30.9 89.9884 31.1723 90.4444 31.5523L92.365 29.2477ZM88.1547 27.9C86.7322 27.9 85.4144 28.1574 84.3726 28.8519L86.0367 31.3481C86.395 31.1092 87.0439 30.9 88.1547 30.9V27.9ZM84.3445 28.8712C83.2655 29.6265 82.7047 30.7412 82.7047 32.05H85.7047C85.7047 31.6921 85.8106 31.5069 86.0649 31.3288L84.3445 28.8712ZM82.7047 32.05C82.7047 32.7796 82.8913 33.482 83.2977 34.106C83.6977 34.7204 84.2596 35.1811 84.8964 35.5222L86.313 32.8778C86.0164 32.7189 85.8783 32.5713 85.8117 32.469C85.7514 32.3764 85.7047 32.2537 85.7047 32.05H82.7047ZM84.9339 35.5416C86.0155 36.0825 87.5924 36.5971 89.5851 37.1038L90.3243 34.1962C88.3836 33.7029 87.0605 33.2509 86.2755 32.8584L84.9339 35.5416ZM89.5909 37.1052C91.55 37.595 93.1251 38.0913 94.3354 38.5878L95.474 35.8122C94.0842 35.2421 92.3594 34.705 90.3185 34.1948L89.5909 37.1052ZM94.3354 38.5878C95.3959 39.0229 96.3135 39.7024 97.0968 40.6536L99.4126 38.7464C98.3292 37.4309 97.0134 36.4438 95.474 35.8122L94.3354 38.5878ZM97.1279 40.6902C97.8058 41.4615 98.2264 42.5567 98.2549 44.1273L101.254 44.0727C101.216 41.9766 100.637 40.1385 99.3814 38.7098L97.1279 40.6902ZM98.2547 44.1C98.2547 45.3985 97.8959 46.5263 97.1819 47.5312L99.6275 49.2688C100.713 47.7404 101.255 46.0015 101.255 44.1H98.2547ZM97.1667 47.553C96.4855 48.5486 95.4593 49.3852 94.0006 50.027L95.2088 52.773C97.0834 51.9482 98.5906 50.7847 99.6426 49.247L97.1667 47.553ZM94.0138 50.0213C92.606 50.6246 90.8985 50.95 88.8547 50.95V53.95C91.2109 53.95 93.3367 53.5754 95.1956 52.7787L94.0138 50.0213ZM113.651 30.05V28.55H112.151V30.05H113.651ZM114.301 45.5L113.24 46.5607L113.281 46.6014L113.325 46.6389L114.301 45.5ZM119.851 46.1H121.351V44.6H119.851V46.1ZM119.851 52V53.5H121.351V52H119.851ZM106.601 30.05H108.101V28.55H106.601V30.05ZM103.301 30.05H101.801V31.55H103.301V30.05ZM103.301 24.3V22.8H101.801V24.3H103.301ZM106.601 24.3V25.8H108.101V24.3H106.601ZM106.601 17.45V15.95H105.101V17.45H106.601ZM113.651 17.45H115.151V15.95H113.651V17.45ZM113.651 24.3H112.151V25.8H113.651V24.3ZM119.851 24.3H121.351V22.8H119.851V24.3ZM119.851 30.05V31.55H121.351V30.05H119.851ZM112.151 30.05V43.45H115.151V30.05H112.151ZM112.151 43.45C112.151 44.5768 112.408 45.7286 113.24 46.5607L115.361 44.4393C115.327 44.4047 115.151 44.1899 115.151 43.45H112.151ZM113.325 46.6389C114.202 47.3908 115.415 47.6 116.601 47.6V44.6C115.653 44.6 115.333 44.4092 115.277 44.3611L113.325 46.6389ZM116.601 47.6H119.851V44.6H116.601V47.6ZM118.351 46.1V52H121.351V46.1H118.351ZM119.851 50.5H115.451V53.5H119.851V50.5ZM115.451 50.5C112.721 50.5 110.952 49.8366 109.859 48.7743C108.773 47.7197 108.101 46.0244 108.101 43.4H105.101C105.101 46.509 105.903 49.1136 107.768 50.9257C109.625 52.7301 112.28 53.5 115.451 53.5V50.5ZM108.101 43.4V30.05H105.101V43.4H108.101ZM106.601 28.55H103.301V31.55H106.601V28.55ZM104.801 30.05V24.3H101.801V30.05H104.801ZM103.301 25.8H106.601V22.8H103.301V25.8ZM108.101 24.3V17.45H105.101V24.3H108.101ZM106.601 18.95H113.651V15.95H106.601V18.95ZM112.151 17.45V24.3H115.151V17.45H112.151ZM113.651 25.8H119.851V22.8H113.651V25.8ZM118.351 24.3V30.05H121.351V24.3H118.351ZM119.851 28.55H113.651V31.55H119.851V28.55ZM131.886 28.6H130.386V33.9124L133.164 29.3845L131.886 28.6ZM135.386 25.15L134.645 23.8458L134.638 23.8495L134.632 23.8532L135.386 25.15ZM140.386 23.9H141.886V22.4H140.386V23.9ZM140.386 31.25V32.75H141.886V31.25H140.386ZM133.536 32.8L132.525 31.6916L132.517 31.6991L132.509 31.7067L133.536 32.8ZM131.886 52V53.5H133.386V52H131.886ZM124.886 52H123.386V53.5H124.886V52ZM124.886 24.3V22.8H123.386V24.3H124.886ZM131.886 24.3H133.386V22.8H131.886V24.3ZM133.164 29.3845C133.939 28.121 134.929 27.1506 136.139 26.4468L134.632 23.8532C132.975 24.8161 131.632 26.1456 130.607 27.8155L133.164 29.3845ZM136.127 26.4542C137.344 25.7625 138.75 25.4 140.386 25.4V22.4C138.287 22.4 136.361 22.8708 134.645 23.8458L136.127 26.4542ZM138.886 23.9V31.25H141.886V23.9H138.886ZM140.386 29.75H138.536V32.75H140.386V29.75ZM138.536 29.75C136.123 29.75 134.034 30.3155 132.525 31.6916L134.546 33.9084C135.304 33.2178 136.548 32.75 138.536 32.75V29.75ZM132.509 31.7067C130.952 33.1685 130.386 35.4937 130.386 38.2H133.386C133.386 35.7729 133.919 34.4982 134.563 33.8933L132.509 31.7067ZM130.386 38.2V52H133.386V38.2H130.386ZM131.886 50.5H124.886V53.5H131.886V50.5ZM126.386 52V24.3H123.386V52H126.386ZM124.886 25.8H131.886V22.8H124.886V25.8ZM130.386 24.3V28.6H133.386V24.3H130.386ZM144.95 30.6L143.621 29.9048L143.617 29.9128L143.613 29.921L144.95 30.6ZM149.5 25.6L148.725 24.3157L148.715 24.3217L149.5 25.6ZM161.35 25.1L160.634 26.418L160.646 26.4243L161.35 25.1ZM165.1 28.25L163.893 29.1398L166.6 32.8144V28.25H165.1ZM165.1 24.3V22.8H163.6V24.3H165.1ZM172.15 24.3H173.65V22.8H172.15V24.3ZM172.15 52V53.5H173.65V52H172.15ZM165.1 52H163.6V53.5H165.1V52ZM165.1 47.95H166.6V43.1481L163.867 47.0962L165.1 47.95ZM161.35 51.2L162.055 52.5243L162.065 52.5189L161.35 51.2ZM149.5 50.65L148.699 51.9183L148.709 51.9245L149.5 50.65ZM144.95 45.6L143.609 46.2708L143.615 46.2831L143.621 46.2952L144.95 45.6ZM164.1 33.8L162.781 34.5133L162.785 34.5209L162.789 34.5285L164.1 33.8ZM161.4 31L160.64 32.2929L160.654 32.3013L160.669 32.3094L161.4 31ZM154.15 30.95L153.402 29.6501L154.15 30.95ZM151.45 33.75L150.146 33.0096L150.139 33.0215L151.45 33.75ZM151.45 42.45L150.123 43.1486L150.134 43.1697L150.146 43.1904L151.45 42.45ZM154.15 45.3L153.373 46.5828L153.381 46.5879L153.39 46.5929L154.15 45.3ZM161.4 45.35L162.132 46.6594L162.147 46.6513L162.161 46.6429L161.4 45.35ZM164.1 42.55L165.412 43.2785L165.416 43.2709L165.42 43.2633L164.1 42.55ZM144.8 38.05C144.8 35.4499 145.31 33.2053 146.288 31.279L143.613 29.921C142.391 32.328 141.8 35.0501 141.8 38.05H144.8ZM146.28 31.2952C147.3 29.3446 148.638 27.8898 150.285 26.8783L148.715 24.3217C146.563 25.6436 144.868 27.5221 143.621 29.9048L146.28 31.2952ZM150.275 26.8843C151.963 25.8657 153.843 25.35 155.95 25.35V22.35C153.324 22.35 150.904 23.001 148.725 24.3157L150.275 26.8843ZM155.95 25.35C157.813 25.35 159.358 25.7243 160.634 26.4179L162.067 23.7821C160.276 22.809 158.221 22.35 155.95 22.35V25.35ZM160.646 26.4243C162.04 27.1658 163.109 28.0756 163.893 29.1398L166.308 27.3602C165.225 25.891 163.794 24.7009 162.055 23.7757L160.646 26.4243ZM166.6 28.25V24.3H163.6V28.25H166.6ZM165.1 25.8H172.15V22.8H165.1V25.8ZM170.65 24.3V52H173.65V24.3H170.65ZM172.15 50.5H165.1V53.5H172.15V50.5ZM166.6 52V47.95H163.6V52H166.6ZM163.867 47.0962C163.12 48.1752 162.06 49.1096 160.636 49.8811L162.065 52.5189C163.841 51.5571 165.281 50.3248 166.334 48.8038L163.867 47.0962ZM160.646 49.8757C159.329 50.576 157.762 50.95 155.9 50.95V53.95C158.172 53.95 160.238 53.4907 162.055 52.5243L160.646 49.8757ZM155.9 50.95C153.839 50.95 151.981 50.4242 150.291 49.3755L148.709 51.9245C150.886 53.2758 153.295 53.95 155.9 53.95V50.95ZM150.301 49.3818C148.644 48.3352 147.301 46.8585 146.28 44.9048L143.621 46.2952C144.866 48.6748 146.556 50.5648 148.699 51.9182L150.301 49.3818ZM146.292 44.9292C145.311 42.967 144.8 40.6859 144.8 38.05H141.8C141.8 41.0807 142.39 43.833 143.609 46.2708L146.292 44.9292ZM166.6 38.15C166.6 36.2551 166.228 34.5415 165.412 33.0715L162.789 34.5285C163.306 35.4585 163.6 36.6449 163.6 38.15H166.6ZM165.42 33.0867C164.629 31.6238 163.534 30.4739 162.132 29.6906L160.669 32.3094C161.534 32.7927 162.238 33.5096 162.781 34.5133L165.42 33.0867ZM162.161 29.7071C160.8 28.9065 159.321 28.5 157.75 28.5V31.5C158.78 31.5 159.734 31.7602 160.64 32.2929L162.161 29.7071ZM157.75 28.5C156.194 28.5 154.735 28.8824 153.402 29.6501L154.899 32.2499C155.765 31.751 156.706 31.5 157.75 31.5V28.5ZM153.402 29.6501C152.044 30.4321 150.962 31.5714 150.146 33.0096L152.755 34.4904C153.339 33.4619 154.057 32.7345 154.899 32.2499L153.402 29.6501ZM150.139 33.0215C149.325 34.4874 148.95 36.1827 148.95 38.05H151.95C151.95 36.584 152.243 35.4126 152.762 34.4785L150.139 33.0215ZM148.95 38.05C148.95 39.92 149.326 41.6336 150.123 43.1486L152.778 41.7514C152.242 40.733 151.95 39.5134 151.95 38.05H148.95ZM150.146 43.1904C150.959 44.6232 152.032 45.77 153.373 46.5828L154.928 44.0172C154.069 43.4966 153.342 42.7435 152.755 41.7096L150.146 43.1904ZM153.39 46.5929C154.745 47.3898 156.206 47.8 157.75 47.8V44.8C156.762 44.8 155.823 44.5436 154.911 44.0071L153.39 46.5929ZM157.75 47.8C159.306 47.8 160.775 47.4179 162.132 46.6594L160.669 44.0406C159.759 44.5488 158.795 44.8 157.75 44.8V47.8ZM162.161 46.6429C163.535 45.8345 164.621 44.7016 165.412 43.2785L162.789 41.8215C162.246 42.7984 161.532 43.5322 160.64 44.0571L162.161 46.6429ZM165.42 43.2633C166.228 41.7689 166.6 40.0465 166.6 38.15H163.6C163.6 39.6535 163.306 40.8645 162.781 41.8367L165.42 43.2633ZM187.137 30.05V28.55H185.637V30.05H187.137ZM187.787 45.5L186.726 46.5607L186.767 46.6014L186.811 46.6389L187.787 45.5ZM193.337 46.1H194.837V44.6H193.337V46.1ZM193.337 52V53.5H194.837V52H193.337ZM180.087 30.05H181.587V28.55H180.087V30.05ZM176.787 30.05H175.287V31.55H176.787V30.05ZM176.787 24.3V22.8H175.287V24.3H176.787ZM180.087 24.3V25.8H181.587V24.3H180.087ZM180.087 17.45V15.95H178.587V17.45H180.087ZM187.137 17.45H188.637V15.95H187.137V17.45ZM187.137 24.3H185.637V25.8H187.137V24.3ZM193.337 24.3H194.837V22.8H193.337V24.3ZM193.337 30.05V31.55H194.837V30.05H193.337ZM185.637 30.05V43.45H188.637V30.05H185.637ZM185.637 43.45C185.637 44.5768 185.894 45.7286 186.726 46.5607L188.848 44.4393C188.813 44.4047 188.637 44.1899 188.637 43.45H185.637ZM186.811 46.6389C187.688 47.3908 188.902 47.6 190.087 47.6V44.6C189.139 44.6 188.819 44.4092 188.763 44.3611L186.811 46.6389ZM190.087 47.6H193.337V44.6H190.087V47.6ZM191.837 46.1V52H194.837V46.1H191.837ZM193.337 50.5H188.937V53.5H193.337V50.5ZM188.937 50.5C186.208 50.5 184.438 49.8366 183.345 48.7743C182.26 47.7197 181.587 46.0244 181.587 43.4H178.587C178.587 46.509 179.389 49.1136 181.254 50.9257C183.111 52.7301 185.766 53.5 188.937 53.5V50.5ZM181.587 43.4V30.05H178.587V43.4H181.587ZM180.087 28.55H176.787V31.55H180.087V28.55ZM178.287 30.05V24.3H175.287V30.05H178.287ZM176.787 25.8H180.087V22.8H176.787V25.8ZM181.587 24.3V17.45H178.587V24.3H181.587ZM180.087 18.95H187.137V15.95H180.087V18.95ZM185.637 17.45V24.3H188.637V17.45H185.637ZM187.137 25.8H193.337V22.8H187.137V25.8ZM191.837 24.3V30.05H194.837V24.3H191.837ZM193.337 28.55H187.137V31.55H193.337V28.55ZM198.822 19.85L197.761 20.9107L197.783 20.9327L197.806 20.9539L198.822 19.85ZM198.822 14L199.86 15.083L199.861 15.0821L198.822 14ZM204.972 14L203.911 15.0607L203.933 15.0827L203.956 15.1039L204.972 14ZM204.972 19.85L206.01 20.933L206.011 20.9321L204.972 19.85ZM205.372 24.3H206.872V22.8H205.372V24.3ZM205.372 52V53.5H206.872V52H205.372ZM198.372 52H196.872V53.5H198.372V52ZM198.372 24.3V22.8H196.872V24.3H198.372ZM201.922 19.5C201.028 19.5 200.368 19.2344 199.837 18.7461L197.806 20.9539C198.942 21.999 200.349 22.5 201.922 22.5V19.5ZM199.883 18.7893C199.374 18.2803 199.122 17.6827 199.122 16.9H196.122C196.122 18.4506 196.67 19.8197 197.761 20.9107L199.883 18.7893ZM199.122 16.9C199.122 16.118 199.372 15.5504 199.86 15.083L197.784 12.917C196.672 13.9829 196.122 15.3487 196.122 16.9H199.122ZM199.861 15.0821C200.395 14.5696 201.047 14.3 201.922 14.3V11.3C200.33 11.3 198.916 11.8304 197.783 12.9179L199.861 15.0821ZM201.922 14.3C202.797 14.3 203.419 14.5687 203.911 15.0607L206.033 12.9393C204.924 11.8313 203.514 11.3 201.922 11.3V14.3ZM203.956 15.1039C204.47 15.5769 204.722 16.1384 204.722 16.9H207.722C207.722 15.3282 207.14 13.9564 205.987 12.8961L203.956 15.1039ZM204.722 16.9C204.722 17.6628 204.468 18.2539 203.933 18.7679L206.011 20.9321C207.142 19.8461 207.722 18.4705 207.722 16.9H204.722ZM203.934 18.767C203.446 19.2349 202.816 19.5 201.922 19.5V22.5C203.494 22.5 204.898 21.9985 206.01 20.933L203.934 18.767ZM203.872 24.3V52H206.872V24.3H203.872ZM205.372 50.5H198.372V53.5H205.372V50.5ZM199.872 52V24.3H196.872V52H199.872ZM198.372 25.8H205.372V22.8H198.372V25.8ZM217.388 50.7L216.652 52.0074L216.66 52.0118L216.668 52.0161L217.388 50.7ZM212.338 45.65L211.026 46.3768L211.03 46.3844L211.034 46.392L212.338 45.65ZM212.388 30.65L211.093 29.893L211.089 29.9004L211.084 29.908L212.388 30.65ZM217.538 25.65L218.249 26.9707L218.257 26.9665L218.265 26.9622L217.538 25.65ZM232.038 25.65L231.311 26.9622L231.319 26.9665L231.327 26.9707L232.038 25.65ZM237.138 30.65L235.834 31.392L235.839 31.3996L235.843 31.407L237.138 30.65ZM237.088 45.65L235.802 44.8783L235.797 44.8856L235.793 44.893L237.088 45.65ZM231.888 50.7L232.599 52.0207L232.606 52.0168L231.888 50.7ZM228.138 45.45L228.856 46.7668L228.863 46.7632L228.87 46.7594L228.138 45.45ZM230.838 42.65L232.157 43.3633L230.838 42.65ZM229.738 32.1L228.652 33.1351L228.665 33.148L228.677 33.1607L229.738 32.1ZM219.638 32.1L218.552 31.0649L218.552 31.0655L219.638 32.1ZM219.588 44.25L218.477 45.2577L218.489 45.2713L218.502 45.2845L219.588 44.25ZM224.588 50.95C222.148 50.95 219.999 50.4185 218.108 49.3839L216.668 52.0161C219.043 53.3148 221.695 53.95 224.588 53.95V50.95ZM218.123 49.3926C216.232 48.3286 214.743 46.8427 213.641 44.908L211.034 46.392C212.4 48.7906 214.277 50.6714 216.652 52.0074L218.123 49.3926ZM213.65 44.9232C212.59 43.0093 212.038 40.7661 212.038 38.15H209.038C209.038 41.2005 209.686 43.9574 211.026 46.3768L213.65 44.9232ZM212.038 38.15C212.038 35.5408 212.604 33.3032 213.691 31.392L211.084 29.908C209.705 32.3302 209.038 35.0926 209.038 38.15H212.038ZM213.683 31.407C214.813 29.4733 216.33 28.004 218.249 26.9707L216.827 24.3293C214.412 25.6294 212.496 27.4933 211.093 29.893L213.683 31.407ZM218.265 26.9622C220.192 25.8947 222.355 25.35 224.788 25.35V22.35C221.887 22.35 219.217 23.0053 216.811 24.3378L218.265 26.9622ZM224.788 25.35C227.22 25.35 229.384 25.8947 231.311 26.9622L232.765 24.3378C230.359 23.0053 227.689 22.35 224.788 22.35V25.35ZM231.327 26.9707C233.242 28.0021 234.738 29.4666 235.834 31.392L238.441 29.908C237.071 27.5 235.167 25.6313 232.749 24.3293L231.327 26.9707ZM235.843 31.407C236.959 33.3156 237.538 35.5477 237.538 38.15H240.538C240.538 35.0856 239.85 32.3178 238.433 29.893L235.843 31.407ZM237.538 38.15C237.538 40.7453 236.945 42.9721 235.802 44.8783L238.374 46.4217C239.83 43.9946 240.538 41.2214 240.538 38.15H237.538ZM235.793 44.893C234.664 46.8244 233.13 48.314 231.17 49.3832L232.606 52.0168C235.046 50.686 236.979 48.8089 238.383 46.407L235.793 44.893ZM231.177 49.3793C229.249 50.4171 227.064 50.95 224.588 50.95V53.95C227.511 53.95 230.193 53.3162 232.599 52.0207L231.177 49.3793ZM224.588 47.85C226.103 47.85 227.533 47.4884 228.856 46.7668L227.42 44.1332C226.542 44.6116 225.606 44.85 224.588 44.85V47.85ZM228.87 46.7594C230.271 45.9761 231.367 44.8262 232.157 43.3633L229.518 41.9367C228.976 42.9404 228.271 43.6573 227.406 44.1406L228.87 46.7594ZM232.157 43.3633C232.969 41.8611 233.338 40.1022 233.338 38.15H230.338C230.338 39.7311 230.04 40.9723 229.518 41.9367L232.157 43.3633ZM233.338 38.15C233.338 35.2546 232.563 32.804 230.799 31.0393L228.677 33.1607C229.713 34.196 230.338 35.7787 230.338 38.15H233.338ZM230.824 31.0649C229.171 29.3314 227.094 28.45 224.688 28.45V31.45C226.282 31.45 227.572 32.002 228.652 33.1351L230.824 31.0649ZM224.688 28.45C222.282 28.45 220.205 29.3314 218.552 31.0649L220.723 33.1351C221.804 32.002 223.094 31.45 224.688 31.45V28.45ZM218.552 31.0655C216.869 32.8326 216.138 35.2734 216.138 38.15H219.138C219.138 35.7599 219.74 34.1674 220.724 33.1345L218.552 31.0655ZM216.138 38.15C216.138 41.02 216.848 43.4621 218.477 45.2577L220.699 43.2423C219.728 42.1713 219.138 40.5467 219.138 38.15H216.138ZM218.502 45.2845C220.129 46.9931 222.193 47.85 224.588 47.85V44.85C222.982 44.85 221.714 44.3069 220.674 43.2155L218.502 45.2845ZM267.523 27.05L266.445 28.0934L266.453 28.102L267.523 27.05ZM270.573 52V53.5H272.073V52H270.573ZM263.573 52H262.073V53.5H263.573V52ZM261.923 31.65L260.817 32.6636L260.824 32.6714L260.831 32.679L261.923 31.65ZM252.823 31.65L251.732 30.6201L251.731 30.621L252.823 31.65ZM251.173 52V53.5H252.673V52H251.173ZM244.173 52H242.673V53.5H244.173V52ZM244.173 24.3V22.8H242.673V24.3H244.173ZM251.173 24.3H252.673V22.8H251.173V24.3ZM251.173 27.75H249.673V32.1218L252.357 28.6709L251.173 27.75ZM254.723 24.95L255.355 26.3101L255.362 26.3069L255.369 26.3037L254.723 24.95ZM259.523 25.4C262.474 25.4 264.732 26.3241 266.445 28.0934L268.6 26.0066C266.247 23.5759 263.171 22.4 259.523 22.4V25.4ZM266.453 28.102C268.138 29.8139 269.073 32.2921 269.073 35.75H272.073C272.073 31.7412 270.974 28.4195 268.592 25.998L266.453 28.102ZM269.073 35.75V52H272.073V35.75H269.073ZM270.573 50.5H263.573V53.5H270.573V50.5ZM265.073 52V36.7H262.073V52H265.073ZM265.073 36.7C265.073 34.2617 264.461 32.1557 263.014 30.621L260.831 32.679C261.584 33.4776 262.073 34.7383 262.073 36.7H265.073ZM263.028 30.6364C261.596 29.074 259.666 28.35 257.423 28.35V31.35C258.979 31.35 260.049 31.826 260.817 32.6636L263.028 30.6364ZM257.423 28.35C255.154 28.35 253.198 29.0683 251.732 30.6201L253.913 32.6799C254.714 31.8317 255.825 31.35 257.423 31.35V28.35ZM251.731 30.621C250.284 32.1557 249.673 34.2617 249.673 36.7H252.673C252.673 34.7383 253.161 33.4776 253.914 32.679L251.731 30.621ZM249.673 36.7V52H252.673V36.7H249.673ZM251.173 50.5H244.173V53.5H251.173V50.5ZM245.673 52V24.3H242.673V52H245.673ZM244.173 25.8H251.173V22.8H244.173V25.8ZM249.673 24.3V27.75H252.673V24.3H249.673ZM252.357 28.6709C253.138 27.6666 254.129 26.8804 255.355 26.3101L254.09 23.5899C252.45 24.353 251.074 25.4334 249.989 26.8291L252.357 28.6709ZM255.369 26.3037C256.62 25.7064 257.998 25.4 259.523 25.4V22.4C257.581 22.4 255.758 22.7936 254.077 23.5963L255.369 26.3037Z" fill="white"/>
</svg>
